<?xml version="1.0" encoding="UTF-8" standalone="no"?>
<svg
   xmlns:dc="http://purl.org/dc/elements/1.1/"
   xmlns:cc="http://creativecommons.org/ns#"
   xmlns:rdf="http://www.w3.org/1999/02/22-rdf-syntax-ns#"
   xmlns:svg="http://www.w3.org/2000/svg"
   xmlns="http://www.w3.org/2000/svg"
   viewBox="0 0 2718.6667 2718.6667"
   height="2718.6667"
   width="2718.6667"
   xml:space="preserve"
   id="svg2"
   version="1.1"><metadata
     id="metadata8"><rdf:RDF><cc:Work
         rdf:about=""><dc:format>image/svg+xml</dc:format><dc:type
           rdf:resource="http://purl.org/dc/dcmitype/StillImage" /></cc:Work></rdf:RDF></metadata><defs
     id="defs6"><clipPath
       id="clipPath20"
       clipPathUnits="userSpaceOnUse"><path
         id="path18"
         d="M 0,20389.4 H 20375 V 85.4023 H 0 Z" /></clipPath><clipPath
       id="clipPath626"
       clipPathUnits="userSpaceOnUse"><path
         id="path624"
         d="M 6117,14868.8 V 7560.2 h 8156 v 7308.6 z" /></clipPath><clipPath
       id="clipPath648"
       clipPathUnits="userSpaceOnUse"><path
         id="path646"
         d="M 6117,14868.8 V 7560.2 h 8156 v 7308.6 z" /></clipPath></defs><g
     transform="matrix(1.3333333,0,0,-1.3333333,0,2718.6667)"
     id="g10"><g
       transform="scale(0.1)"
       id="g12"><g
         id="g14"><g
           clip-path="url(#clipPath20)"
           id="g16"><g
             transform="scale(1.25092)"
             id="g22"><path
               id="path24"
               style="fill:#e2e0e0;fill-opacity:1;fill-rule:nonzero;stroke:none"
               d="M 815.4,15484.6 H 0 v 815.4 h 815.4 v -815.4 0" /></g><g
             transform="scale(1.25092)"
             id="g26"><path
               id="path28"
               style="fill:#e2e0e0;fill-opacity:1;fill-rule:nonzero;stroke:none"
               d="m 2446.2,15484.6 h -815.4 v 815.4 h 815.4 v -815.4 0" /></g><g
             transform="scale(1.25092)"
             id="g30"><path
               id="path32"
               style="fill:#e2e0e0;fill-opacity:1;fill-rule:nonzero;stroke:none"
               d="M 4077,15484.6 H 3261.6 V 16300 H 4077 v -815.4 0" /></g><g
             transform="scale(1.25092)"
             id="g34"><path
               id="path36"
               style="fill:#e2e0e0;fill-opacity:1;fill-rule:nonzero;stroke:none"
               d="m 5707.8,15484.6 h -815.4 v 815.4 h 815.4 v -815.4 0" /></g><g
             transform="scale(1.25092)"
             id="g38"><path
               id="path40"
               style="fill:#e2e0e0;fill-opacity:1;fill-rule:nonzero;stroke:none"
               d="m 7338.6,15484.6 h -815.4 v 815.4 h 815.4 v -815.4 0" /></g><g
             transform="scale(1.25092)"
             id="g42"><path
               id="path44"
               style="fill:#e2e0e0;fill-opacity:1;fill-rule:nonzero;stroke:none"
               d="M 8969.4,15484.6 H 8154 v 815.4 h 815.4 v -815.4 0" /></g><g
             transform="scale(1.25092)"
             id="g46"><path
               id="path48"
               style="fill:#e2e0e0;fill-opacity:1;fill-rule:nonzero;stroke:none"
               d="m 10600.2,15484.6 h -815.4 v 815.4 h 815.4 v -815.4 0" /></g><g
             transform="scale(1.25092)"
             id="g50"><path
               id="path52"
               style="fill:#e2e0e0;fill-opacity:1;fill-rule:nonzero;stroke:none"
               d="m 12231,15484.6 h -815.4 v 815.4 h 815.4 v -815.4 0" /></g><g
             transform="scale(1.25092)"
             id="g54"><path
               id="path56"
               style="fill:#e2e0e0;fill-opacity:1;fill-rule:nonzero;stroke:none"
               d="m 13861.8,15484.6 h -815.4 v 815.4 h 815.4 v -815.4 0" /></g><g
             transform="scale(1.25092)"
             id="g58"><path
               id="path60"
               style="fill:#e2e0e0;fill-opacity:1;fill-rule:nonzero;stroke:none"
               d="m 15492.6,15484.6 h -815.4 v 815.4 h 815.4 v -815.4 0" /></g></g></g><g
         transform="scale(1.18868)"
         id="g62"><path
           id="path64"
           style="fill:#e2e0e0;fill-opacity:1;fill-rule:nonzero;stroke:none"
           d="M 1720.38,15441.9 H 862.287 v 858.1 h 858.093 v -858.1 0" /></g><g
         transform="scale(1.18868)"
         id="g66"><path
           id="path68"
           style="fill:#e2e0e0;fill-opacity:1;fill-rule:nonzero;stroke:none"
           d="m 3436.58,15441.9 h -858.1 v 858.1 h 858.1 v -858.1 0" /></g><g
         transform="scale(1.18868)"
         id="g70"><path
           id="path72"
           style="fill:#e2e0e0;fill-opacity:1;fill-rule:nonzero;stroke:none"
           d="m 5152.77,15441.9 h -858.09 v 858.1 h 858.09 v -858.1 0" /></g><g
         transform="scale(1.18868)"
         id="g74"><path
           id="path76"
           style="fill:#e2e0e0;fill-opacity:1;fill-rule:nonzero;stroke:none"
           d="m 6868.97,15441.9 h -858.1 v 858.1 h 858.1 v -858.1 0" /></g><g
         transform="scale(1.18868)"
         id="g78"><path
           id="path80"
           style="fill:#e2e0e0;fill-opacity:1;fill-rule:nonzero;stroke:none"
           d="m 8585.18,15441.9 h -858.12 v 858.1 h 858.12 v -858.1 0" /></g><g
         transform="scale(1.18868)"
         id="g82"><path
           id="path84"
           style="fill:#e2e0e0;fill-opacity:1;fill-rule:nonzero;stroke:none"
           d="m 10301.4,15441.9 h -858.13 v 858.1 h 858.13 v -858.1 0" /></g><g
         transform="scale(1.18868)"
         id="g86"><path
           id="path88"
           style="fill:#e2e0e0;fill-opacity:1;fill-rule:nonzero;stroke:none"
           d="m 12017.6,15441.9 h -858.1 v 858.1 h 858.1 v -858.1 0" /></g><g
         transform="scale(1.18868)"
         id="g90"><path
           id="path92"
           style="fill:#e2e0e0;fill-opacity:1;fill-rule:nonzero;stroke:none"
           d="m 13733.8,15441.9 h -858.1 v 858.1 h 858.1 v -858.1 0" /></g><g
         transform="scale(1.18868)"
         id="g94"><path
           id="path96"
           style="fill:#e2e0e0;fill-opacity:1;fill-rule:nonzero;stroke:none"
           d="m 15450,15441.9 h -858.1 v 858.1 h 858.1 v -858.1 0" /></g><g
         transform="scale(1.25)"
         id="g98"><path
           id="path100"
           style="fill:#e2e0e0;fill-opacity:1;fill-rule:nonzero;stroke:none"
           d="m 16300,14684.3 h -800 v 816 h 800 v -816 0" /></g><g
         transform="scale(1.12638)"
         id="g102"><path
           id="path104"
           style="fill:#e2e0e0;fill-opacity:1;fill-rule:nonzero;stroke:none"
           d="M 914.434,15394.4 H 8.878 v 905.6 h 905.556 v -905.6 0" /></g><g
         transform="scale(1.12638)"
         id="g106"><path
           id="path108"
           style="fill:#e2e0e0;fill-opacity:1;fill-rule:nonzero;stroke:none"
           d="m 2725.54,15394.4 h -905.55 v 905.6 h 905.55 v -905.6 0" /></g><g
         transform="scale(1.12638)"
         id="g110"><path
           id="path112"
           style="fill:#e2e0e0;fill-opacity:1;fill-rule:nonzero;stroke:none"
           d="M 4536.66,15394.4 H 3631.1 v 905.6 h 905.56 v -905.6 0" /></g><g
         transform="scale(1.12638)"
         id="g114"><path
           id="path116"
           style="fill:#e2e0e0;fill-opacity:1;fill-rule:nonzero;stroke:none"
           d="m 6347.77,15394.4 h -905.56 v 905.6 h 905.56 v -905.6 0" /></g><g
         transform="scale(1.12638)"
         id="g118"><path
           id="path120"
           style="fill:#e2e0e0;fill-opacity:1;fill-rule:nonzero;stroke:none"
           d="m 8158.88,15394.4 h -905.56 v 905.6 h 905.56 v -905.6 0" /></g><g
         transform="scale(1.12638)"
         id="g122"><path
           id="path124"
           style="fill:#e2e0e0;fill-opacity:1;fill-rule:nonzero;stroke:none"
           d="m 9969.99,15394.4 h -905.56 v 905.6 h 905.56 v -905.6 0" /></g><g
         transform="scale(1.12638)"
         id="g126"><path
           id="path128"
           style="fill:#e2e0e0;fill-opacity:1;fill-rule:nonzero;stroke:none"
           d="m 11781.1,15394.4 h -905.6 v 905.6 h 905.6 v -905.6 0" /></g><g
         transform="scale(1.12638)"
         id="g130"><path
           id="path132"
           style="fill:#e2e0e0;fill-opacity:1;fill-rule:nonzero;stroke:none"
           d="m 13592.2,15394.4 h -905.5 v 905.6 h 905.5 v -905.6 0" /></g><g
         transform="scale(1.12638)"
         id="g134"><path
           id="path136"
           style="fill:#e2e0e0;fill-opacity:1;fill-rule:nonzero;stroke:none"
           d="m 15403.3,15394.4 h -905.5 v 905.6 h 905.5 v -905.6 0" /></g><g
         transform="scale(1.18957)"
         id="g138"><path
           id="path140"
           style="fill:#e2e0e0;fill-opacity:1;fill-rule:nonzero;stroke:none"
           d="m 16300,14576.7 h -857.5 v 857.4 h 857.5 v -857.4 0" /></g><g
         transform="scale(1.06414)"
         id="g142"><path
           id="path144"
           style="fill:#e2e0e0;fill-opacity:1;fill-rule:nonzero;stroke:none"
           d="M 1921.73,15341.5 H 963.204 v 958.5 h 958.526 v -958.5 0" /></g><g
         transform="scale(1.06414)"
         id="g146"><path
           id="path148"
           style="fill:#e2e0e0;fill-opacity:1;fill-rule:nonzero;stroke:none"
           d="m 3838.77,15341.5 h -958.52 v 958.5 h 958.52 v -958.5 0" /></g><g
         transform="scale(1.06414)"
         id="g150"><path
           id="path152"
           style="fill:#e2e0e0;fill-opacity:1;fill-rule:nonzero;stroke:none"
           d="M 5755.82,15341.5 H 4797.3 v 958.5 h 958.52 v -958.5 0" /></g><g
         transform="scale(1.06414)"
         id="g154"><path
           id="path156"
           style="fill:#e2e0e0;fill-opacity:1;fill-rule:nonzero;stroke:none"
           d="m 7672.87,15341.5 h -958.53 v 958.5 h 958.53 v -958.5 0" /></g><g
         transform="scale(1.06414)"
         id="g158"><path
           id="path160"
           style="fill:#e2e0e0;fill-opacity:1;fill-rule:nonzero;stroke:none"
           d="m 9589.93,15341.5 h -958.54 v 958.5 h 958.54 v -958.5 0" /></g><g
         transform="scale(1.06414)"
         id="g162"><path
           id="path164"
           style="fill:#e2e0e0;fill-opacity:1;fill-rule:nonzero;stroke:none"
           d="m 11507,15341.5 h -958.5 v 958.5 h 958.5 v -958.5 0" /></g><g
         transform="scale(1.06414)"
         id="g166"><path
           id="path168"
           style="fill:#e2e0e0;fill-opacity:1;fill-rule:nonzero;stroke:none"
           d="m 13424,15341.5 h -958.5 v 958.5 h 958.5 v -958.5 0" /></g><g
         transform="scale(1.06414)"
         id="g170"><path
           id="path172"
           style="fill:#e2e0e0;fill-opacity:1;fill-rule:nonzero;stroke:none"
           d="m 15341.1,15341.5 h -958.5 v 958.5 h 958.5 v -958.5 0" /></g><g
         transform="scale(1.12669)"
         id="g174"><path
           id="path176"
           style="fill:#e2e0e0;fill-opacity:1;fill-rule:nonzero;stroke:none"
           d="m 16300,14489.8 h -905.3 v 905.3 h 905.3 v -905.3 0" /></g><g
         transform="scale(1.25)"
         id="g178"><path
           id="path180"
           style="fill:#e2e0e0;fill-opacity:1;fill-rule:nonzero;stroke:none"
           d="m 16300,13060.3 h -800 v 816 h 800 v -816 0" /></g><g
         transform="scale(1.00184)"
         id="g182"><path
           id="path184"
           style="fill:#e2e0e0;fill-opacity:1;fill-rule:nonzero;stroke:none"
           d="M 1038.09,15281.9 H 19.9633 V 16300 H 1038.09 v -1018.1 0" /></g><g
         transform="scale(1.00184)"
         id="g186"><path
           id="path188"
           style="fill:#e2e0e0;fill-opacity:1;fill-rule:nonzero;stroke:none"
           d="M 3074.34,15281.9 H 2056.22 V 16300 h 1018.12 v -1018.1 0" /></g><g
         transform="scale(1.00184)"
         id="g190"><path
           id="path192"
           style="fill:#e2e0e0;fill-opacity:1;fill-rule:nonzero;stroke:none"
           d="M 5110.59,15281.9 H 4092.47 V 16300 h 1018.12 v -1018.1 0" /></g><g
         transform="scale(1.00184)"
         id="g194"><path
           id="path196"
           style="fill:#e2e0e0;fill-opacity:1;fill-rule:nonzero;stroke:none"
           d="M 7146.85,15281.9 H 6128.72 V 16300 h 1018.13 v -1018.1 0" /></g><g
         transform="scale(1.00184)"
         id="g198"><path
           id="path200"
           style="fill:#e2e0e0;fill-opacity:1;fill-rule:nonzero;stroke:none"
           d="M 9183.1,15281.9 H 8164.97 V 16300 H 9183.1 v -1018.1 0" /></g><g
         transform="scale(1.00184)"
         id="g202"><path
           id="path204"
           style="fill:#e2e0e0;fill-opacity:1;fill-rule:nonzero;stroke:none"
           d="M 11219.4,15281.9 H 10201.2 V 16300 h 1018.2 v -1018.1 0" /></g><g
         transform="scale(1.00184)"
         id="g206"><path
           id="path208"
           style="fill:#e2e0e0;fill-opacity:1;fill-rule:nonzero;stroke:none"
           d="M 13255.6,15281.9 H 12237.5 V 16300 h 1018.1 v -1018.1 0" /></g><g
         transform="scale(1.00184)"
         id="g210"><path
           id="path212"
           style="fill:#e2e0e0;fill-opacity:1;fill-rule:nonzero;stroke:none"
           d="M 15291.9,15281.9 H 14273.7 V 16300 h 1018.2 v -1018.1 0" /></g><g
         transform="scale(1.06503)"
         id="g214"><path
           id="path216"
           style="fill:#e2e0e0;fill-opacity:1;fill-rule:nonzero;stroke:none"
           d="m 16300,14375.2 h -957.7 v 957.7 h 957.7 v -957.7 0" /></g><g
         transform="scale(1.19018)"
         id="g218"><path
           id="path220"
           style="fill:#e2e0e0;fill-opacity:1;fill-rule:nonzero;stroke:none"
           d="m 16300,12863.6 h -857 v 857 h 857 v -857 0" /></g><path
         id="path222"
         style="fill:#e2e0e0;fill-opacity:1;fill-rule:nonzero;stroke:none"
         d="m 2044.98,14295.4 h -1020 v 1020 h 1020 v -1020 0" /><path
         id="path224"
         style="fill:#e2e0e0;fill-opacity:1;fill-rule:nonzero;stroke:none"
         d="m 4084.98,14295.4 h -1020 v 1020 h 1020 v -1020 0" /><path
         id="path226"
         style="fill:#e2e0e0;fill-opacity:1;fill-rule:nonzero;stroke:none"
         d="m 6124.98,14295.4 h -1020 v 1020 h 1020 v -1020 0" /><path
         id="path228"
         style="fill:#e2e0e0;fill-opacity:1;fill-rule:nonzero;stroke:none"
         d="m 8164.98,14295.4 h -1020 v 1020 h 1020 v -1020 0" /><path
         id="path230"
         style="fill:#e2e0e0;fill-opacity:1;fill-rule:nonzero;stroke:none"
         d="M 10205,14295.4 H 9184.98 v 1020 H 10205 v -1020 0" /><path
         id="path232"
         style="fill:#e2e0e0;fill-opacity:1;fill-rule:nonzero;stroke:none"
         d="m 12245,14295.4 h -1020 v 1020 h 1020 v -1020 0" /><path
         id="path234"
         style="fill:#e2e0e0;fill-opacity:1;fill-rule:nonzero;stroke:none"
         d="m 14285,14295.4 h -1020 v 1020 h 1020 v -1020 0" /><g
         transform="scale(1.00153)"
         id="g236"><path
           id="path238"
           style="fill:#e2e0e0;fill-opacity:1;fill-rule:nonzero;stroke:none"
           d="M 16300,14273.5 H 15281.6 V 15292 H 16300 v -1018.5 0" /></g><g
         transform="scale(1.12669)"
         id="g240"><path
           id="path242"
           style="fill:#e2e0e0;fill-opacity:1;fill-rule:nonzero;stroke:none"
           d="m 16300,12688 h -905.3 v 905.3 h 905.3 v -905.3 0" /></g><g
         transform="scale(1.25)"
         id="g244"><path
           id="path246"
           style="fill:#e2e0e0;fill-opacity:1;fill-rule:nonzero;stroke:none"
           d="m 16300,11436.3 h -800 v 816 h 800 v -816 0" /></g><path
         id="path248"
         style="fill:#e2e0e0;fill-opacity:1;fill-rule:nonzero;stroke:none"
         d="M 1050,13280 H 30 v 1020 h 1020 v -1020 0" /><path
         id="path250"
         style="fill:#e2e0e0;fill-opacity:1;fill-rule:nonzero;stroke:none"
         d="M 3090,13280 H 2070 v 1020 h 1020 v -1020 0" /><path
         id="path252"
         style="fill:#e2e0e0;fill-opacity:1;fill-rule:nonzero;stroke:none"
         d="M 5130,13280 H 4110 v 1020 h 1020 v -1020 0" /><path
         id="path254"
         style="fill:#e2e0e0;fill-opacity:1;fill-rule:nonzero;stroke:none"
         d="M 7170,13280 H 6150 v 1020 h 1020 v -1020 0" /><path
         id="path256"
         style="fill:#e2e0e0;fill-opacity:1;fill-rule:nonzero;stroke:none"
         d="M 9210,13280 H 8190 v 1020 h 1020 v -1020 0" /><path
         id="path258"
         style="fill:#e2e0e0;fill-opacity:1;fill-rule:nonzero;stroke:none"
         d="m 11250,13280 h -1020 v 1020 h 1020 v -1020 0" /><path
         id="path260"
         style="fill:#e2e0e0;fill-opacity:1;fill-rule:nonzero;stroke:none"
         d="m 13290,13280 h -1020 v 1020 h 1020 v -1020 0" /><path
         id="path262"
         style="fill:#e2e0e0;fill-opacity:1;fill-rule:nonzero;stroke:none"
         d="m 15330,13280 h -1020 v 1020 h 1020 v -1020 0" /><g
         transform="scale(1.06564)"
         id="g264"><path
           id="path266"
           style="fill:#e2e0e0;fill-opacity:1;fill-rule:nonzero;stroke:none"
           d="m 16300,12461.9 h -957.2 v 957.2 h 957.2 v -957.2 0" /></g><g
         transform="scale(1.1908)"
         id="g268"><path
           id="path270"
           style="fill:#e2e0e0;fill-opacity:1;fill-rule:nonzero;stroke:none"
           d="m 16300,11152.2 h -856.6 v 856.6 h 856.6 v -856.6 0" /></g><path
         id="path272"
         style="fill:#e2e0e0;fill-opacity:1;fill-rule:nonzero;stroke:none"
         d="m 2044.98,12265.4 h -1020 v 1020 h 1020 v -1020 0" /><path
         id="path274"
         style="fill:#e2e0e0;fill-opacity:1;fill-rule:nonzero;stroke:none"
         d="m 4084.98,12265.4 h -1020 v 1020 h 1020 v -1020 0" /><path
         id="path276"
         style="fill:#e2e0e0;fill-opacity:1;fill-rule:nonzero;stroke:none"
         d="m 6124.98,12265.4 h -1020 v 1020 h 1020 v -1020 0" /><path
         id="path278"
         style="fill:#e2e0e0;fill-opacity:1;fill-rule:nonzero;stroke:none"
         d="m 8164.98,12265.4 h -1020 v 1020 h 1020 v -1020 0" /><path
         id="path280"
         style="fill:#e2e0e0;fill-opacity:1;fill-rule:nonzero;stroke:none"
         d="M 10205,12265.4 H 9184.98 v 1020 H 10205 v -1020 0" /><path
         id="path282"
         style="fill:#e2e0e0;fill-opacity:1;fill-rule:nonzero;stroke:none"
         d="m 12245,12265.4 h -1020 v 1020 h 1020 v -1020 0" /><path
         id="path284"
         style="fill:#e2e0e0;fill-opacity:1;fill-rule:nonzero;stroke:none"
         d="m 14285,12265.4 h -1020 v 1020 h 1020 v -1020 0" /><g
         transform="scale(1.00153)"
         id="g286"><path
           id="path288"
           style="fill:#e2e0e0;fill-opacity:1;fill-rule:nonzero;stroke:none"
           d="m 16300,12246.6 h -1018.4 v 1018.5 H 16300 v -1018.5 0" /></g><g
         transform="scale(1.12669)"
         id="g290"><path
           id="path292"
           style="fill:#e2e0e0;fill-opacity:1;fill-rule:nonzero;stroke:none"
           d="m 16300,10886.3 h -905.3 v 905.3 h 905.3 v -905.3 0" /></g><g
         transform="scale(1.25)"
         id="g294"><path
           id="path296"
           style="fill:#e2e0e0;fill-opacity:1;fill-rule:nonzero;stroke:none"
           d="m 16300,9812.34 h -800 v 815.96 h 800 v -815.96 0" /></g><path
         id="path298"
         style="fill:#e2e0e0;fill-opacity:1;fill-rule:nonzero;stroke:none"
         d="M 1020,11250 H 0 v 1020 h 1020 v -1020 0" /><path
         id="path300"
         style="fill:#e2e0e0;fill-opacity:1;fill-rule:nonzero;stroke:none"
         d="M 3060,11250 H 2040 v 1020 h 1020 v -1020 0" /><path
         id="path302"
         style="fill:#e2e0e0;fill-opacity:1;fill-rule:nonzero;stroke:none"
         d="M 5100,11250 H 4080 v 1020 h 1020 v -1020 0" /><path
         id="path304"
         style="fill:#e2e0e0;fill-opacity:1;fill-rule:nonzero;stroke:none"
         d="M 7140,11250 H 6120 v 1020 h 1020 v -1020 0" /><path
         id="path306"
         style="fill:#e2e0e0;fill-opacity:1;fill-rule:nonzero;stroke:none"
         d="M 9180,11250 H 8160 v 1020 h 1020 v -1020 0" /><path
         id="path308"
         style="fill:#e2e0e0;fill-opacity:1;fill-rule:nonzero;stroke:none"
         d="m 11220,11250 h -1020 v 1020 h 1020 v -1020 0" /><path
         id="path310"
         style="fill:#e2e0e0;fill-opacity:1;fill-rule:nonzero;stroke:none"
         d="m 13260,11250 h -1020 v 1020 h 1020 v -1020 0" /><path
         id="path312"
         style="fill:#e2e0e0;fill-opacity:1;fill-rule:nonzero;stroke:none"
         d="m 15300,11250 h -1020 v 1020 h 1020 v -1020 0" /><g
         transform="scale(1.0638)"
         id="g314"><path
           id="path316"
           style="fill:#e2e0e0;fill-opacity:1;fill-rule:nonzero;stroke:none"
           d="m 16300,10575.3 h -958.8 v 958.8 h 958.8 v -958.8 0" /></g><g
         transform="scale(1.18896)"
         id="g318"><path
           id="path320"
           style="fill:#e2e0e0;fill-opacity:1;fill-rule:nonzero;stroke:none"
           d="m 16300,9462.07 h -857.9 V 10320 h 857.9 v -857.93 0" /></g><path
         id="path322"
         style="fill:#e2e0e0;fill-opacity:1;fill-rule:nonzero;stroke:none"
         d="m 2044.98,10235.4 h -1020 v 1020 h 1020 v -1020 0" /><path
         id="path324"
         style="fill:#e2e0e0;fill-opacity:1;fill-rule:nonzero;stroke:none"
         d="m 4084.98,10235.4 h -1020 v 1020 h 1020 v -1020 0" /><path
         id="path326"
         style="fill:#e2e0e0;fill-opacity:1;fill-rule:nonzero;stroke:none"
         d="m 6124.98,10235.4 h -1020 v 1020 h 1020 v -1020 0" /><path
         id="path328"
         style="fill:#e2e0e0;fill-opacity:1;fill-rule:nonzero;stroke:none"
         d="m 8164.98,10235.4 h -1020 v 1020 h 1020 v -1020 0" /><path
         id="path330"
         style="fill:#e2e0e0;fill-opacity:1;fill-rule:nonzero;stroke:none"
         d="M 10205,10235.4 H 9184.98 v 1020 H 10205 v -1020 0" /><path
         id="path332"
         style="fill:#e2e0e0;fill-opacity:1;fill-rule:nonzero;stroke:none"
         d="m 12245,10235.4 h -1020 v 1020 h 1020 v -1020 0" /><path
         id="path334"
         style="fill:#e2e0e0;fill-opacity:1;fill-rule:nonzero;stroke:none"
         d="m 14285,10235.4 h -1020 v 1020 h 1020 v -1020 0" /><g
         transform="scale(1.00153)"
         id="g336"><path
           id="path338"
           style="fill:#e2e0e0;fill-opacity:1;fill-rule:nonzero;stroke:none"
           d="m 16300,10219.7 h -1018.4 v 1018.5 H 16300 v -1018.5 0" /></g><g
         transform="scale(1.12669)"
         id="g340"><path
           id="path342"
           style="fill:#e2e0e0;fill-opacity:1;fill-rule:nonzero;stroke:none"
           d="m 16300,9084.51 h -905.3 v 905.33 h 905.3 v -905.33 0" /></g><g
         transform="scale(1.25)"
         id="g344"><path
           id="path346"
           style="fill:#e2e0e0;fill-opacity:1;fill-rule:nonzero;stroke:none"
           d="m 16300,8188.32 h -800 v 816.02 h 800 v -816.02 0" /></g><path
         id="path348"
         style="fill:#e2e0e0;fill-opacity:1;fill-rule:nonzero;stroke:none"
         d="M 1020,9220 H 0 v 1020 h 1020 v -1020 0" /><path
         id="path350"
         style="fill:#e2e0e0;fill-opacity:1;fill-rule:nonzero;stroke:none"
         d="M 3060,9220 H 2040 v 1020 h 1020 v -1020 0" /><path
         id="path352"
         style="fill:#e2e0e0;fill-opacity:1;fill-rule:nonzero;stroke:none"
         d="M 5100,9220 H 4080 v 1020 h 1020 v -1020 0" /><path
         id="path354"
         style="fill:#e2e0e0;fill-opacity:1;fill-rule:nonzero;stroke:none"
         d="M 7140,9220 H 6120 v 1020 h 1020 v -1020 0" /><path
         id="path356"
         style="fill:#e2e0e0;fill-opacity:1;fill-rule:nonzero;stroke:none"
         d="M 9180,9220 H 8160 v 1020 h 1020 v -1020 0" /><path
         id="path358"
         style="fill:#e2e0e0;fill-opacity:1;fill-rule:nonzero;stroke:none"
         d="m 11220,9220 h -1020 v 1020 h 1020 v -1020 0" /><path
         id="path360"
         style="fill:#e2e0e0;fill-opacity:1;fill-rule:nonzero;stroke:none"
         d="m 13260,9220 h -1020 v 1020 h 1020 v -1020 0" /><path
         id="path362"
         style="fill:#e2e0e0;fill-opacity:1;fill-rule:nonzero;stroke:none"
         d="m 15300,9220 h -1020 v 1020 h 1020 v -1020 0" /><g
         transform="scale(1.0638)"
         id="g364"><path
           id="path366"
           style="fill:#e2e0e0;fill-opacity:1;fill-rule:nonzero;stroke:none"
           d="m 16300,8667.01 h -958.8 v 958.83 h 958.8 v -958.83 0" /></g><g
         transform="scale(1.18896)"
         id="g368"><path
           id="path370"
           style="fill:#e2e0e0;fill-opacity:1;fill-rule:nonzero;stroke:none"
           d="m 16300,7754.7 h -857.9 v 857.89 h 857.9 v -857.89 0" /></g><path
         id="path372"
         style="fill:#e2e0e0;fill-opacity:1;fill-rule:nonzero;stroke:none"
         d="m 2044.98,8205.4 h -1020 v 1020 h 1020 v -1020 0" /><path
         id="path374"
         style="fill:#e2e0e0;fill-opacity:1;fill-rule:nonzero;stroke:none"
         d="m 4084.98,8205.4 h -1020 v 1020 h 1020 v -1020 0" /><path
         id="path376"
         style="fill:#e2e0e0;fill-opacity:1;fill-rule:nonzero;stroke:none"
         d="m 6124.98,8205.4 h -1020 v 1020 h 1020 v -1020 0" /><path
         id="path378"
         style="fill:#e2e0e0;fill-opacity:1;fill-rule:nonzero;stroke:none"
         d="m 8164.98,8205.4 h -1020 v 1020 h 1020 v -1020 0" /><path
         id="path380"
         style="fill:#e2e0e0;fill-opacity:1;fill-rule:nonzero;stroke:none"
         d="M 10205,8205.4 H 9184.98 v 1020 H 10205 v -1020 0" /><path
         id="path382"
         style="fill:#e2e0e0;fill-opacity:1;fill-rule:nonzero;stroke:none"
         d="m 12245,8205.4 h -1020 v 1020 h 1020 v -1020 0" /><path
         id="path384"
         style="fill:#e2e0e0;fill-opacity:1;fill-rule:nonzero;stroke:none"
         d="m 14285,8205.4 h -1020 v 1020 h 1020 v -1020 0" /><g
         transform="scale(1.00153)"
         id="g386"><path
           id="path388"
           style="fill:#e2e0e0;fill-opacity:1;fill-rule:nonzero;stroke:none"
           d="M 16300,8192.84 H 15281.6 V 9211.27 H 16300 v -1018.43 0" /></g><g
         transform="scale(1.12669)"
         id="g390"><path
           id="path392"
           style="fill:#e2e0e0;fill-opacity:1;fill-rule:nonzero;stroke:none"
           d="m 16300,7282.77 h -905.3 v 905.31 h 905.3 v -905.31 0" /></g><g
         transform="scale(1.25)"
         id="g394"><path
           id="path396"
           style="fill:#e2e0e0;fill-opacity:1;fill-rule:nonzero;stroke:none"
           d="m 16300,6564.32 h -800 v 816 h 800 v -816 0" /></g><path
         id="path398"
         style="fill:#e2e0e0;fill-opacity:1;fill-rule:nonzero;stroke:none"
         d="M 1020,7190 H 0 v 1020 h 1020 v -1020 0" /><path
         id="path400"
         style="fill:#e2e0e0;fill-opacity:1;fill-rule:nonzero;stroke:none"
         d="M 3060,7190 H 2040 v 1020 h 1020 v -1020 0" /><path
         id="path402"
         style="fill:#e2e0e0;fill-opacity:1;fill-rule:nonzero;stroke:none"
         d="M 5100,7190 H 4080 v 1020 h 1020 v -1020 0" /><path
         id="path404"
         style="fill:#e2e0e0;fill-opacity:1;fill-rule:nonzero;stroke:none"
         d="M 7140,7190 H 6120 v 1020 h 1020 v -1020 0" /><path
         id="path406"
         style="fill:#e2e0e0;fill-opacity:1;fill-rule:nonzero;stroke:none"
         d="M 9180,7190 H 8160 v 1020 h 1020 v -1020 0" /><path
         id="path408"
         style="fill:#e2e0e0;fill-opacity:1;fill-rule:nonzero;stroke:none"
         d="m 11220,7190 h -1020 v 1020 h 1020 v -1020 0" /><path
         id="path410"
         style="fill:#e2e0e0;fill-opacity:1;fill-rule:nonzero;stroke:none"
         d="m 13260,7190 h -1020 v 1020 h 1020 v -1020 0" /><path
         id="path412"
         style="fill:#e2e0e0;fill-opacity:1;fill-rule:nonzero;stroke:none"
         d="m 15300,7190 h -1020 v 1020 h 1020 v -1020 0" /><g
         transform="scale(1.0638)"
         id="g414"><path
           id="path416"
           style="fill:#e2e0e0;fill-opacity:1;fill-rule:nonzero;stroke:none"
           d="m 16300,6758.77 h -958.8 v 958.82 h 958.8 v -958.82 0" /></g><g
         transform="scale(1.18896)"
         id="g418"><path
           id="path420"
           style="fill:#e2e0e0;fill-opacity:1;fill-rule:nonzero;stroke:none"
           d="m 16300,6047.32 h -857.9 v 857.89 h 857.9 v -857.89 0" /></g><path
         id="path422"
         style="fill:#e2e0e0;fill-opacity:1;fill-rule:nonzero;stroke:none"
         d="m 2044.98,6175.4 h -1020 v 1020 h 1020 v -1020 0" /><path
         id="path424"
         style="fill:#e2e0e0;fill-opacity:1;fill-rule:nonzero;stroke:none"
         d="m 4084.98,6175.4 h -1020 v 1020 h 1020 v -1020 0" /><path
         id="path426"
         style="fill:#e2e0e0;fill-opacity:1;fill-rule:nonzero;stroke:none"
         d="m 6124.98,6175.4 h -1020 v 1020 h 1020 v -1020 0" /><path
         id="path428"
         style="fill:#e2e0e0;fill-opacity:1;fill-rule:nonzero;stroke:none"
         d="m 8164.98,6175.4 h -1020 v 1020 h 1020 v -1020 0" /><path
         id="path430"
         style="fill:#e2e0e0;fill-opacity:1;fill-rule:nonzero;stroke:none"
         d="M 10205,6175.4 H 9184.98 v 1020 H 10205 v -1020 0" /><path
         id="path432"
         style="fill:#e2e0e0;fill-opacity:1;fill-rule:nonzero;stroke:none"
         d="m 12245,6175.4 h -1020 v 1020 h 1020 v -1020 0" /><path
         id="path434"
         style="fill:#e2e0e0;fill-opacity:1;fill-rule:nonzero;stroke:none"
         d="m 14285,6175.4 h -1020 v 1020 h 1020 v -1020 0" /><g
         transform="scale(1.00153)"
         id="g436"><path
           id="path438"
           style="fill:#e2e0e0;fill-opacity:1;fill-rule:nonzero;stroke:none"
           d="M 16300,6165.95 H 15281.6 V 7184.38 H 16300 v -1018.43 0" /></g><g
         transform="scale(1.12669)"
         id="g440"><path
           id="path442"
           style="fill:#e2e0e0;fill-opacity:1;fill-rule:nonzero;stroke:none"
           d="m 16300,5481.03 h -905.3 v 905.31 h 905.3 v -905.31 0" /></g><g
         transform="scale(1.25)"
         id="g444"><path
           id="path446"
           style="fill:#e2e0e0;fill-opacity:1;fill-rule:nonzero;stroke:none"
           d="m 16300,4940.32 h -800 v 816 h 800 v -816 0" /></g><path
         id="path448"
         style="fill:#e2e0e0;fill-opacity:1;fill-rule:nonzero;stroke:none"
         d="M 1020,5160 H 0 v 1020 h 1020 v -1020 0" /><path
         id="path450"
         style="fill:#e2e0e0;fill-opacity:1;fill-rule:nonzero;stroke:none"
         d="M 3060,5160 H 2040 v 1020 h 1020 v -1020 0" /><path
         id="path452"
         style="fill:#e2e0e0;fill-opacity:1;fill-rule:nonzero;stroke:none"
         d="M 5100,5160 H 4080 v 1020 h 1020 v -1020 0" /><path
         id="path454"
         style="fill:#e2e0e0;fill-opacity:1;fill-rule:nonzero;stroke:none"
         d="M 7140,5160 H 6120 v 1020 h 1020 v -1020 0" /><path
         id="path456"
         style="fill:#e2e0e0;fill-opacity:1;fill-rule:nonzero;stroke:none"
         d="M 9180,5160 H 8160 v 1020 h 1020 v -1020 0" /><path
         id="path458"
         style="fill:#e2e0e0;fill-opacity:1;fill-rule:nonzero;stroke:none"
         d="m 11220,5160 h -1020 v 1020 h 1020 v -1020 0" /><path
         id="path460"
         style="fill:#e2e0e0;fill-opacity:1;fill-rule:nonzero;stroke:none"
         d="m 13260,5160 h -1020 v 1020 h 1020 v -1020 0" /><path
         id="path462"
         style="fill:#e2e0e0;fill-opacity:1;fill-rule:nonzero;stroke:none"
         d="m 15300,5160 h -1020 v 1020 h 1020 v -1020 0" /><g
         transform="scale(1.0638)"
         id="g464"><path
           id="path466"
           style="fill:#e2e0e0;fill-opacity:1;fill-rule:nonzero;stroke:none"
           d="m 16300,4850.52 h -958.8 v 958.82 h 958.8 v -958.82 0" /></g><g
         transform="scale(1.18896)"
         id="g468"><path
           id="path470"
           style="fill:#e2e0e0;fill-opacity:1;fill-rule:nonzero;stroke:none"
           d="m 16300,4339.94 h -857.9 v 857.89 h 857.9 v -857.89 0" /></g><path
         id="path472"
         style="fill:#e2e0e0;fill-opacity:1;fill-rule:nonzero;stroke:none"
         d="m 2044.98,4145.4 h -1020 v 1020 h 1020 v -1020 0" /><path
         id="path474"
         style="fill:#e2e0e0;fill-opacity:1;fill-rule:nonzero;stroke:none"
         d="m 4084.98,4145.4 h -1020 v 1020 h 1020 v -1020 0" /><path
         id="path476"
         style="fill:#e2e0e0;fill-opacity:1;fill-rule:nonzero;stroke:none"
         d="m 6124.98,4145.4 h -1020 v 1020 h 1020 v -1020 0" /><path
         id="path478"
         style="fill:#e2e0e0;fill-opacity:1;fill-rule:nonzero;stroke:none"
         d="m 8164.98,4145.4 h -1020 v 1020 h 1020 v -1020 0" /><path
         id="path480"
         style="fill:#e2e0e0;fill-opacity:1;fill-rule:nonzero;stroke:none"
         d="M 10205,4145.4 H 9184.98 v 1020 H 10205 v -1020 0" /><path
         id="path482"
         style="fill:#e2e0e0;fill-opacity:1;fill-rule:nonzero;stroke:none"
         d="m 12245,4145.4 h -1020 v 1020 h 1020 v -1020 0" /><path
         id="path484"
         style="fill:#e2e0e0;fill-opacity:1;fill-rule:nonzero;stroke:none"
         d="m 14285,4145.4 h -1020 v 1020 h 1020 v -1020 0" /><g
         transform="scale(1.00153)"
         id="g486"><path
           id="path488"
           style="fill:#e2e0e0;fill-opacity:1;fill-rule:nonzero;stroke:none"
           d="M 16300,4139.05 H 15281.6 V 5157.49 H 16300 v -1018.44 0" /></g><g
         transform="scale(1.12669)"
         id="g490"><path
           id="path492"
           style="fill:#e2e0e0;fill-opacity:1;fill-rule:nonzero;stroke:none"
           d="m 16300,3679.28 h -905.3 v 905.31 h 905.3 v -905.31 0" /></g><g
         transform="scale(1.25)"
         id="g494"><path
           id="path496"
           style="fill:#e2e0e0;fill-opacity:1;fill-rule:nonzero;stroke:none"
           d="m 16300,3316.32 h -800 v 816 h 800 v -816 0" /></g><path
         id="path498"
         style="fill:#e2e0e0;fill-opacity:1;fill-rule:nonzero;stroke:none"
         d="M 1020,3130 H 0 v 1020 h 1020 v -1020 0" /><path
         id="path500"
         style="fill:#e2e0e0;fill-opacity:1;fill-rule:nonzero;stroke:none"
         d="M 3060,3130 H 2040 v 1020 h 1020 v -1020 0" /><path
         id="path502"
         style="fill:#e2e0e0;fill-opacity:1;fill-rule:nonzero;stroke:none"
         d="M 5100,3130 H 4080 v 1020 h 1020 v -1020 0" /><path
         id="path504"
         style="fill:#e2e0e0;fill-opacity:1;fill-rule:nonzero;stroke:none"
         d="M 7140,3130 H 6120 v 1020 h 1020 v -1020 0" /><path
         id="path506"
         style="fill:#e2e0e0;fill-opacity:1;fill-rule:nonzero;stroke:none"
         d="M 9180,3130 H 8160 v 1020 h 1020 v -1020 0" /><path
         id="path508"
         style="fill:#e2e0e0;fill-opacity:1;fill-rule:nonzero;stroke:none"
         d="m 11220,3130 h -1020 v 1020 h 1020 v -1020 0" /><path
         id="path510"
         style="fill:#e2e0e0;fill-opacity:1;fill-rule:nonzero;stroke:none"
         d="m 13260,3130 h -1020 v 1020 h 1020 v -1020 0" /><path
         id="path512"
         style="fill:#e2e0e0;fill-opacity:1;fill-rule:nonzero;stroke:none"
         d="m 15300,3130 h -1020 v 1020 h 1020 v -1020 0" /><g
         transform="scale(1.0638)"
         id="g514"><path
           id="path516"
           style="fill:#e2e0e0;fill-opacity:1;fill-rule:nonzero;stroke:none"
           d="m 16300,2942.27 h -958.8 v 958.83 h 958.8 v -958.83 0" /></g><g
         transform="scale(1.18896)"
         id="g518"><path
           id="path520"
           style="fill:#e2e0e0;fill-opacity:1;fill-rule:nonzero;stroke:none"
           d="m 16300,2632.56 h -857.9 v 857.89 h 857.9 v -857.89 0" /></g><path
         id="path522"
         style="fill:#e2e0e0;fill-opacity:1;fill-rule:nonzero;stroke:none"
         d="m 2044.98,2115.4 h -1020 v 1020 h 1020 v -1020 0" /><path
         id="path524"
         style="fill:#e2e0e0;fill-opacity:1;fill-rule:nonzero;stroke:none"
         d="m 4084.98,2115.4 h -1020 v 1020 h 1020 v -1020 0" /><path
         id="path526"
         style="fill:#e2e0e0;fill-opacity:1;fill-rule:nonzero;stroke:none"
         d="m 6124.98,2115.4 h -1020 v 1020 h 1020 v -1020 0" /><path
         id="path528"
         style="fill:#e2e0e0;fill-opacity:1;fill-rule:nonzero;stroke:none"
         d="m 8164.98,2115.4 h -1020 v 1020 h 1020 v -1020 0" /><path
         id="path530"
         style="fill:#e2e0e0;fill-opacity:1;fill-rule:nonzero;stroke:none"
         d="M 10205,2115.4 H 9184.98 v 1020 H 10205 v -1020 0" /><path
         id="path532"
         style="fill:#e2e0e0;fill-opacity:1;fill-rule:nonzero;stroke:none"
         d="m 12245,2115.4 h -1020 v 1020 h 1020 v -1020 0" /><path
         id="path534"
         style="fill:#e2e0e0;fill-opacity:1;fill-rule:nonzero;stroke:none"
         d="m 14285,2115.4 h -1020 v 1020 h 1020 v -1020 0" /><g
         transform="scale(1.00153)"
         id="g536"><path
           id="path538"
           style="fill:#e2e0e0;fill-opacity:1;fill-rule:nonzero;stroke:none"
           d="M 16300,2112.16 H 15281.6 V 3130.6 H 16300 v -1018.44 0" /></g><g
         transform="scale(1.12669)"
         id="g540"><path
           id="path542"
           style="fill:#e2e0e0;fill-opacity:1;fill-rule:nonzero;stroke:none"
           d="m 16300,1877.54 h -905.3 v 905.31 h 905.3 v -905.31 0" /></g><g
         transform="scale(1.25)"
         id="g544"><path
           id="path546"
           style="fill:#e2e0e0;fill-opacity:1;fill-rule:nonzero;stroke:none"
           d="m 16300,1692.32 h -800 v 816 h 800 v -816 0" /></g><path
         id="path548"
         style="fill:#e2e0e0;fill-opacity:1;fill-rule:nonzero;stroke:none"
         d="M 1020,1100 H 0 v 1020 h 1020 v -1020 0" /><path
         id="path550"
         style="fill:#e2e0e0;fill-opacity:1;fill-rule:nonzero;stroke:none"
         d="M 3060,1100 H 2040 v 1020 h 1020 v -1020 0" /><path
         id="path552"
         style="fill:#e2e0e0;fill-opacity:1;fill-rule:nonzero;stroke:none"
         d="M 5100,1100 H 4080 v 1020 h 1020 v -1020 0" /><path
         id="path554"
         style="fill:#e2e0e0;fill-opacity:1;fill-rule:nonzero;stroke:none"
         d="M 7140,1100 H 6120 v 1020 h 1020 v -1020 0" /><path
         id="path556"
         style="fill:#e2e0e0;fill-opacity:1;fill-rule:nonzero;stroke:none"
         d="M 9180,1100 H 8160 v 1020 h 1020 v -1020 0" /><path
         id="path558"
         style="fill:#e2e0e0;fill-opacity:1;fill-rule:nonzero;stroke:none"
         d="m 11220,1100 h -1020 v 1020 h 1020 v -1020 0" /><path
         id="path560"
         style="fill:#e2e0e0;fill-opacity:1;fill-rule:nonzero;stroke:none"
         d="m 13260,1100 h -1020 v 1020 h 1020 v -1020 0" /><path
         id="path562"
         style="fill:#e2e0e0;fill-opacity:1;fill-rule:nonzero;stroke:none"
         d="m 15300,1100 h -1020 v 1020 h 1020 v -1020 0" /><g
         transform="scale(1.0638)"
         id="g564"><path
           id="path566"
           style="fill:#e2e0e0;fill-opacity:1;fill-rule:nonzero;stroke:none"
           d="m 16300,1034.03 h -958.8 v 958.82 h 958.8 v -958.82 0" /></g><g
         transform="scale(1.18896)"
         id="g568"><path
           id="path570"
           style="fill:#e2e0e0;fill-opacity:1;fill-rule:nonzero;stroke:none"
           d="m 16300,925.181 h -857.9 v 857.899 h 857.9 v -857.899 0" /></g><path
         id="path572"
         style="fill:#e2e0e0;fill-opacity:1;fill-rule:nonzero;stroke:none"
         d="m 2044.98,85.4023 h -1020 V 1105.4 h 1020 V 85.4023 v 0" /><path
         id="path574"
         style="fill:#e2e0e0;fill-opacity:1;fill-rule:nonzero;stroke:none"
         d="m 4084.98,85.4023 h -1020 V 1105.4 h 1020 V 85.4023 v 0" /><path
         id="path576"
         style="fill:#e2e0e0;fill-opacity:1;fill-rule:nonzero;stroke:none"
         d="m 6124.98,85.4023 h -1020 V 1105.4 h 1020 V 85.4023 v 0" /><path
         id="path578"
         style="fill:#e2e0e0;fill-opacity:1;fill-rule:nonzero;stroke:none"
         d="m 8164.98,85.4023 h -1020 V 1105.4 h 1020 V 85.4023 v 0" /><path
         id="path580"
         style="fill:#e2e0e0;fill-opacity:1;fill-rule:nonzero;stroke:none"
         d="M 10205,85.4023 H 9184.98 V 1105.4 H 10205 V 85.4023 v 0" /><path
         id="path582"
         style="fill:#e2e0e0;fill-opacity:1;fill-rule:nonzero;stroke:none"
         d="M 12245,85.4023 H 11225 V 1105.4 h 1020 V 85.4023 v 0" /><path
         id="path584"
         style="fill:#e2e0e0;fill-opacity:1;fill-rule:nonzero;stroke:none"
         d="M 14285,85.4023 H 13265 V 1105.4 h 1020 V 85.4023 v 0" /><g
         transform="scale(1.00153)"
         id="g586"><path
           id="path588"
           style="fill:#e2e0e0;fill-opacity:1;fill-rule:nonzero;stroke:none"
           d="M 16300,85.2716 H 15281.6 V 1103.71 H 16300 V 85.2716 v 0" /></g><g
         transform="scale(1.12669)"
         id="g590"><path
           id="path592"
           style="fill:#e2e0e0;fill-opacity:1;fill-rule:nonzero;stroke:none"
           d="m 16300,75.7995 h -905.3 V 981.108 h 905.3 v -905.3085 0" /></g><g
         transform="scale(1.25)"
         id="g594"><path
           id="path596"
           style="fill:#e2e0e0;fill-opacity:1;fill-rule:nonzero;stroke:none"
           d="m 16300,68.3219 h -800 V 884.322 h 800 v -816.0001 0" /></g><path
         id="path598"
         style="fill:#f1dc28;fill-opacity:1;fill-rule:nonzero;stroke:none"
         d="m 8615.48,13478.5 c 63.56,-104.6 115.35,-207.3 151.56,-304.9 4.72,-12.8 6.48,-25.9 5.78,-38.6 438.21,138.1 923.06,213.4 1422.08,213.4 499.1,0 984,-75.3 1422.2,-213.5 -0.7,12.8 1.1,25.9 5.9,38.6 36.1,97.6 87.9,200.4 151.5,305 -474.1,275.6 -1016.3,448.6 -1579.5,448.6 -563.2,0 -1105.42,-173 -1579.52,-448.6 v 0" /><path
         id="path600"
         style="fill:#deb406;fill-opacity:1;fill-rule:nonzero;stroke:none"
         d="m 8772.82,13135 c -2.03,-37.1 -25.48,-71.3 -62.52,-85 -22.03,-8.1 -45,-7.2 -65.55,0.1 22.21,-394.7 -226.51,-704.3 -537.56,-1025.3 0,-34.4 -7.85,-69.6 -23.13,-106.2 -36.36,-117 -290.59,-435.4 -503.26,-688.2 -18.96,-22.5 -46.12,-34.2 -73.57,-34.2 -21.84,0 -43.78,7.4 -61.77,22.6 -40.66,34.1 -45.87,94.7 -11.74,135.4 96.07,114.3 198.31,240.9 282.74,350.6 -202.15,30.3 -392.71,90 -567.76,173.7 -56.42,-132.7 -100.23,-265.9 -129.14,-397.6 138.31,-77.5 396.46,-424 844.13,-769.8 0.78,1.7 1.19,3.5 2.07,5.2 24.35,47.2 82.42,65.6 129.52,41.3 837.19,-432.9 1189.55,-634.7 1340.98,-734.6 259.42,-55.7 544.63,-88.5 858.64,-88.5 314.2,0 599.5,32.9 859.1,88.6 151.5,99.9 503.9,301.8 1340.6,734.3 47.1,24.5 105.1,5.9 129.5,-41.2 0.9,-1.7 1.2,-3.4 2,-5.1 447.9,345.8 706,692.5 844.3,769.9 -28.9,131.6 -72.7,264.8 -129.2,397.4 -175.1,-83.7 -365.7,-143.3 -568,-173.7 84.4,-109.2 186.8,-236.1 283,-350.5 34.2,-40.7 29,-101.3 -11.6,-135.4 -18.1,-15.2 -40,-22.6 -61.8,-22.6 -27.5,0 -54.7,11.7 -73.7,34.2 -212.9,253.2 -467.7,572.1 -503.4,688.7 -15.1,36.3 -22.8,71.4 -22.8,105.5 -311.1,321.1 -559.9,630.7 -537.8,1025.3 -20.5,-7.2 -43.4,-8.1 -65.4,0 -37.1,13.8 -60.5,47.9 -62.6,85 -438.2,138.2 -923.1,213.5 -1422.2,213.5 -499.02,0 -983.87,-75.3 -1422.08,-213.4 v 0" /><path
         id="path602"
         style="fill:#e09304;fill-opacity:1;fill-rule:nonzero;stroke:none"
         d="m 10497.3,7802.9 c 0.2,0.1 0.2,0.1 0.3,0.2 -97.6,-31.1 -200,-47.4 -302.7,-47.4 102.6,0 205,16.3 302.4,47.2 v 0" /><path
         id="path604"
         style="fill:#e09304;fill-opacity:1;fill-rule:nonzero;stroke:none"
         d="m 12526.1,10711.1 c 20.7,-46.2 2.2,-101 -43.3,-124.4 -517.5,-267.7 -1272.8,-672.5 -1379.1,-759.4 -43.1,-101 -187.3,-466.3 -188.9,-470.3 -14.8,-37.7 -51.1,-60.6 -89.4,-60.6 -11.7,0 -23.7,2 -35.2,6.6 -49.4,19.5 -73.6,75.4 -54.1,124.7 6.6,16.9 163.5,414 198.1,491.8 6.3,14.2 15.4,34.8 119.8,103.6 -259.6,-55.7 -544.9,-88.6 -859.1,-88.6 -314.01,0 -599.22,32.8 -858.64,88.5 104.11,-68.7 113.28,-89.2 119.6,-103.4 34.52,-77.9 191.43,-475 198.09,-491.9 19.56,-49.4 -4.66,-105.2 -54.11,-124.7 -11.58,-4.6 -23.49,-6.6 -35.23,-6.6 -38.34,0 -74.54,22.9 -89.47,60.7 -1.53,4 -145.92,369.2 -188.92,470.3 -106.45,86.9 -861.69,491.8 -1379.19,759.4 -45.5,23.5 -63.87,78.1 -43.34,124.3 -447.67,345.8 -705.82,692.3 -844.13,769.8 -27.58,-125.7 -42.41,-250 -42.41,-371 0,-789.3 601.81,-1213.3 1572.74,-1641.6 48.57,-21.4 70.57,-78.2 49.16,-126.7 -21.4,-48.7 -78.26,-70.6 -126.76,-49.2 -130.69,57.6 -255.07,115.3 -372.74,173.9 l 823.02,-810.4 c 330.46,349.9 790.03,549.6 1272.43,549.6 482.3,0 941.7,-199.5 1272.1,-549.1 l 819.9,808.1 c -116.7,-58 -239.8,-115.2 -369.2,-172.2 -12.5,-5.6 -25.7,-8.2 -38.7,-8.2 -37,0 -72.1,21.4 -88,57.3 -21.4,48.7 0.5,105.4 49.1,126.8 460.7,203.3 836.9,406 1106.5,646.7 l 127.1,125.3 c 0.7,0.8 1.8,1 2.5,1.7 217.2,238.9 336.5,517.2 336.5,868 0,121.1 -14.8,245.4 -42.4,371.1 -138.3,-77.4 -396.4,-424.1 -844.3,-769.9 v 0" /><path
         id="path606"
         style="fill:#f0f570;fill-opacity:1;fill-rule:nonzero;stroke:none"
         d="m 10194.9,9013.3 c -430.7,0 -841.02,-178.9 -1135.43,-492.3 l 584.15,-575.3 c 73.67,-62.9 158.5,-110.3 248.88,-142.8 97.44,-30.9 199.8,-47.2 302.4,-47.2 102.7,0 205.1,16.3 302.7,47.4 90.2,32.5 175,79.8 248.6,142.6 l 583.8,575.7 c -294.4,313.1 -704.6,491.9 -1135.1,491.9 z m -149.6,-928 c -10.6,-3.6 -21.4,-5.4 -32,-5.4 -39.63,0 -76.71,24.6 -90.7,64.1 l -59.33,168.2 c -17.62,50.1 8.58,105 58.71,122.7 50.1,17.4 104.92,-8.6 122.62,-58.7 L 10104,8208 c 17.6,-50.1 -8.6,-104.9 -58.7,-122.7 z m 481.3,226.9 -59.3,-168.2 c -13.9,-39.5 -51.1,-64.1 -90.7,-64.1 -10.6,0 -21.4,1.8 -32,5.4 -50,17.8 -76.3,72.6 -58.7,122.7 l 59.4,168.2 c 17.6,50.1 72.6,76.2 122.6,58.7 50.1,-17.7 76.4,-72.6 58.7,-122.7 v 0" /><path
         id="path608"
         style="fill:#221e22;fill-opacity:1;fill-rule:nonzero;stroke:none"
         d="m 13370.4,11481 c 27.6,-125.7 42.4,-250 42.4,-371.1 0,-350.8 -119.3,-629.1 -336.5,-868 -0.7,-0.7 -1.8,-0.9 -2.5,-1.7 l -127.1,-125.3 c -269.6,-240.7 -645.8,-443.4 -1106.5,-646.7 -48.6,-21.4 -70.5,-78.1 -49.1,-126.8 15.9,-35.9 51,-57.3 88,-57.3 13,0 26.2,2.6 38.7,8.2 129.4,57 252.5,114.2 369.2,172.2 l -819.9,-808.1 c -330.4,349.6 -789.8,549.1 -1272.1,549.1 -482.4,0 -941.97,-199.7 -1272.43,-549.6 l -823.02,810.4 c 117.67,-58.6 242.05,-116.3 372.74,-173.9 48.5,-21.4 105.36,0.5 126.76,49.2 21.41,48.5 -0.59,105.3 -49.16,126.7 -970.93,428.3 -1572.74,852.3 -1572.74,1641.6 0,121 14.83,245.3 42.41,371 28.91,131.7 72.72,264.9 129.14,397.6 -59.36,28.4 -117.16,59.1 -172.64,93 -123.01,-288.5 -191.24,-581.5 -191.24,-861.6 0,-496.3 199.34,-860 554.77,-1164.1 0.75,-0.8 1.01,-1.9 1.79,-2.7 L 9511.16,7806.4 c 1.47,-1.5 3.07,-3.1 4.7,-4.4 187.19,-161.2 433.1,-241.8 679.04,-241.8 245.9,0 491.9,80.7 679.1,241.8 1.7,1.4 3.3,2.9 4.8,4.4 l 2158.8,2128.2 c 363.5,306.3 567.4,673 567.4,1175.3 0,280.1 -68.1,573 -191.1,861.5 -55.5,-33.9 -113.3,-64.6 -172.7,-93 56.5,-132.6 100.3,-265.8 129.2,-397.4 z M 10746.2,7945.7 c -73.6,-62.8 -158.4,-110.1 -248.6,-142.6 -0.1,-0.1 -0.1,-0.1 -0.3,-0.2 -193,-69.4 -411.7,-69.4 -604.8,0 -90.38,32.5 -175.21,79.9 -248.88,142.8 L 9059.47,8521 c 294.41,313.4 704.73,492.3 1135.43,492.3 430.5,0 840.7,-178.8 1135.1,-491.9 l -583.8,-575.7 v 0" /><path
         id="path610"
         style="fill:#221e22;fill-opacity:1;fill-rule:nonzero;stroke:none"
         d="m 10195,13927.1 c 563.2,0 1105.4,-173 1579.5,-448.6 33.6,55.2 70.3,111 110.3,166.8 -502.9,291.9 -1081.7,474.1 -1689.9,474.1 -608.07,0 -1186.84,-182.1 -1689.69,-474 39.99,-55.9 76.67,-111.6 110.27,-166.9 474.1,275.6 1016.32,448.6 1579.52,448.6 v 0" /><path
         id="path612"
         style="fill:#deb406;fill-opacity:1;fill-rule:nonzero;stroke:none"
         d="m 7240.43,13731.8 c -13.46,-315.8 -27.35,-642.4 59.17,-875.7 96.88,-261.2 320.04,-389.9 499.32,-493.3 154.36,-89.1 287.68,-165.9 306.64,-306.7 1.4,-10.4 1.63,-20.8 1.63,-31.3 311.05,321 559.77,630.6 537.56,1025.3 -25.82,9.2 -47.73,28.9 -57.99,56.6 -184.13,496.6 -818.22,1159 -1398.13,1438.8 76.55,-218.3 64.35,-518.5 51.8,-813.7 v 0" /><path
         id="path614"
         style="fill:#f0f570;fill-opacity:1;fill-rule:nonzero;stroke:none"
         d="m 6712.41,12908.8 c -209.2,563.9 -90.68,1172.9 258.52,1646.6 -39.62,60.8 -96.33,99.7 -175.46,115.1 -456.2,-484.4 -604.93,-1142.2 -387.54,-1728.2 210.14,-566.9 723.84,-961.2 1355.91,-1049.8 -476.89,170.7 -869.46,525.4 -1051.43,1016.3 v 0" /><path
         id="path616"
         style="fill:#d7d558;fill-opacity:1;fill-rule:nonzero;stroke:none"
         d="m 7909.97,11999.5 c 5.17,14.9 5.76,25.1 5.01,30.9 -6.36,47.1 -110.94,107.4 -212.2,165.8 -195.14,112.6 -462.55,266.8 -583.46,593.1 -100.04,269.6 -85.25,615.8 -71.01,950.7 16.28,382.6 20.57,665 -77.38,815.4 -349.2,-473.7 -467.72,-1082.7 -258.52,-1646.6 181.97,-490.9 574.54,-845.6 1051.43,-1016.3 22.5,-3.2 45.34,-5.4 68.12,-7.8 39.27,43.6 60.33,75.7 71.38,99.1 1.75,5.6 3.97,10.7 6.63,15.7 v 0" /><path
         id="path618"
         style="fill:#221e22;fill-opacity:1;fill-rule:nonzero;stroke:none"
         d="m 6970.93,14555.4 c 97.95,-150.4 93.66,-432.8 77.38,-815.4 -14.24,-334.9 -29.03,-681.1 71.01,-950.7 120.91,-326.3 388.32,-480.5 583.46,-593.1 101.26,-58.4 205.84,-118.7 212.2,-165.8 0.75,-5.8 0.16,-16 -5.01,-30.9 18.47,34.8 57.21,54.8 99.27,47.4 52.41,-8.4 87.5,-60.5 79.01,-112.9 -0.72,-4.5 -2.5,-10 -4.19,-15.4 15.28,36.6 23.13,71.8 23.13,106.2 0,10.5 -0.23,20.9 -1.63,31.3 -18.96,140.8 -152.28,217.6 -306.64,306.7 -179.28,103.4 -402.44,232.1 -499.32,493.3 -86.52,233.3 -72.63,559.9 -59.17,875.7 12.55,295.2 24.75,595.4 -51.8,813.7 -135.65,65.5 -268.37,110.1 -391.64,126.7 -0.53,-0.5 -0.99,-1.1 -1.52,-1.7 79.13,-15.4 135.84,-54.3 175.46,-115.1 v 0" /><g
         id="g620"><g
           clip-path="url(#clipPath626)"
           id="g622"><path
             id="path628"
             style="fill:#221e22;fill-opacity:1;fill-rule:nonzero;stroke:none"
             d="m 7903.34,11983.8 c -11.05,-23.4 -32.11,-55.5 -71.38,-99.1 5.32,-0.5 10.58,-1.3 15.9,-1.8 28.01,40.8 46.56,71.4 51.86,87.2 0.78,4.8 2.21,9.2 3.62,13.7 v 0" /><path
             id="path630"
             style="fill:#221e22;fill-opacity:1;fill-rule:nonzero;stroke:none"
             d="m 7716.46,11704.8 c 52.79,68.5 98.66,130.4 131.4,178.1 -5.32,0.5 -10.58,1.3 -15.9,1.8 -22.78,2.4 -45.62,4.6 -68.12,7.8 -632.07,88.6 -1145.77,482.9 -1355.91,1049.8 -217.39,586 -68.66,1243.8 387.54,1728.2 0.53,0.6 0.99,1.2 1.52,1.7 123.27,-16.6 255.99,-61.2 391.64,-126.7 579.91,-279.8 1214,-942.2 1398.13,-1438.8 10.26,-27.7 32.17,-47.4 57.99,-56.6 20.55,-7.3 43.52,-8.2 65.55,-0.1 37.04,13.7 60.49,47.9 62.52,85 0.7,12.7 -1.06,25.8 -5.78,38.6 -36.21,97.6 -88,200.3 -151.56,304.9 -33.6,55.3 -70.28,111 -110.27,166.9 -419.58,585.9 -1166.59,1177.2 -1736.91,1223.2 -6.76,0.5 -13.39,0.2 -19.9,-0.7 -4.03,-0.5 -7.85,-1.6 -11.74,-2.6 -2.43,-0.6 -4.94,-1 -7.28,-1.9 -3.61,-1.2 -6.96,-2.9 -10.4,-4.5 -2.51,-1.2 -5.09,-2.3 -7.51,-3.8 -2.81,-1.7 -5.42,-3.6 -8.07,-5.6 -2.81,-2.1 -5.6,-4.3 -8.19,-6.7 -0.95,-0.9 -2.08,-1.5 -2.98,-2.4 -535.52,-541 -713.52,-1294 -464.58,-1965 141.85,-382.6 406.59,-694.6 748.41,-903.9 55.48,-33.9 113.28,-64.6 172.64,-93 175.05,-83.7 365.61,-143.4 567.76,-173.7 v 0" /></g></g><path
         id="path632"
         style="fill:#221e22;fill-opacity:1;fill-rule:nonzero;stroke:none"
         d="m 7445.46,11218.8 c 17.99,-15.2 39.93,-22.6 61.77,-22.6 27.45,0 54.61,11.7 73.57,34.2 212.67,252.8 466.9,571.2 503.26,688.2 1.69,5.4 3.47,10.9 4.19,15.4 8.49,52.4 -26.6,104.5 -79.01,112.9 -42.06,7.4 -80.8,-12.6 -99.27,-47.4 -2.66,-5 -4.88,-10.1 -6.63,-15.7 -1.41,-4.5 -2.84,-8.9 -3.62,-13.7 -5.3,-15.8 -23.85,-46.4 -51.86,-87.2 -32.74,-47.7 -78.61,-109.6 -131.4,-178.1 -84.43,-109.7 -186.67,-236.3 -282.74,-350.6 -34.13,-40.7 -28.92,-101.3 11.74,-135.4 v 0" /><path
         id="path634"
         style="fill:#deb406;fill-opacity:1;fill-rule:nonzero;stroke:none"
         d="m 12282.9,12024.6 c 0,10.6 0.2,21 1.6,31.4 19,140.7 152.3,217.6 306.6,306.7 179.3,103.4 402.4,232.1 499.3,493.4 86.5,233.2 72.6,559.7 59.2,875.5 -12.6,295.3 -24.9,595.5 51.6,813.8 -579.8,-279.9 -1213.9,-942.2 -1398,-1438.7 -10.3,-27.8 -32.2,-47.6 -58.1,-56.8 -22.1,-394.6 226.7,-704.2 537.8,-1025.3 v 0" /><path
         id="path636"
         style="fill:#f0f570;fill-opacity:1;fill-rule:nonzero;stroke:none"
         d="m 13419,14555.3 c 349.2,-473.7 467.7,-1082.7 258.5,-1646.5 -181.9,-491 -574.5,-845.6 -1051.4,-1016.4 632.1,88.7 1145.8,483 1355.9,1049.8 217.5,586 68.7,1243.9 -387.5,1728.2 -79.1,-15.3 -135.9,-54.2 -175.5,-115.1 v 0" /><path
         id="path638"
         style="fill:#d7d558;fill-opacity:1;fill-rule:nonzero;stroke:none"
         d="m 13677.5,12908.8 c 209.2,563.8 90.7,1172.8 -258.5,1646.5 -97.9,-150.4 -93.7,-432.8 -77.4,-815.5 14.3,-334.9 29,-681.1 -70.9,-950.6 -120.9,-326.3 -388.3,-480.4 -583.5,-593 -101.2,-58.4 -205.8,-118.8 -212.2,-165.9 -2,-15 3.6,-57.6 83,-145.6 22.8,2.4 45.5,4.6 68.1,7.7 476.9,170.8 869.5,525.4 1051.4,1016.4 v 0" /><path
         id="path640"
         style="fill:#221e22;fill-opacity:1;fill-rule:nonzero;stroke:none"
         d="m 13621.7,14868.5 v 0 0" /><g
         id="g642"><g
           clip-path="url(#clipPath648)"
           id="g644"><path
             id="path650"
             style="fill:#221e22;fill-opacity:1;fill-rule:nonzero;stroke:none"
             d="m 13149.6,13731.6 c 13.4,-315.8 27.3,-642.3 -59.2,-875.5 -96.9,-261.3 -320,-390 -499.3,-493.4 -154.3,-89.1 -287.6,-166 -306.6,-306.7 -1.4,-10.4 -1.6,-20.8 -1.6,-31.4 0,-34.1 7.7,-69.2 22.8,-105.5 -1.6,5.2 -3.4,10.6 -4.1,15 -8.3,52.3 27.3,101.7 79.8,110 52.2,8.6 101.7,-27.3 110.1,-79.7 4.8,-14.1 22.7,-42.9 49.6,-81.7 5.7,0.6 11.2,1.4 16.9,2 -79.4,88 -85,130.6 -83,145.6 6.4,47.1 111,107.5 212.2,165.9 195.2,112.6 462.6,266.7 583.5,593 99.9,269.5 85.2,615.7 70.9,950.6 -16.3,382.7 -20.5,665.1 77.4,815.5 39.6,60.9 96.4,99.8 175.5,115.1 -0.5,0.6 -1,1.2 -1.5,1.8 -123.3,-16.6 -256,-61.3 -391.8,-126.8 -76.5,-218.3 -64.2,-518.5 -51.6,-813.8 v 0" /><path
             id="path652"
             style="fill:#221e22;fill-opacity:1;fill-rule:nonzero;stroke:none"
             d="m 13694.8,14842.7 c -2.6,2.5 -5.5,4.7 -8.4,6.9 -2.5,1.8 -5,3.7 -7.7,5.3 -2.8,1.6 -5.6,2.9 -8.5,4.2 -3.1,1.5 -6.1,3 -9.3,4.1 -3.2,1.1 -6.4,1.7 -9.6,2.4 -3.2,0.8 -6.3,1.8 -9.5,2.2 -6.6,0.9 -13.4,1.2 -20.1,0.7 v 0 0 c -570.4,-46 -1317.4,-637.2 -1736.9,-1223.2 -40,-55.8 -76.7,-111.6 -110.3,-166.8 -63.6,-104.6 -115.4,-207.4 -151.5,-305 -4.8,-12.7 -6.6,-25.8 -5.9,-38.6 2.1,-37.1 25.5,-71.2 62.6,-85 22,-8.1 44.9,-7.2 65.4,0 25.9,9.2 47.8,29 58.1,56.8 184.1,496.5 818.2,1158.8 1398,1438.7 135.8,65.5 268.5,110.2 391.8,126.8 0.5,-0.6 1,-1.2 1.5,-1.8 456.2,-484.3 605,-1142.2 387.5,-1728.2 -210.1,-566.8 -723.8,-961.1 -1355.9,-1049.8 -22.6,-3.1 -45.3,-5.3 -68.1,-7.7 -5.7,-0.6 -11.2,-1.4 -16.9,-2 32.5,-46.9 78.7,-108.9 132.1,-178 202.3,30.4 392.9,90 568,173.7 59.4,28.4 117.2,59.1 172.7,93 341.8,209.2 606.6,521.3 748.5,904 248.9,670.9 70.9,1423.9 -464.7,1964.9 -0.8,0.9 -2,1.5 -2.9,2.4 v 0" /></g></g><path
         id="path654"
         style="fill:#221e22;fill-opacity:1;fill-rule:nonzero;stroke:none"
         d="m 12381.4,12044.1 c -52.5,-8.3 -88.1,-57.7 -79.8,-110 0.7,-4.4 2.5,-9.8 4.1,-15 35.7,-116.6 290.5,-435.5 503.4,-688.7 19,-22.5 46.2,-34.2 73.7,-34.2 21.8,0 43.7,7.4 61.8,22.6 40.6,34.1 45.8,94.7 11.6,135.4 -96.2,114.4 -198.6,241.3 -283,350.5 -53.4,69.1 -99.6,131.1 -132.1,178 -26.9,38.8 -44.8,67.6 -49.6,81.7 -8.4,52.4 -57.9,88.3 -110.1,79.7 v 0" /><path
         id="path656"
         style="fill:#221e22;fill-opacity:1;fill-rule:nonzero;stroke:none"
         d="m 7907.03,10586.8 c 517.5,-267.6 1272.74,-672.5 1379.19,-759.4 43,-101.1 187.39,-466.3 188.92,-470.3 14.93,-37.8 51.13,-60.7 89.47,-60.7 11.74,0 23.65,2 35.23,6.6 49.45,19.5 73.67,75.3 54.11,124.7 -6.66,16.9 -163.57,414 -198.09,491.9 -6.32,14.2 -15.49,34.7 -119.6,103.4 -151.43,99.9 -503.79,301.7 -1340.98,734.6 -47.1,24.3 -105.17,5.9 -129.52,-41.3 -0.88,-1.7 -1.29,-3.5 -2.07,-5.2 -20.53,-46.2 -2.16,-100.8 43.34,-124.3 v 0" /><path
         id="path658"
         style="fill:#221e22;fill-opacity:1;fill-rule:nonzero;stroke:none"
         d="m 10934.2,9919.5 c -34.6,-77.8 -191.5,-474.9 -198.1,-491.8 -19.5,-49.3 4.7,-105.2 54.1,-124.7 11.5,-4.6 23.5,-6.6 35.2,-6.6 38.3,0 74.6,22.9 89.4,60.6 1.6,4 145.8,369.3 188.9,470.3 106.3,86.9 861.6,491.7 1379.1,759.4 45.5,23.4 64,78.2 43.3,124.4 -0.8,1.7 -1.1,3.4 -2,5.1 -24.4,47.1 -82.4,65.7 -129.5,41.2 -836.7,-432.5 -1189.1,-634.4 -1340.6,-734.3 -104.4,-68.8 -113.5,-89.4 -119.8,-103.6 v 0" /><path
         id="path660"
         style="fill:#221e22;fill-opacity:1;fill-rule:nonzero;stroke:none"
         d="m 10044.6,8376.2 c -17.7,50.1 -72.52,76.1 -122.62,58.7 -50.13,-17.7 -76.33,-72.6 -58.71,-122.7 L 9922.6,8144 c 13.99,-39.5 51.07,-64.1 90.7,-64.1 10.6,0 21.4,1.8 32,5.4 50.1,17.8 76.3,72.6 58.7,122.7 l -59.4,168.2 v 0" /><path
         id="path662"
         style="fill:#221e22;fill-opacity:1;fill-rule:nonzero;stroke:none"
         d="m 10467.9,8434.9 c -50,17.5 -105,-8.6 -122.6,-58.7 l -59.4,-168.2 c -17.6,-50.1 8.7,-104.9 58.7,-122.7 10.6,-3.6 21.4,-5.4 32,-5.4 39.6,0 76.8,24.6 90.7,64.1 l 59.3,168.2 c 17.7,50.1 -8.6,105 -58.7,122.7 v 0" /></g></g></svg>