<?xml version="1.0" encoding="UTF-8" standalone="no"?>
<svg
   xmlns:dc="http://purl.org/dc/elements/1.1/"
   xmlns:cc="http://creativecommons.org/ns#"
   xmlns:rdf="http://www.w3.org/1999/02/22-rdf-syntax-ns#"
   xmlns:svg="http://www.w3.org/2000/svg"
   xmlns="http://www.w3.org/2000/svg"
   viewBox="0 0 2718.6667 2718.6667"
   height="2718.6667"
   width="2718.6667"
   xml:space="preserve"
   id="svg2"
   version="1.1"><metadata
     id="metadata8"><rdf:RDF><cc:Work
         rdf:about=""><dc:format>image/svg+xml</dc:format><dc:type
           rdf:resource="http://purl.org/dc/dcmitype/StillImage" /></cc:Work></rdf:RDF></metadata><defs
     id="defs6"><clipPath
       id="clipPath20"
       clipPathUnits="userSpaceOnUse"><path
         id="path18"
         d="M 0,20389.4 H 20375 V 85.4023 H 0 Z" /></clipPath><clipPath
       id="clipPath680"
       clipPathUnits="userSpaceOnUse"><path
         id="path678"
         d="M 6117,14561.6 V 7867.4 h 8156 v 6694.2 z" /></clipPath></defs><g
     transform="matrix(1.3333333,0,0,-1.3333333,0,2718.6667)"
     id="g10"><g
       transform="scale(0.1)"
       id="g12"><g
         id="g14"><g
           clip-path="url(#clipPath20)"
           id="g16"><g
             transform="scale(1.25092)"
             id="g22"><path
               id="path24"
               style="fill:#e2e0e0;fill-opacity:1;fill-rule:nonzero;stroke:none"
               d="M 815.4,15484.6 H 0 v 815.4 h 815.4 v -815.4 0" /></g><g
             transform="scale(1.25092)"
             id="g26"><path
               id="path28"
               style="fill:#e2e0e0;fill-opacity:1;fill-rule:nonzero;stroke:none"
               d="m 2446.2,15484.6 h -815.4 v 815.4 h 815.4 v -815.4 0" /></g><g
             transform="scale(1.25092)"
             id="g30"><path
               id="path32"
               style="fill:#e2e0e0;fill-opacity:1;fill-rule:nonzero;stroke:none"
               d="M 4077,15484.6 H 3261.6 V 16300 H 4077 v -815.4 0" /></g><g
             transform="scale(1.25092)"
             id="g34"><path
               id="path36"
               style="fill:#e2e0e0;fill-opacity:1;fill-rule:nonzero;stroke:none"
               d="m 5707.8,15484.6 h -815.4 v 815.4 h 815.4 v -815.4 0" /></g><g
             transform="scale(1.25092)"
             id="g38"><path
               id="path40"
               style="fill:#e2e0e0;fill-opacity:1;fill-rule:nonzero;stroke:none"
               d="m 7338.6,15484.6 h -815.4 v 815.4 h 815.4 v -815.4 0" /></g><g
             transform="scale(1.25092)"
             id="g42"><path
               id="path44"
               style="fill:#e2e0e0;fill-opacity:1;fill-rule:nonzero;stroke:none"
               d="M 8969.4,15484.6 H 8154 v 815.4 h 815.4 v -815.4 0" /></g><g
             transform="scale(1.25092)"
             id="g46"><path
               id="path48"
               style="fill:#e2e0e0;fill-opacity:1;fill-rule:nonzero;stroke:none"
               d="m 10600.2,15484.6 h -815.4 v 815.4 h 815.4 v -815.4 0" /></g><g
             transform="scale(1.25092)"
             id="g50"><path
               id="path52"
               style="fill:#e2e0e0;fill-opacity:1;fill-rule:nonzero;stroke:none"
               d="m 12231,15484.6 h -815.4 v 815.4 h 815.4 v -815.4 0" /></g><g
             transform="scale(1.25092)"
             id="g54"><path
               id="path56"
               style="fill:#e2e0e0;fill-opacity:1;fill-rule:nonzero;stroke:none"
               d="m 13861.8,15484.6 h -815.4 v 815.4 h 815.4 v -815.4 0" /></g><g
             transform="scale(1.25092)"
             id="g58"><path
               id="path60"
               style="fill:#e2e0e0;fill-opacity:1;fill-rule:nonzero;stroke:none"
               d="m 15492.6,15484.6 h -815.4 v 815.4 h 815.4 v -815.4 0" /></g></g></g><g
         transform="scale(1.18868)"
         id="g62"><path
           id="path64"
           style="fill:#e2e0e0;fill-opacity:1;fill-rule:nonzero;stroke:none"
           d="M 1720.38,15441.9 H 862.287 v 858.1 h 858.093 v -858.1 0" /></g><g
         transform="scale(1.18868)"
         id="g66"><path
           id="path68"
           style="fill:#e2e0e0;fill-opacity:1;fill-rule:nonzero;stroke:none"
           d="m 3436.58,15441.9 h -858.1 v 858.1 h 858.1 v -858.1 0" /></g><g
         transform="scale(1.18868)"
         id="g70"><path
           id="path72"
           style="fill:#e2e0e0;fill-opacity:1;fill-rule:nonzero;stroke:none"
           d="m 5152.77,15441.9 h -858.09 v 858.1 h 858.09 v -858.1 0" /></g><g
         transform="scale(1.18868)"
         id="g74"><path
           id="path76"
           style="fill:#e2e0e0;fill-opacity:1;fill-rule:nonzero;stroke:none"
           d="m 6868.97,15441.9 h -858.1 v 858.1 h 858.1 v -858.1 0" /></g><g
         transform="scale(1.18868)"
         id="g78"><path
           id="path80"
           style="fill:#e2e0e0;fill-opacity:1;fill-rule:nonzero;stroke:none"
           d="m 8585.18,15441.9 h -858.12 v 858.1 h 858.12 v -858.1 0" /></g><g
         transform="scale(1.18868)"
         id="g82"><path
           id="path84"
           style="fill:#e2e0e0;fill-opacity:1;fill-rule:nonzero;stroke:none"
           d="m 10301.4,15441.9 h -858.13 v 858.1 h 858.13 v -858.1 0" /></g><g
         transform="scale(1.18868)"
         id="g86"><path
           id="path88"
           style="fill:#e2e0e0;fill-opacity:1;fill-rule:nonzero;stroke:none"
           d="m 12017.6,15441.9 h -858.1 v 858.1 h 858.1 v -858.1 0" /></g><g
         transform="scale(1.18868)"
         id="g90"><path
           id="path92"
           style="fill:#e2e0e0;fill-opacity:1;fill-rule:nonzero;stroke:none"
           d="m 13733.8,15441.9 h -858.1 v 858.1 h 858.1 v -858.1 0" /></g><g
         transform="scale(1.18868)"
         id="g94"><path
           id="path96"
           style="fill:#e2e0e0;fill-opacity:1;fill-rule:nonzero;stroke:none"
           d="m 15450,15441.9 h -858.1 v 858.1 h 858.1 v -858.1 0" /></g><g
         transform="scale(1.25)"
         id="g98"><path
           id="path100"
           style="fill:#e2e0e0;fill-opacity:1;fill-rule:nonzero;stroke:none"
           d="m 16300,14684.3 h -800 v 816 h 800 v -816 0" /></g><g
         transform="scale(1.12638)"
         id="g102"><path
           id="path104"
           style="fill:#e2e0e0;fill-opacity:1;fill-rule:nonzero;stroke:none"
           d="M 914.434,15394.4 H 8.878 v 905.6 h 905.556 v -905.6 0" /></g><g
         transform="scale(1.12638)"
         id="g106"><path
           id="path108"
           style="fill:#e2e0e0;fill-opacity:1;fill-rule:nonzero;stroke:none"
           d="m 2725.54,15394.4 h -905.55 v 905.6 h 905.55 v -905.6 0" /></g><g
         transform="scale(1.12638)"
         id="g110"><path
           id="path112"
           style="fill:#e2e0e0;fill-opacity:1;fill-rule:nonzero;stroke:none"
           d="M 4536.66,15394.4 H 3631.1 v 905.6 h 905.56 v -905.6 0" /></g><g
         transform="scale(1.12638)"
         id="g114"><path
           id="path116"
           style="fill:#e2e0e0;fill-opacity:1;fill-rule:nonzero;stroke:none"
           d="m 6347.77,15394.4 h -905.56 v 905.6 h 905.56 v -905.6 0" /></g><g
         transform="scale(1.12638)"
         id="g118"><path
           id="path120"
           style="fill:#e2e0e0;fill-opacity:1;fill-rule:nonzero;stroke:none"
           d="m 8158.88,15394.4 h -905.56 v 905.6 h 905.56 v -905.6 0" /></g><g
         transform="scale(1.12638)"
         id="g122"><path
           id="path124"
           style="fill:#e2e0e0;fill-opacity:1;fill-rule:nonzero;stroke:none"
           d="m 9969.99,15394.4 h -905.56 v 905.6 h 905.56 v -905.6 0" /></g><g
         transform="scale(1.12638)"
         id="g126"><path
           id="path128"
           style="fill:#e2e0e0;fill-opacity:1;fill-rule:nonzero;stroke:none"
           d="m 11781.1,15394.4 h -905.6 v 905.6 h 905.6 v -905.6 0" /></g><g
         transform="scale(1.12638)"
         id="g130"><path
           id="path132"
           style="fill:#e2e0e0;fill-opacity:1;fill-rule:nonzero;stroke:none"
           d="m 13592.2,15394.4 h -905.5 v 905.6 h 905.5 v -905.6 0" /></g><g
         transform="scale(1.12638)"
         id="g134"><path
           id="path136"
           style="fill:#e2e0e0;fill-opacity:1;fill-rule:nonzero;stroke:none"
           d="m 15403.3,15394.4 h -905.5 v 905.6 h 905.5 v -905.6 0" /></g><g
         transform="scale(1.18957)"
         id="g138"><path
           id="path140"
           style="fill:#e2e0e0;fill-opacity:1;fill-rule:nonzero;stroke:none"
           d="m 16300,14576.7 h -857.5 v 857.4 h 857.5 v -857.4 0" /></g><g
         transform="scale(1.06414)"
         id="g142"><path
           id="path144"
           style="fill:#e2e0e0;fill-opacity:1;fill-rule:nonzero;stroke:none"
           d="M 1921.73,15341.5 H 963.204 v 958.5 h 958.526 v -958.5 0" /></g><g
         transform="scale(1.06414)"
         id="g146"><path
           id="path148"
           style="fill:#e2e0e0;fill-opacity:1;fill-rule:nonzero;stroke:none"
           d="m 3838.77,15341.5 h -958.52 v 958.5 h 958.52 v -958.5 0" /></g><g
         transform="scale(1.06414)"
         id="g150"><path
           id="path152"
           style="fill:#e2e0e0;fill-opacity:1;fill-rule:nonzero;stroke:none"
           d="M 5755.82,15341.5 H 4797.3 v 958.5 h 958.52 v -958.5 0" /></g><g
         transform="scale(1.06414)"
         id="g154"><path
           id="path156"
           style="fill:#e2e0e0;fill-opacity:1;fill-rule:nonzero;stroke:none"
           d="m 7672.87,15341.5 h -958.53 v 958.5 h 958.53 v -958.5 0" /></g><g
         transform="scale(1.06414)"
         id="g158"><path
           id="path160"
           style="fill:#e2e0e0;fill-opacity:1;fill-rule:nonzero;stroke:none"
           d="m 9589.93,15341.5 h -958.54 v 958.5 h 958.54 v -958.5 0" /></g><g
         transform="scale(1.06414)"
         id="g162"><path
           id="path164"
           style="fill:#e2e0e0;fill-opacity:1;fill-rule:nonzero;stroke:none"
           d="m 11507,15341.5 h -958.5 v 958.5 h 958.5 v -958.5 0" /></g><g
         transform="scale(1.06414)"
         id="g166"><path
           id="path168"
           style="fill:#e2e0e0;fill-opacity:1;fill-rule:nonzero;stroke:none"
           d="m 13424,15341.5 h -958.5 v 958.5 h 958.5 v -958.5 0" /></g><g
         transform="scale(1.06414)"
         id="g170"><path
           id="path172"
           style="fill:#e2e0e0;fill-opacity:1;fill-rule:nonzero;stroke:none"
           d="m 15341.1,15341.5 h -958.5 v 958.5 h 958.5 v -958.5 0" /></g><g
         transform="scale(1.12669)"
         id="g174"><path
           id="path176"
           style="fill:#e2e0e0;fill-opacity:1;fill-rule:nonzero;stroke:none"
           d="m 16300,14489.8 h -905.3 v 905.3 h 905.3 v -905.3 0" /></g><g
         transform="scale(1.25)"
         id="g178"><path
           id="path180"
           style="fill:#e2e0e0;fill-opacity:1;fill-rule:nonzero;stroke:none"
           d="m 16300,13060.3 h -800 v 816 h 800 v -816 0" /></g><g
         transform="scale(1.00184)"
         id="g182"><path
           id="path184"
           style="fill:#e2e0e0;fill-opacity:1;fill-rule:nonzero;stroke:none"
           d="M 1038.09,15281.9 H 19.9672 V 16300 H 1038.09 v -1018.1 0" /></g><g
         transform="scale(1.00184)"
         id="g186"><path
           id="path188"
           style="fill:#e2e0e0;fill-opacity:1;fill-rule:nonzero;stroke:none"
           d="M 3074.34,15281.9 H 2056.22 V 16300 h 1018.12 v -1018.1 0" /></g><g
         transform="scale(1.00184)"
         id="g190"><path
           id="path192"
           style="fill:#e2e0e0;fill-opacity:1;fill-rule:nonzero;stroke:none"
           d="M 5110.59,15281.9 H 4092.47 V 16300 h 1018.12 v -1018.1 0" /></g><g
         transform="scale(1.00184)"
         id="g194"><path
           id="path196"
           style="fill:#e2e0e0;fill-opacity:1;fill-rule:nonzero;stroke:none"
           d="M 7146.85,15281.9 H 6128.72 V 16300 h 1018.13 v -1018.1 0" /></g><g
         transform="scale(1.00184)"
         id="g198"><path
           id="path200"
           style="fill:#e2e0e0;fill-opacity:1;fill-rule:nonzero;stroke:none"
           d="M 9183.1,15281.9 H 8164.97 V 16300 H 9183.1 v -1018.1 0" /></g><g
         transform="scale(1.00184)"
         id="g202"><path
           id="path204"
           style="fill:#e2e0e0;fill-opacity:1;fill-rule:nonzero;stroke:none"
           d="M 11219.4,15281.9 H 10201.2 V 16300 h 1018.2 v -1018.1 0" /></g><g
         transform="scale(1.00184)"
         id="g206"><path
           id="path208"
           style="fill:#e2e0e0;fill-opacity:1;fill-rule:nonzero;stroke:none"
           d="M 13255.6,15281.9 H 12237.5 V 16300 h 1018.1 v -1018.1 0" /></g><g
         transform="scale(1.00184)"
         id="g210"><path
           id="path212"
           style="fill:#e2e0e0;fill-opacity:1;fill-rule:nonzero;stroke:none"
           d="M 15291.9,15281.9 H 14273.7 V 16300 h 1018.2 v -1018.1 0" /></g><g
         transform="scale(1.06503)"
         id="g214"><path
           id="path216"
           style="fill:#e2e0e0;fill-opacity:1;fill-rule:nonzero;stroke:none"
           d="m 16300,14375.2 h -957.7 v 957.7 h 957.7 v -957.7 0" /></g><g
         transform="scale(1.19018)"
         id="g218"><path
           id="path220"
           style="fill:#e2e0e0;fill-opacity:1;fill-rule:nonzero;stroke:none"
           d="m 16300,12863.6 h -857 v 857 h 857 v -857 0" /></g><path
         id="path222"
         style="fill:#e2e0e0;fill-opacity:1;fill-rule:nonzero;stroke:none"
         d="m 2044.98,14295.4 h -1020 v 1020 h 1020 v -1020 0" /><path
         id="path224"
         style="fill:#e2e0e0;fill-opacity:1;fill-rule:nonzero;stroke:none"
         d="m 4084.98,14295.4 h -1020 v 1020 h 1020 v -1020 0" /><path
         id="path226"
         style="fill:#e2e0e0;fill-opacity:1;fill-rule:nonzero;stroke:none"
         d="m 6124.98,14295.4 h -1020 v 1020 h 1020 v -1020 0" /><path
         id="path228"
         style="fill:#e2e0e0;fill-opacity:1;fill-rule:nonzero;stroke:none"
         d="m 8164.98,14295.4 h -1020 v 1020 h 1020 v -1020 0" /><path
         id="path230"
         style="fill:#e2e0e0;fill-opacity:1;fill-rule:nonzero;stroke:none"
         d="M 10205,14295.4 H 9184.98 v 1020 H 10205 v -1020 0" /><path
         id="path232"
         style="fill:#e2e0e0;fill-opacity:1;fill-rule:nonzero;stroke:none"
         d="m 12245,14295.4 h -1020 v 1020 h 1020 v -1020 0" /><path
         id="path234"
         style="fill:#e2e0e0;fill-opacity:1;fill-rule:nonzero;stroke:none"
         d="m 14285,14295.4 h -1020 v 1020 h 1020 v -1020 0" /><g
         transform="scale(1.00153)"
         id="g236"><path
           id="path238"
           style="fill:#e2e0e0;fill-opacity:1;fill-rule:nonzero;stroke:none"
           d="M 16300,14273.5 H 15281.6 V 15292 H 16300 v -1018.5 0" /></g><g
         transform="scale(1.12669)"
         id="g240"><path
           id="path242"
           style="fill:#e2e0e0;fill-opacity:1;fill-rule:nonzero;stroke:none"
           d="m 16300,12688 h -905.3 v 905.3 h 905.3 v -905.3 0" /></g><g
         transform="scale(1.25)"
         id="g244"><path
           id="path246"
           style="fill:#e2e0e0;fill-opacity:1;fill-rule:nonzero;stroke:none"
           d="m 16300,11436.3 h -800 v 816 h 800 v -816 0" /></g><path
         id="path248"
         style="fill:#e2e0e0;fill-opacity:1;fill-rule:nonzero;stroke:none"
         d="M 1050,13280 H 30 v 1020 h 1020 v -1020 0" /><path
         id="path250"
         style="fill:#e2e0e0;fill-opacity:1;fill-rule:nonzero;stroke:none"
         d="M 3090,13280 H 2070 v 1020 h 1020 v -1020 0" /><path
         id="path252"
         style="fill:#e2e0e0;fill-opacity:1;fill-rule:nonzero;stroke:none"
         d="M 5130,13280 H 4110 v 1020 h 1020 v -1020 0" /><path
         id="path254"
         style="fill:#e2e0e0;fill-opacity:1;fill-rule:nonzero;stroke:none"
         d="M 7170,13280 H 6150 v 1020 h 1020 v -1020 0" /><path
         id="path256"
         style="fill:#e2e0e0;fill-opacity:1;fill-rule:nonzero;stroke:none"
         d="M 9210,13280 H 8190 v 1020 h 1020 v -1020 0" /><path
         id="path258"
         style="fill:#e2e0e0;fill-opacity:1;fill-rule:nonzero;stroke:none"
         d="m 11250,13280 h -1020 v 1020 h 1020 v -1020 0" /><path
         id="path260"
         style="fill:#e2e0e0;fill-opacity:1;fill-rule:nonzero;stroke:none"
         d="m 13290,13280 h -1020 v 1020 h 1020 v -1020 0" /><path
         id="path262"
         style="fill:#e2e0e0;fill-opacity:1;fill-rule:nonzero;stroke:none"
         d="m 15330,13280 h -1020 v 1020 h 1020 v -1020 0" /><g
         transform="scale(1.06564)"
         id="g264"><path
           id="path266"
           style="fill:#e2e0e0;fill-opacity:1;fill-rule:nonzero;stroke:none"
           d="m 16300,12461.9 h -957.2 v 957.2 h 957.2 v -957.2 0" /></g><g
         transform="scale(1.1908)"
         id="g268"><path
           id="path270"
           style="fill:#e2e0e0;fill-opacity:1;fill-rule:nonzero;stroke:none"
           d="m 16300,11152.2 h -856.6 v 856.6 h 856.6 v -856.6 0" /></g><path
         id="path272"
         style="fill:#e2e0e0;fill-opacity:1;fill-rule:nonzero;stroke:none"
         d="m 2044.98,12265.4 h -1020 v 1020 h 1020 v -1020 0" /><path
         id="path274"
         style="fill:#e2e0e0;fill-opacity:1;fill-rule:nonzero;stroke:none"
         d="m 4084.98,12265.4 h -1020 v 1020 h 1020 v -1020 0" /><path
         id="path276"
         style="fill:#e2e0e0;fill-opacity:1;fill-rule:nonzero;stroke:none"
         d="m 6124.98,12265.4 h -1020 v 1020 h 1020 v -1020 0" /><path
         id="path278"
         style="fill:#e2e0e0;fill-opacity:1;fill-rule:nonzero;stroke:none"
         d="m 8164.98,12265.4 h -1020 v 1020 h 1020 v -1020 0" /><path
         id="path280"
         style="fill:#e2e0e0;fill-opacity:1;fill-rule:nonzero;stroke:none"
         d="M 10205,12265.4 H 9184.98 v 1020 H 10205 v -1020 0" /><path
         id="path282"
         style="fill:#e2e0e0;fill-opacity:1;fill-rule:nonzero;stroke:none"
         d="m 12245,12265.4 h -1020 v 1020 h 1020 v -1020 0" /><path
         id="path284"
         style="fill:#e2e0e0;fill-opacity:1;fill-rule:nonzero;stroke:none"
         d="m 14285,12265.4 h -1020 v 1020 h 1020 v -1020 0" /><g
         transform="scale(1.00153)"
         id="g286"><path
           id="path288"
           style="fill:#e2e0e0;fill-opacity:1;fill-rule:nonzero;stroke:none"
           d="m 16300,12246.6 h -1018.4 v 1018.5 H 16300 v -1018.5 0" /></g><g
         transform="scale(1.12669)"
         id="g290"><path
           id="path292"
           style="fill:#e2e0e0;fill-opacity:1;fill-rule:nonzero;stroke:none"
           d="m 16300,10886.3 h -905.3 v 905.3 h 905.3 v -905.3 0" /></g><g
         transform="scale(1.25)"
         id="g294"><path
           id="path296"
           style="fill:#e2e0e0;fill-opacity:1;fill-rule:nonzero;stroke:none"
           d="m 16300,9812.34 h -800 v 815.96 h 800 v -815.96 0" /></g><path
         id="path298"
         style="fill:#e2e0e0;fill-opacity:1;fill-rule:nonzero;stroke:none"
         d="M 1020,11250 H 0 v 1020 h 1020 v -1020 0" /><path
         id="path300"
         style="fill:#e2e0e0;fill-opacity:1;fill-rule:nonzero;stroke:none"
         d="M 3060,11250 H 2040 v 1020 h 1020 v -1020 0" /><path
         id="path302"
         style="fill:#e2e0e0;fill-opacity:1;fill-rule:nonzero;stroke:none"
         d="M 5100,11250 H 4080 v 1020 h 1020 v -1020 0" /><path
         id="path304"
         style="fill:#e2e0e0;fill-opacity:1;fill-rule:nonzero;stroke:none"
         d="M 7140,11250 H 6120 v 1020 h 1020 v -1020 0" /><path
         id="path306"
         style="fill:#e2e0e0;fill-opacity:1;fill-rule:nonzero;stroke:none"
         d="M 9180,11250 H 8160 v 1020 h 1020 v -1020 0" /><path
         id="path308"
         style="fill:#e2e0e0;fill-opacity:1;fill-rule:nonzero;stroke:none"
         d="m 11220,11250 h -1020 v 1020 h 1020 v -1020 0" /><path
         id="path310"
         style="fill:#e2e0e0;fill-opacity:1;fill-rule:nonzero;stroke:none"
         d="m 13260,11250 h -1020 v 1020 h 1020 v -1020 0" /><path
         id="path312"
         style="fill:#e2e0e0;fill-opacity:1;fill-rule:nonzero;stroke:none"
         d="m 15300,11250 h -1020 v 1020 h 1020 v -1020 0" /><g
         transform="scale(1.0638)"
         id="g314"><path
           id="path316"
           style="fill:#e2e0e0;fill-opacity:1;fill-rule:nonzero;stroke:none"
           d="m 16300,10575.3 h -958.8 v 958.8 h 958.8 v -958.8 0" /></g><g
         transform="scale(1.18896)"
         id="g318"><path
           id="path320"
           style="fill:#e2e0e0;fill-opacity:1;fill-rule:nonzero;stroke:none"
           d="m 16300,9462.07 h -857.9 V 10320 h 857.9 v -857.93 0" /></g><path
         id="path322"
         style="fill:#e2e0e0;fill-opacity:1;fill-rule:nonzero;stroke:none"
         d="m 2044.98,10235.4 h -1020 v 1020 h 1020 v -1020 0" /><path
         id="path324"
         style="fill:#e2e0e0;fill-opacity:1;fill-rule:nonzero;stroke:none"
         d="m 4084.98,10235.4 h -1020 v 1020 h 1020 v -1020 0" /><path
         id="path326"
         style="fill:#e2e0e0;fill-opacity:1;fill-rule:nonzero;stroke:none"
         d="m 6124.98,10235.4 h -1020 v 1020 h 1020 v -1020 0" /><path
         id="path328"
         style="fill:#e2e0e0;fill-opacity:1;fill-rule:nonzero;stroke:none"
         d="m 8164.98,10235.4 h -1020 v 1020 h 1020 v -1020 0" /><path
         id="path330"
         style="fill:#e2e0e0;fill-opacity:1;fill-rule:nonzero;stroke:none"
         d="M 10205,10235.4 H 9184.98 v 1020 H 10205 v -1020 0" /><path
         id="path332"
         style="fill:#e2e0e0;fill-opacity:1;fill-rule:nonzero;stroke:none"
         d="m 12245,10235.4 h -1020 v 1020 h 1020 v -1020 0" /><path
         id="path334"
         style="fill:#e2e0e0;fill-opacity:1;fill-rule:nonzero;stroke:none"
         d="m 14285,10235.4 h -1020 v 1020 h 1020 v -1020 0" /><g
         transform="scale(1.00153)"
         id="g336"><path
           id="path338"
           style="fill:#e2e0e0;fill-opacity:1;fill-rule:nonzero;stroke:none"
           d="m 16300,10219.7 h -1018.4 v 1018.5 H 16300 v -1018.5 0" /></g><g
         transform="scale(1.12669)"
         id="g340"><path
           id="path342"
           style="fill:#e2e0e0;fill-opacity:1;fill-rule:nonzero;stroke:none"
           d="m 16300,9084.51 h -905.3 v 905.33 h 905.3 v -905.33 0" /></g><g
         transform="scale(1.25)"
         id="g344"><path
           id="path346"
           style="fill:#e2e0e0;fill-opacity:1;fill-rule:nonzero;stroke:none"
           d="m 16300,8188.32 h -800 v 816.02 h 800 v -816.02 0" /></g><path
         id="path348"
         style="fill:#e2e0e0;fill-opacity:1;fill-rule:nonzero;stroke:none"
         d="M 1020,9220 H 0 v 1020 h 1020 v -1020 0" /><path
         id="path350"
         style="fill:#e2e0e0;fill-opacity:1;fill-rule:nonzero;stroke:none"
         d="M 3060,9220 H 2040 v 1020 h 1020 v -1020 0" /><path
         id="path352"
         style="fill:#e2e0e0;fill-opacity:1;fill-rule:nonzero;stroke:none"
         d="M 5100,9220 H 4080 v 1020 h 1020 v -1020 0" /><path
         id="path354"
         style="fill:#e2e0e0;fill-opacity:1;fill-rule:nonzero;stroke:none"
         d="M 7140,9220 H 6120 v 1020 h 1020 v -1020 0" /><path
         id="path356"
         style="fill:#e2e0e0;fill-opacity:1;fill-rule:nonzero;stroke:none"
         d="M 9180,9220 H 8160 v 1020 h 1020 v -1020 0" /><path
         id="path358"
         style="fill:#e2e0e0;fill-opacity:1;fill-rule:nonzero;stroke:none"
         d="m 11220,9220 h -1020 v 1020 h 1020 v -1020 0" /><path
         id="path360"
         style="fill:#e2e0e0;fill-opacity:1;fill-rule:nonzero;stroke:none"
         d="m 13260,9220 h -1020 v 1020 h 1020 v -1020 0" /><path
         id="path362"
         style="fill:#e2e0e0;fill-opacity:1;fill-rule:nonzero;stroke:none"
         d="m 15300,9220 h -1020 v 1020 h 1020 v -1020 0" /><g
         transform="scale(1.0638)"
         id="g364"><path
           id="path366"
           style="fill:#e2e0e0;fill-opacity:1;fill-rule:nonzero;stroke:none"
           d="m 16300,8667.01 h -958.8 v 958.83 h 958.8 v -958.83 0" /></g><g
         transform="scale(1.18896)"
         id="g368"><path
           id="path370"
           style="fill:#e2e0e0;fill-opacity:1;fill-rule:nonzero;stroke:none"
           d="m 16300,7754.7 h -857.9 v 857.89 h 857.9 v -857.89 0" /></g><path
         id="path372"
         style="fill:#e2e0e0;fill-opacity:1;fill-rule:nonzero;stroke:none"
         d="m 2044.98,8205.4 h -1020 v 1020 h 1020 v -1020 0" /><path
         id="path374"
         style="fill:#e2e0e0;fill-opacity:1;fill-rule:nonzero;stroke:none"
         d="m 4084.98,8205.4 h -1020 v 1020 h 1020 v -1020 0" /><path
         id="path376"
         style="fill:#e2e0e0;fill-opacity:1;fill-rule:nonzero;stroke:none"
         d="m 6124.98,8205.4 h -1020 v 1020 h 1020 v -1020 0" /><path
         id="path378"
         style="fill:#e2e0e0;fill-opacity:1;fill-rule:nonzero;stroke:none"
         d="m 8164.98,8205.4 h -1020 v 1020 h 1020 v -1020 0" /><path
         id="path380"
         style="fill:#e2e0e0;fill-opacity:1;fill-rule:nonzero;stroke:none"
         d="M 10205,8205.4 H 9184.98 v 1020 H 10205 v -1020 0" /><path
         id="path382"
         style="fill:#e2e0e0;fill-opacity:1;fill-rule:nonzero;stroke:none"
         d="m 12245,8205.4 h -1020 v 1020 h 1020 v -1020 0" /><path
         id="path384"
         style="fill:#e2e0e0;fill-opacity:1;fill-rule:nonzero;stroke:none"
         d="m 14285,8205.4 h -1020 v 1020 h 1020 v -1020 0" /><g
         transform="scale(1.00153)"
         id="g386"><path
           id="path388"
           style="fill:#e2e0e0;fill-opacity:1;fill-rule:nonzero;stroke:none"
           d="M 16300,8192.84 H 15281.6 V 9211.27 H 16300 v -1018.43 0" /></g><g
         transform="scale(1.12669)"
         id="g390"><path
           id="path392"
           style="fill:#e2e0e0;fill-opacity:1;fill-rule:nonzero;stroke:none"
           d="m 16300,7282.77 h -905.3 v 905.31 h 905.3 v -905.31 0" /></g><g
         transform="scale(1.25)"
         id="g394"><path
           id="path396"
           style="fill:#e2e0e0;fill-opacity:1;fill-rule:nonzero;stroke:none"
           d="m 16300,6564.32 h -800 v 816 h 800 v -816 0" /></g><path
         id="path398"
         style="fill:#e2e0e0;fill-opacity:1;fill-rule:nonzero;stroke:none"
         d="M 1020,7190 H 0 v 1020 h 1020 v -1020 0" /><path
         id="path400"
         style="fill:#e2e0e0;fill-opacity:1;fill-rule:nonzero;stroke:none"
         d="M 3060,7190 H 2040 v 1020 h 1020 v -1020 0" /><path
         id="path402"
         style="fill:#e2e0e0;fill-opacity:1;fill-rule:nonzero;stroke:none"
         d="M 5100,7190 H 4080 v 1020 h 1020 v -1020 0" /><path
         id="path404"
         style="fill:#e2e0e0;fill-opacity:1;fill-rule:nonzero;stroke:none"
         d="M 7140,7190 H 6120 v 1020 h 1020 v -1020 0" /><path
         id="path406"
         style="fill:#e2e0e0;fill-opacity:1;fill-rule:nonzero;stroke:none"
         d="M 9180,7190 H 8160 v 1020 h 1020 v -1020 0" /><path
         id="path408"
         style="fill:#e2e0e0;fill-opacity:1;fill-rule:nonzero;stroke:none"
         d="m 11220,7190 h -1020 v 1020 h 1020 v -1020 0" /><path
         id="path410"
         style="fill:#e2e0e0;fill-opacity:1;fill-rule:nonzero;stroke:none"
         d="m 13260,7190 h -1020 v 1020 h 1020 v -1020 0" /><path
         id="path412"
         style="fill:#e2e0e0;fill-opacity:1;fill-rule:nonzero;stroke:none"
         d="m 15300,7190 h -1020 v 1020 h 1020 v -1020 0" /><g
         transform="scale(1.0638)"
         id="g414"><path
           id="path416"
           style="fill:#e2e0e0;fill-opacity:1;fill-rule:nonzero;stroke:none"
           d="m 16300,6758.77 h -958.8 v 958.82 h 958.8 v -958.82 0" /></g><g
         transform="scale(1.18896)"
         id="g418"><path
           id="path420"
           style="fill:#e2e0e0;fill-opacity:1;fill-rule:nonzero;stroke:none"
           d="m 16300,6047.32 h -857.9 v 857.89 h 857.9 v -857.89 0" /></g><path
         id="path422"
         style="fill:#e2e0e0;fill-opacity:1;fill-rule:nonzero;stroke:none"
         d="m 2044.98,6175.4 h -1020 v 1020 h 1020 v -1020 0" /><path
         id="path424"
         style="fill:#e2e0e0;fill-opacity:1;fill-rule:nonzero;stroke:none"
         d="m 4084.98,6175.4 h -1020 v 1020 h 1020 v -1020 0" /><path
         id="path426"
         style="fill:#e2e0e0;fill-opacity:1;fill-rule:nonzero;stroke:none"
         d="m 6124.98,6175.4 h -1020 v 1020 h 1020 v -1020 0" /><path
         id="path428"
         style="fill:#e2e0e0;fill-opacity:1;fill-rule:nonzero;stroke:none"
         d="m 8164.98,6175.4 h -1020 v 1020 h 1020 v -1020 0" /><path
         id="path430"
         style="fill:#e2e0e0;fill-opacity:1;fill-rule:nonzero;stroke:none"
         d="M 10205,6175.4 H 9184.98 v 1020 H 10205 v -1020 0" /><path
         id="path432"
         style="fill:#e2e0e0;fill-opacity:1;fill-rule:nonzero;stroke:none"
         d="m 12245,6175.4 h -1020 v 1020 h 1020 v -1020 0" /><path
         id="path434"
         style="fill:#e2e0e0;fill-opacity:1;fill-rule:nonzero;stroke:none"
         d="m 14285,6175.4 h -1020 v 1020 h 1020 v -1020 0" /><g
         transform="scale(1.00153)"
         id="g436"><path
           id="path438"
           style="fill:#e2e0e0;fill-opacity:1;fill-rule:nonzero;stroke:none"
           d="M 16300,6165.95 H 15281.6 V 7184.38 H 16300 v -1018.43 0" /></g><g
         transform="scale(1.12669)"
         id="g440"><path
           id="path442"
           style="fill:#e2e0e0;fill-opacity:1;fill-rule:nonzero;stroke:none"
           d="m 16300,5481.03 h -905.3 v 905.31 h 905.3 v -905.31 0" /></g><g
         transform="scale(1.25)"
         id="g444"><path
           id="path446"
           style="fill:#e2e0e0;fill-opacity:1;fill-rule:nonzero;stroke:none"
           d="m 16300,4940.32 h -800 v 816 h 800 v -816 0" /></g><path
         id="path448"
         style="fill:#e2e0e0;fill-opacity:1;fill-rule:nonzero;stroke:none"
         d="M 1020,5160 H 0 v 1020 h 1020 v -1020 0" /><path
         id="path450"
         style="fill:#e2e0e0;fill-opacity:1;fill-rule:nonzero;stroke:none"
         d="M 3060,5160 H 2040 v 1020 h 1020 v -1020 0" /><path
         id="path452"
         style="fill:#e2e0e0;fill-opacity:1;fill-rule:nonzero;stroke:none"
         d="M 5100,5160 H 4080 v 1020 h 1020 v -1020 0" /><path
         id="path454"
         style="fill:#e2e0e0;fill-opacity:1;fill-rule:nonzero;stroke:none"
         d="M 7140,5160 H 6120 v 1020 h 1020 v -1020 0" /><path
         id="path456"
         style="fill:#e2e0e0;fill-opacity:1;fill-rule:nonzero;stroke:none"
         d="M 9180,5160 H 8160 v 1020 h 1020 v -1020 0" /><path
         id="path458"
         style="fill:#e2e0e0;fill-opacity:1;fill-rule:nonzero;stroke:none"
         d="m 11220,5160 h -1020 v 1020 h 1020 v -1020 0" /><path
         id="path460"
         style="fill:#e2e0e0;fill-opacity:1;fill-rule:nonzero;stroke:none"
         d="m 13260,5160 h -1020 v 1020 h 1020 v -1020 0" /><path
         id="path462"
         style="fill:#e2e0e0;fill-opacity:1;fill-rule:nonzero;stroke:none"
         d="m 15300,5160 h -1020 v 1020 h 1020 v -1020 0" /><g
         transform="scale(1.0638)"
         id="g464"><path
           id="path466"
           style="fill:#e2e0e0;fill-opacity:1;fill-rule:nonzero;stroke:none"
           d="m 16300,4850.52 h -958.8 v 958.82 h 958.8 v -958.82 0" /></g><g
         transform="scale(1.18896)"
         id="g468"><path
           id="path470"
           style="fill:#e2e0e0;fill-opacity:1;fill-rule:nonzero;stroke:none"
           d="m 16300,4339.94 h -857.9 v 857.89 h 857.9 v -857.89 0" /></g><path
         id="path472"
         style="fill:#e2e0e0;fill-opacity:1;fill-rule:nonzero;stroke:none"
         d="m 2044.98,4145.4 h -1020 v 1020 h 1020 v -1020 0" /><path
         id="path474"
         style="fill:#e2e0e0;fill-opacity:1;fill-rule:nonzero;stroke:none"
         d="m 4084.98,4145.4 h -1020 v 1020 h 1020 v -1020 0" /><path
         id="path476"
         style="fill:#e2e0e0;fill-opacity:1;fill-rule:nonzero;stroke:none"
         d="m 6124.98,4145.4 h -1020 v 1020 h 1020 v -1020 0" /><path
         id="path478"
         style="fill:#e2e0e0;fill-opacity:1;fill-rule:nonzero;stroke:none"
         d="m 8164.98,4145.4 h -1020 v 1020 h 1020 v -1020 0" /><path
         id="path480"
         style="fill:#e2e0e0;fill-opacity:1;fill-rule:nonzero;stroke:none"
         d="M 10205,4145.4 H 9184.98 v 1020 H 10205 v -1020 0" /><path
         id="path482"
         style="fill:#e2e0e0;fill-opacity:1;fill-rule:nonzero;stroke:none"
         d="m 12245,4145.4 h -1020 v 1020 h 1020 v -1020 0" /><path
         id="path484"
         style="fill:#e2e0e0;fill-opacity:1;fill-rule:nonzero;stroke:none"
         d="m 14285,4145.4 h -1020 v 1020 h 1020 v -1020 0" /><g
         transform="scale(1.00153)"
         id="g486"><path
           id="path488"
           style="fill:#e2e0e0;fill-opacity:1;fill-rule:nonzero;stroke:none"
           d="M 16300,4139.05 H 15281.6 V 5157.49 H 16300 v -1018.44 0" /></g><g
         transform="scale(1.12669)"
         id="g490"><path
           id="path492"
           style="fill:#e2e0e0;fill-opacity:1;fill-rule:nonzero;stroke:none"
           d="m 16300,3679.28 h -905.3 v 905.31 h 905.3 v -905.31 0" /></g><g
         transform="scale(1.25)"
         id="g494"><path
           id="path496"
           style="fill:#e2e0e0;fill-opacity:1;fill-rule:nonzero;stroke:none"
           d="m 16300,3316.32 h -800 v 816 h 800 v -816 0" /></g><path
         id="path498"
         style="fill:#e2e0e0;fill-opacity:1;fill-rule:nonzero;stroke:none"
         d="M 1020,3130 H 0 v 1020 h 1020 v -1020 0" /><path
         id="path500"
         style="fill:#e2e0e0;fill-opacity:1;fill-rule:nonzero;stroke:none"
         d="M 3060,3130 H 2040 v 1020 h 1020 v -1020 0" /><path
         id="path502"
         style="fill:#e2e0e0;fill-opacity:1;fill-rule:nonzero;stroke:none"
         d="M 5100,3130 H 4080 v 1020 h 1020 v -1020 0" /><path
         id="path504"
         style="fill:#e2e0e0;fill-opacity:1;fill-rule:nonzero;stroke:none"
         d="M 7140,3130 H 6120 v 1020 h 1020 v -1020 0" /><path
         id="path506"
         style="fill:#e2e0e0;fill-opacity:1;fill-rule:nonzero;stroke:none"
         d="M 9180,3130 H 8160 v 1020 h 1020 v -1020 0" /><path
         id="path508"
         style="fill:#e2e0e0;fill-opacity:1;fill-rule:nonzero;stroke:none"
         d="m 11220,3130 h -1020 v 1020 h 1020 v -1020 0" /><path
         id="path510"
         style="fill:#e2e0e0;fill-opacity:1;fill-rule:nonzero;stroke:none"
         d="m 13260,3130 h -1020 v 1020 h 1020 v -1020 0" /><path
         id="path512"
         style="fill:#e2e0e0;fill-opacity:1;fill-rule:nonzero;stroke:none"
         d="m 15300,3130 h -1020 v 1020 h 1020 v -1020 0" /><g
         transform="scale(1.0638)"
         id="g514"><path
           id="path516"
           style="fill:#e2e0e0;fill-opacity:1;fill-rule:nonzero;stroke:none"
           d="m 16300,2942.27 h -958.8 v 958.83 h 958.8 v -958.83 0" /></g><g
         transform="scale(1.18896)"
         id="g518"><path
           id="path520"
           style="fill:#e2e0e0;fill-opacity:1;fill-rule:nonzero;stroke:none"
           d="m 16300,2632.56 h -857.9 v 857.89 h 857.9 v -857.89 0" /></g><path
         id="path522"
         style="fill:#e2e0e0;fill-opacity:1;fill-rule:nonzero;stroke:none"
         d="m 2044.98,2115.4 h -1020 v 1020 h 1020 v -1020 0" /><path
         id="path524"
         style="fill:#e2e0e0;fill-opacity:1;fill-rule:nonzero;stroke:none"
         d="m 4084.98,2115.4 h -1020 v 1020 h 1020 v -1020 0" /><path
         id="path526"
         style="fill:#e2e0e0;fill-opacity:1;fill-rule:nonzero;stroke:none"
         d="m 6124.98,2115.4 h -1020 v 1020 h 1020 v -1020 0" /><path
         id="path528"
         style="fill:#e2e0e0;fill-opacity:1;fill-rule:nonzero;stroke:none"
         d="m 8164.98,2115.4 h -1020 v 1020 h 1020 v -1020 0" /><path
         id="path530"
         style="fill:#e2e0e0;fill-opacity:1;fill-rule:nonzero;stroke:none"
         d="M 10205,2115.4 H 9184.98 v 1020 H 10205 v -1020 0" /><path
         id="path532"
         style="fill:#e2e0e0;fill-opacity:1;fill-rule:nonzero;stroke:none"
         d="m 12245,2115.4 h -1020 v 1020 h 1020 v -1020 0" /><path
         id="path534"
         style="fill:#e2e0e0;fill-opacity:1;fill-rule:nonzero;stroke:none"
         d="m 14285,2115.4 h -1020 v 1020 h 1020 v -1020 0" /><g
         transform="scale(1.00153)"
         id="g536"><path
           id="path538"
           style="fill:#e2e0e0;fill-opacity:1;fill-rule:nonzero;stroke:none"
           d="M 16300,2112.16 H 15281.6 V 3130.6 H 16300 v -1018.44 0" /></g><g
         transform="scale(1.12669)"
         id="g540"><path
           id="path542"
           style="fill:#e2e0e0;fill-opacity:1;fill-rule:nonzero;stroke:none"
           d="m 16300,1877.54 h -905.3 v 905.31 h 905.3 v -905.31 0" /></g><g
         transform="scale(1.25)"
         id="g544"><path
           id="path546"
           style="fill:#e2e0e0;fill-opacity:1;fill-rule:nonzero;stroke:none"
           d="m 16300,1692.32 h -800 v 816 h 800 v -816 0" /></g><path
         id="path548"
         style="fill:#e2e0e0;fill-opacity:1;fill-rule:nonzero;stroke:none"
         d="M 1020,1100 H 0 v 1020 h 1020 v -1020 0" /><path
         id="path550"
         style="fill:#e2e0e0;fill-opacity:1;fill-rule:nonzero;stroke:none"
         d="M 3060,1100 H 2040 v 1020 h 1020 v -1020 0" /><path
         id="path552"
         style="fill:#e2e0e0;fill-opacity:1;fill-rule:nonzero;stroke:none"
         d="M 5100,1100 H 4080 v 1020 h 1020 v -1020 0" /><path
         id="path554"
         style="fill:#e2e0e0;fill-opacity:1;fill-rule:nonzero;stroke:none"
         d="M 7140,1100 H 6120 v 1020 h 1020 v -1020 0" /><path
         id="path556"
         style="fill:#e2e0e0;fill-opacity:1;fill-rule:nonzero;stroke:none"
         d="M 9180,1100 H 8160 v 1020 h 1020 v -1020 0" /><path
         id="path558"
         style="fill:#e2e0e0;fill-opacity:1;fill-rule:nonzero;stroke:none"
         d="m 11220,1100 h -1020 v 1020 h 1020 v -1020 0" /><path
         id="path560"
         style="fill:#e2e0e0;fill-opacity:1;fill-rule:nonzero;stroke:none"
         d="m 13260,1100 h -1020 v 1020 h 1020 v -1020 0" /><path
         id="path562"
         style="fill:#e2e0e0;fill-opacity:1;fill-rule:nonzero;stroke:none"
         d="m 15300,1100 h -1020 v 1020 h 1020 v -1020 0" /><g
         transform="scale(1.0638)"
         id="g564"><path
           id="path566"
           style="fill:#e2e0e0;fill-opacity:1;fill-rule:nonzero;stroke:none"
           d="m 16300,1034.03 h -958.8 v 958.82 h 958.8 v -958.82 0" /></g><g
         transform="scale(1.18896)"
         id="g568"><path
           id="path570"
           style="fill:#e2e0e0;fill-opacity:1;fill-rule:nonzero;stroke:none"
           d="m 16300,925.181 h -857.9 v 857.899 h 857.9 v -857.899 0" /></g><path
         id="path572"
         style="fill:#e2e0e0;fill-opacity:1;fill-rule:nonzero;stroke:none"
         d="m 2044.98,85.4023 h -1020 V 1105.4 h 1020 V 85.4023 v 0" /><path
         id="path574"
         style="fill:#e2e0e0;fill-opacity:1;fill-rule:nonzero;stroke:none"
         d="m 4084.98,85.4023 h -1020 V 1105.4 h 1020 V 85.4023 v 0" /><path
         id="path576"
         style="fill:#e2e0e0;fill-opacity:1;fill-rule:nonzero;stroke:none"
         d="m 6124.98,85.4023 h -1020 V 1105.4 h 1020 V 85.4023 v 0" /><path
         id="path578"
         style="fill:#e2e0e0;fill-opacity:1;fill-rule:nonzero;stroke:none"
         d="m 8164.98,85.4023 h -1020 V 1105.4 h 1020 V 85.4023 v 0" /><path
         id="path580"
         style="fill:#e2e0e0;fill-opacity:1;fill-rule:nonzero;stroke:none"
         d="M 10205,85.4023 H 9184.98 V 1105.4 H 10205 V 85.4023 v 0" /><path
         id="path582"
         style="fill:#e2e0e0;fill-opacity:1;fill-rule:nonzero;stroke:none"
         d="M 12245,85.4023 H 11225 V 1105.4 h 1020 V 85.4023 v 0" /><path
         id="path584"
         style="fill:#e2e0e0;fill-opacity:1;fill-rule:nonzero;stroke:none"
         d="M 14285,85.4023 H 13265 V 1105.4 h 1020 V 85.4023 v 0" /><g
         transform="scale(1.00153)"
         id="g586"><path
           id="path588"
           style="fill:#e2e0e0;fill-opacity:1;fill-rule:nonzero;stroke:none"
           d="M 16300,85.2716 H 15281.6 V 1103.71 H 16300 V 85.2716 v 0" /></g><g
         transform="scale(1.12669)"
         id="g590"><path
           id="path592"
           style="fill:#e2e0e0;fill-opacity:1;fill-rule:nonzero;stroke:none"
           d="m 16300,75.7995 h -905.3 V 981.108 h 905.3 v -905.3085 0" /></g><g
         transform="scale(1.25)"
         id="g594"><path
           id="path596"
           style="fill:#e2e0e0;fill-opacity:1;fill-rule:nonzero;stroke:none"
           d="m 16300,68.3219 h -800 V 884.322 h 800 v -816.0001 0" /></g><path
         id="path598"
         style="fill:#3b302e;fill-opacity:1;fill-rule:nonzero;stroke:none"
         d="m 13109.4,12978.4 c 30.3,-0.4 58.6,-15 76.4,-39.4 280.3,-385.1 319.1,-886.2 101.3,-1308.1 -35.2,-68.3 -76.6,-131.9 -122.4,-191.2 22.3,-45.4 43.3,-90.9 63,-136.6 93.3,106.9 175.4,225.4 242.6,355.6 302.5,585.8 257,1279.4 -116.4,1822 l -259.2,-502.2 c 4.9,0 9.8,0 14.7,-0.1 v 0" /><path
         id="path600"
         style="fill:#221e22;fill-opacity:1;fill-rule:nonzero;stroke:none"
         d="m 13094.6,12978.5 c 0,0 0,0 0.1,0 l 259.2,502.2 v 0 c -549,-8.3 -1050.9,-263.8 -1378.1,-687.8 82.1,-55.7 161.5,-114.8 238.1,-176.7 229.9,229.1 543.2,362.3 880.7,362.3 v 0" /><path
         id="path602"
         style="fill:#221e22;fill-opacity:1;fill-rule:nonzero;stroke:none"
         d="m 11975.8,12792.9 c 327.2,424 829.1,679.5 1378.1,687.8 v 0 c 373.4,-542.6 418.9,-1236.2 116.4,-1822 -67.2,-130.2 -149.3,-248.7 -242.6,-355.6 28.6,-66.2 54.3,-132.9 77.4,-199.7 131.7,136.4 245.6,292.7 335.7,467.3 343.4,665 282.2,1455.4 -159.7,2062.6 -17.9,24.5 -46.2,39.1 -76.5,39.4 -7.7,0.1 -15.2,0.2 -22.9,0.2 -589.9,0 -1133.4,-257.7 -1502.4,-694.1 l -3,-120 c 33.7,-21.2 66.6,-43.5 99.5,-65.9 v 0" /><path
         id="path604"
         style="fill:#f18fc6;fill-opacity:1;fill-rule:nonzero;stroke:none"
         d="m 13058.5,12786 c -266.4,-8.8 -512.9,-115.4 -698.1,-294.2 284.6,-255.8 523.4,-551.2 703.4,-862.9 18.8,29 36.7,58.7 52.8,89.9 176.9,342.7 153.7,747.1 -58.1,1067.2 v 0" /><path
         id="path606"
         style="fill:#221e22;fill-opacity:1;fill-rule:nonzero;stroke:none"
         d="m 13185.8,12939 c -17.8,24.4 -46.1,39 -76.4,39.4 -4.9,0.1 -9.8,0.1 -14.7,0.1 -0.1,0 -0.1,0 -0.1,0 -337.5,0 -650.8,-133.2 -880.7,-362.3 50,-40.4 99,-81.7 146.5,-124.4 185.2,178.8 431.7,285.4 698.1,294.2 211.8,-320.1 235,-724.5 58.1,-1067.2 -16.1,-31.2 -34,-60.9 -52.8,-89.9 36.1,-62.5 69.7,-125.6 100.9,-189.2 45.8,59.3 87.2,122.9 122.4,191.2 217.8,421.9 179,923 -101.3,1308.1 v 0" /><path
         id="path608"
         style="fill:#3b302e;fill-opacity:1;fill-rule:nonzero;stroke:none"
         d="m 7204.03,12939 c 17.83,24.4 46.16,39 76.41,39.4 4.91,0.1 9.84,0.1 14.75,0.1 l -259.27,502.2 h -0.03 c -373.41,-542.6 -418.88,-1236.3 -116.36,-1822 67.17,-130.1 149.34,-248.7 242.62,-355.5 19.71,45.7 40.76,91.1 62.99,136.4 -45.78,59.4 -87.16,123 -122.42,191.4 -217.79,421.8 -178.94,923.1 101.31,1308 v 0" /><path
         id="path610"
         style="fill:#221e22;fill-opacity:1;fill-rule:nonzero;stroke:none"
         d="m 7035.92,13480.7 259.27,-502.2 c 0.03,0 0.06,0 0.09,0 337.46,0 650.75,-133.2 880.7,-362.3 76.64,61.9 155.99,121 238.09,176.7 -327.19,424 -829.13,679.5 -1378.15,687.8 v 0" /><path
         id="path612"
         style="fill:#221e22;fill-opacity:1;fill-rule:nonzero;stroke:none"
         d="m 6919.53,11658.7 c -302.52,585.7 -257.05,1279.4 116.36,1822 h 0.03 c 549.02,-8.3 1050.96,-263.8 1378.15,-687.8 32.88,22.4 65.76,44.6 99.47,65.9 l -3.07,120.1 c -368.97,436.3 -912.36,693.9 -1502.28,693.9 -7.62,0 -15.3,-0.1 -22.89,-0.1 -30.27,-0.4 -58.65,-15 -76.51,-39.5 -441.96,-607.2 -503.14,-1397.6 -159.77,-2062.5 90.16,-174.6 204.05,-330.9 335.8,-467.2 23.02,66.8 48.75,133.4 77.33,199.7 -93.28,106.8 -175.45,225.4 -242.62,355.5 v 0" /><path
         id="path614"
         style="fill:#f18fc6;fill-opacity:1;fill-rule:nonzero;stroke:none"
         d="m 7273.17,11718.9 c 16.11,-31.2 34.08,-61 52.84,-90.1 180.04,311.8 418.78,607.2 703.38,862.9 -185.19,178.9 -431.81,285.5 -698.1,294.3 -211.83,-320.1 -234.97,-724.5 -58.12,-1067.1 v 0" /><path
         id="path616"
         style="fill:#221e22;fill-opacity:1;fill-rule:nonzero;stroke:none"
         d="m 7295.19,12978.5 c -4.91,0 -9.84,0 -14.75,-0.1 -30.25,-0.4 -58.58,-15 -76.41,-39.4 -280.25,-384.9 -319.1,-886.2 -101.31,-1308 35.26,-68.4 76.64,-132 122.42,-191.4 31.23,63.6 64.8,126.7 100.87,189.2 -18.76,29.1 -36.73,58.9 -52.84,90.1 -176.85,342.6 -153.71,747 58.12,1067.1 266.29,-8.8 512.91,-115.4 698.1,-294.3 47.52,42.7 96.59,84.1 146.59,124.5 -229.95,229.1 -543.24,362.3 -880.7,362.3 -0.03,0 -0.06,0 -0.09,0 v 0" /><path
         id="path618"
         style="fill:#fcfef3;fill-opacity:1;fill-rule:nonzero;stroke:none"
         d="m 12896.1,11544.1 c -241,416.5 -594.9,802 -1025.4,1093.1 l -4.6,-178.9 c -1.3,-52.1 -44,-93.5 -95.8,-93.5 -0.9,0 -1.7,0 -2.5,0 -52.9,1.4 -94.8,45.4 -93.6,98.4 l 0.9,32.2 -374.5,136.4 -2.1,-4.7 c -3.6,-8.5 -8.5,-15.9 -14.1,-22.7 v -140 c 677.7,-166 1245.4,-487 1611.7,-920.3 v 0" /><path
         id="path620"
         style="fill:#fcfef3;fill-opacity:1;fill-rule:nonzero;stroke:none"
         d="m 9105.49,12464.4 v 139.9 c -5.56,6.8 -10.59,14.2 -14.22,22.7 l -2.05,4.8 -374.51,-136.4 0.82,-32.2 c 1.34,-53 -40.54,-97 -93.5,-98.4 -0.85,0 -1.66,0 -2.5,0 -51.87,0 -94.53,41.3 -95.88,93.5 l -4.52,178.9 c -430.5,-291.1 -784.36,-676.6 -1025.36,-1093.1 366.36,433.4 934.04,754.3 1611.72,920.3 v 0" /><path
         id="path622"
         style="fill:#eae7b8;fill-opacity:1;fill-rule:nonzero;stroke:none"
         d="m 8558.22,9547.6 c 42.94,126 161.12,217.5 301.46,217.5 52.97,0 95.94,-43 95.94,-96 0,-52.9 -42.97,-95.9 -95.94,-95.9 -63.21,0 -115.49,-46.2 -125.73,-106.5 132.85,-56.6 275.69,-107.2 429.62,-149.3 h 2062.73 c 154,42.1 296.7,92.7 429.6,149.2 -10.3,60.4 -62.5,106.6 -125.8,106.6 -53,0 -95.9,43 -95.9,95.9 0,53 42.9,96 95.9,96 140.3,0 258.6,-91.5 301.5,-217.6 387.1,192.6 678.1,433.1 895.7,648.1 l -41.3,119.5 -5,-1.5 c -51.3,-14.4 -104.1,14.9 -118.6,65.8 -14.6,51 14.9,104.1 65.8,118.7 l 510.8,146.2 c 27.9,29.9 52.1,53.8 73.3,70.8 -51.4,277.7 -160.4,559.7 -316.2,829 -366.3,433.3 -934,754.3 -1611.7,920.3 v -310.7 c 0,-516.4 -420.2,-936.5 -936.6,-936.5 h -305.7 c -516.42,0 -936.61,420.1 -936.61,936.5 v 310.7 c -677.68,-166 -1245.36,-486.9 -1611.72,-920.3 -155.84,-269.3 -264.76,-551.3 -316.16,-828.9 21.11,-17.1 45.38,-41 73.14,-70.8 l 510.91,-146.3 c 50.9,-14.6 80.42,-67.7 65.83,-118.6 -14.65,-50.9 -67.55,-80.3 -118.64,-65.8 l -5,1.4 -41.32,-119.4 c 217.65,-215 508.58,-455.5 895.69,-648.1 z m 2665.18,1267.1 c 6,10.5 12.3,20.6 19.5,30.3 110.5,158.1 293.6,261.9 500.7,261.9 336.8,0 611,-273.9 611,-610.8 0,-336.9 -274.1,-610.9 -611,-610.9 -336.8,0 -610.9,274 -610.9,610.9 0,116.8 33.6,225.7 90.7,318.6 z m -1028.5,-620.2 c 573.3,0 1038,-232.7 1038,-321.8 0,-89 -464.7,-104.9 -1038,-104.9 -573.28,0 -1038.07,15.9 -1038.07,104.9 0,89.1 464.85,321.8 1038.07,321.8 z m -2068.36,621.1 c 5.75,9.8 11.65,19.5 18.43,28.6 110.46,158.6 293.8,262.7 501.23,262.7 336.93,0 611,-274 611,-610.9 0,-336.8 -274.07,-610.8 -611,-610.8 -336.87,0 -610.85,274 -610.85,610.8 0,117.3 33.77,226.4 91.19,319.6 v 0" /><path
         id="path624"
         style="fill:#ddd39f;fill-opacity:1;fill-rule:nonzero;stroke:none"
         d="m 13022,9854.8 119.8,-92.5 c 27.6,77.4 50.2,156.3 67,236.6 L 13022,9854.8 v 0" /><path
         id="path626"
         style="fill:#ddd39f;fill-opacity:1;fill-rule:nonzero;stroke:none"
         d="m 11658,9445.3 c 0,7.3 -0.9,14.3 -2.1,21.3 -132.9,-56.5 -275.6,-107.1 -429.6,-149.2 h 303.8 c 70.6,0 127.9,57.3 127.9,127.9 v 0" /><path
         id="path628"
         style="fill:#ddd39f;fill-opacity:1;fill-rule:nonzero;stroke:none"
         d="m 8859.68,9317.4 h 303.89 c -153.93,42.1 -296.77,92.7 -429.62,149.3 -1.19,-7 -2.19,-14.1 -2.19,-21.4 0,-70.6 57.41,-127.9 127.92,-127.9 v 0" /><path
         id="path630"
         style="fill:#ddd39f;fill-opacity:1;fill-rule:nonzero;stroke:none"
         d="m 12773.5,9784.1 c -32.3,41.9 -24.6,102.2 17.3,134.6 l 25.5,19.6 -89,257.3 c -217.6,-215 -508.6,-455.5 -895.7,-648.1 11,-32.3 18.3,-66.2 18.3,-102.2 0,-176.3 -143.5,-319.8 -319.8,-319.8 h -72 v -106.8 c 0,-53 -43,-96 -96,-96 -52.9,0 -95.9,43 -95.9,96 v 106.8 H 9123.63 v -106.8 c 0,-53 -42.97,-96 -95.93,-96 -52.94,0 -95.94,43 -95.94,96 v 106.8 h -72.08 c -176.32,0 -319.79,143.5 -319.79,319.8 0,36 7.31,70 18.33,102.3 -387.11,192.6 -678.04,433.1 -895.69,648.1 l -89,-257.4 25.43,-19.6 c 41.96,-32.4 49.71,-92.6 17.33,-134.6 -18.33,-23.9 -45.85,-36.5 -73.86,-37.1 l -4.66,-3.6 132.86,-384.1 5.02,1.5 c 50.65,14.5 104.06,-14.9 118.64,-65.9 14.58,-50.9 -14.89,-104 -65.83,-118.6 l -120.98,-34.6 c 539.83,-649.4 1497.53,-1082.4 2587.42,-1082.4 1089.9,0 2047.6,433 2587.4,1082.3 l -120.9,34.7 c -50.9,14.6 -80.4,67.7 -65.8,118.6 14.6,50.9 67.5,80.2 118.6,65.8 l 5,-1.4 132.9,384.2 -4.5,3.5 c -28,0.5 -55.7,13.1 -74.1,37.1 v 0" /><path
         id="path632"
         style="fill:#ddd39f;fill-opacity:1;fill-rule:nonzero;stroke:none"
         d="m 13139,10644.3 80.9,23.1 c -2.6,15.9 -4.7,31.8 -7.6,47.7 -21.2,-17 -45.4,-40.9 -73.3,-70.8 v 0" /><path
         id="path634"
         style="fill:#ddd39f;fill-opacity:1;fill-rule:nonzero;stroke:none"
         d="m 7177.61,10715.2 c -2.97,-16 -5,-31.8 -7.56,-47.7 l 80.7,-23.1 c -27.76,29.8 -52.03,53.7 -73.14,70.8 v 0" /><path
         id="path636"
         style="fill:#ddd39f;fill-opacity:1;fill-rule:nonzero;stroke:none"
         d="m 7248.12,9762.3 119.8,92.4 -186.88,144.2 c 16.84,-80.4 39.48,-159.3 67.08,-236.6 v 0" /><path
         id="path638"
         style="fill:#221e22;fill-opacity:1;fill-rule:nonzero;stroke:none"
         d="m 9105.49,13155.9 c -9.06,-3.5 -18.31,-6.5 -27.33,-10 l 27.33,-63.9 v 73.9 0" /><path
         id="path640"
         style="fill:#221e22;fill-opacity:1;fill-rule:nonzero;stroke:none"
         d="m 11311.6,13145.9 c -9,3.5 -18.2,6.5 -27.2,10 v -73.7 l 27.2,63.7 v 0" /><path
         id="path642"
         style="fill:#221e22;fill-opacity:1;fill-rule:nonzero;stroke:none"
         d="m 13164.7,11439.7 c -31.2,63.6 -64.8,126.7 -100.9,189.2 -180,311.7 -418.8,607.1 -703.4,862.9 -47.5,42.7 -96.5,84 -146.5,124.4 -76.6,61.9 -156,121 -238.1,176.7 -32.9,22.4 -65.8,44.7 -99.5,65.9 l -5.6,-221.6 c 430.5,-291.1 784.4,-676.6 1025.4,-1093.1 155.8,-269.3 264.8,-551.3 316.2,-829 2.9,-15.9 5,-31.8 7.6,-47.7 l 185.1,53 c -22.3,127.3 -56,255.4 -99.9,383 -23.1,66.8 -48.8,133.5 -77.4,199.7 -19.7,45.7 -40.7,91.2 -63,136.6 v 0" /><path
         id="path644"
         style="fill:#221e22;fill-opacity:1;fill-rule:nonzero;stroke:none"
         d="m 7177.61,10715.2 c 51.4,277.6 160.32,559.6 316.16,828.9 241,416.5 594.86,802 1025.36,1093.1 l -5.59,221.6 c -33.71,-21.3 -66.59,-43.5 -99.47,-65.9 -82.1,-55.7 -161.45,-114.8 -238.09,-176.7 -50,-40.4 -99.07,-81.8 -146.59,-124.5 -284.6,-255.7 -523.34,-551.1 -703.38,-862.9 -36.07,-62.5 -69.64,-125.6 -100.87,-189.2 -22.23,-45.3 -43.28,-90.7 -62.99,-136.4 -28.58,-66.3 -54.31,-132.9 -77.33,-199.7 -43.97,-127.7 -77.63,-255.8 -99.96,-383 l 185.19,-53 c 2.56,15.9 4.59,31.7 7.56,47.7 v 0" /><path
         id="path646"
         style="fill:#221e22;fill-opacity:1;fill-rule:nonzero;stroke:none"
         d="m 7181.04,9998.9 -218.91,169 c 17.98,-182 61.11,-358.8 127.57,-527.9 l 158.42,122.3 c -27.6,77.3 -50.24,156.2 -67.08,236.6 v 0" /><path
         id="path648"
         style="fill:#221e22;fill-opacity:1;fill-rule:nonzero;stroke:none"
         d="m 10194.9,8059.3 c -1089.89,0 -2047.59,433 -2587.42,1082.4 l -198.52,-56.9 c 566.56,-728.4 1603.12,-1217.4 2785.94,-1217.4 1182.9,0 2219.4,489 2786,1217.4 l -198.6,56.8 C 12242.5,8492.3 11284.8,8059.3 10194.9,8059.3 v 0" /><path
         id="path650"
         style="fill:#221e22;fill-opacity:1;fill-rule:nonzero;stroke:none"
         d="m 13141.8,9762.3 158.4,-122.3 c 66.5,169.2 109.6,345.9 127.6,527.9 l -219,-169 c -16.8,-80.3 -39.4,-159.2 -67,-236.6 v 0" /><path
         id="path652"
         style="fill:#9a3504;fill-opacity:1;fill-rule:nonzero;stroke:none"
         d="m 8646.2,10077.1 c 174.04,0 323.56,106.6 386.8,258 -94.37,2.5 -232.47,54.5 -386.8,54.5 -58.4,0 -114.3,-7.6 -166.67,-17.1 -19.96,-6.2 -40.6,-10.2 -62.12,-12.1 -60.37,-12.5 -113.89,-24.2 -157.9,-25.3 63.18,-151.4 212.68,-258 386.69,-258 v 0" /><path
         id="path654"
         style="fill:#221e22;fill-opacity:1;fill-rule:nonzero;stroke:none"
         d="m 8646.2,9885.2 c 336.93,0 611,274 611,610.8 0,336.9 -274.07,610.9 -611,610.9 -207.43,0 -390.77,-104.1 -501.23,-262.7 -6.78,-9.1 -12.68,-18.8 -18.43,-28.6 -57.42,-93.2 -91.19,-202.3 -91.19,-319.6 0,-336.8 273.98,-610.8 610.85,-610.8 z m -256.08,892 c 62.86,0 113.83,-50.9 113.83,-113.8 0,-62.9 -50.97,-113.9 -113.83,-113.9 -62.87,0 -113.87,51 -113.87,113.9 0,62.9 51,113.8 113.87,113.8 z m 27.29,-416.8 c 21.52,1.9 42.16,5.9 62.12,12.1 52.37,9.5 108.27,17.1 166.67,17.1 154.33,0 292.43,-52 386.8,-54.5 -63.24,-151.4 -212.76,-258 -386.8,-258 -174.01,0 -323.51,106.6 -386.69,258 44.01,1.1 97.53,12.8 157.9,25.3 v 0" /><path
         id="path656"
         style="fill:#ffffff;fill-opacity:1;fill-rule:nonzero;stroke:none"
         d="m 8390.12,10549.5 c 62.86,0 113.83,51 113.83,113.9 0,62.9 -50.97,113.8 -113.83,113.8 -62.87,0 -113.87,-50.9 -113.87,-113.8 0,-62.9 51,-113.9 113.87,-113.9 v 0" /><path
         id="path658"
         style="fill:#9a3504;fill-opacity:1;fill-rule:nonzero;stroke:none"
         d="m 11743.6,10077.1 c 174,0 323.5,106.6 386.7,258 -94.4,2.5 -232.4,54.5 -386.7,54.5 -58.4,0 -114.4,-7.6 -166.7,-17.1 -20,-6.2 -40.7,-10.2 -62.2,-12.1 -60.3,-12.5 -113.8,-24.2 -157.9,-25.3 63.3,-151.4 212.8,-258 386.8,-258 v 0" /><path
         id="path660"
         style="fill:#221e22;fill-opacity:1;fill-rule:nonzero;stroke:none"
         d="m 11743.6,9885.2 c 336.9,0 611,274 611,610.9 0,336.9 -274.2,610.8 -611,610.8 -207.1,0 -390.2,-103.8 -500.7,-261.9 -7.2,-9.7 -13.5,-19.8 -19.5,-30.3 -57.1,-92.9 -90.7,-201.8 -90.7,-318.6 0,-336.9 274.1,-610.9 610.9,-610.9 z m -256.1,892 c 62.9,0 113.9,-50.9 113.9,-113.8 0,-62.9 -51,-113.9 -113.9,-113.9 -62.8,0 -113.8,51 -113.8,113.9 0,62.9 51,113.8 113.8,113.8 z m 27.2,-416.8 c 21.5,1.9 42.2,5.9 62.2,12.1 52.3,9.5 108.3,17.1 166.7,17.1 154.3,0 292.3,-52 386.7,-54.5 -63.2,-151.4 -212.7,-258 -386.7,-258 -174,0 -323.5,106.6 -386.8,258 44.1,1.1 97.6,12.8 157.9,25.3 v 0" /><path
         id="path662"
         style="fill:#ffffff;fill-opacity:1;fill-rule:nonzero;stroke:none"
         d="m 11487.5,10549.5 c 62.9,0 113.9,51 113.9,113.9 0,62.9 -51,113.8 -113.9,113.8 -62.8,0 -113.8,-50.9 -113.8,-113.8 0,-62.9 51,-113.9 113.8,-113.9 v 0" /><path
         id="path664"
         style="fill:#fcfef3;fill-opacity:1;fill-rule:nonzero;stroke:none"
         d="m 9156.83,9872.7 c 0,-89 464.79,-104.9 1038.07,-104.9 573.3,0 1038,15.9 1038,104.9 0,89.1 -464.7,321.8 -1038,321.8 -573.22,0 -1038.07,-232.7 -1038.07,-321.8 v 0" /><path
         id="path666"
         style="fill:#eae7b8;fill-opacity:1;fill-rule:nonzero;stroke:none"
         d="m 12816.3,9938.3 852.6,658.2 -982.9,-281.4 41.3,-119.5 89,-257.3 v 0" /><path
         id="path668"
         style="fill:#221e22;fill-opacity:1;fill-rule:nonzero;stroke:none"
         d="m 13139,10644.3 -510.8,-146.2 c -50.9,-14.6 -80.4,-67.7 -65.8,-118.7 14.5,-50.9 67.3,-80.2 118.6,-65.8 l 5,1.5 982.9,281.4 -852.6,-658.2 -25.5,-19.6 c -41.9,-32.4 -49.6,-92.7 -17.3,-134.6 18.4,-24 46.1,-36.6 74.1,-37.1 l -20.9,16.1 c -42,32.4 -49.7,92.7 -17.4,134.6 32.4,42 92.6,49.7 134.6,17.3 l 78.1,-60.2 186.8,144.1 219,169 754.8,582.6 c 36.5,28 47.8,78.1 27.1,119.2 -20.8,41.1 -67.4,61.5 -112.1,49 l -692.6,-198.3 -185.1,-53 -80.9,-23.1 v 0" /><path
         id="path670"
         style="fill:#eae7b8;fill-opacity:1;fill-rule:nonzero;stroke:none"
         d="m 7703.85,10315.1 -982.97,281.4 852.65,-658.2 89,257.4 41.32,119.4 v 0" /><path
         id="path672"
         style="fill:#221e22;fill-opacity:1;fill-rule:nonzero;stroke:none"
         d="m 7367.92,9854.7 78.19,60.3 c 41.88,32.4 102.12,24.6 134.54,-17.3 32.39,-41.9 24.64,-102.2 -17.3,-134.6 l -20.92,-16.1 c 28.01,0.6 55.53,13.2 73.86,37.1 32.38,42 24.63,102.2 -17.33,134.6 l -25.43,19.6 -852.65,658.2 982.97,-281.4 5,-1.4 c 51.09,-14.5 103.99,14.9 118.64,65.8 14.59,50.9 -14.93,104 -65.83,118.6 l -510.91,146.3 -80.7,23.1 -185.19,53 -692.6,198.2 c -44.54,12.6 -91.29,-7.9 -112.08,-49 -20.71,-41 -9.4,-91.1 27.07,-119.2 l 754.88,-582.6 218.91,-169 186.88,-144.2 v 0" /><g
         id="g674"><g
           clip-path="url(#clipPath680)"
           id="g676"><path
             id="path682"
             style="fill:#ddd39f;fill-opacity:1;fill-rule:nonzero;stroke:none"
             d="m 13721.9,9072.2 -869.8,671.3 -132.9,-384.2 1002.7,-287.1 v 0" /><path
             id="path684"
             style="fill:#221e22;fill-opacity:1;fill-rule:nonzero;stroke:none"
             d="m 13300.2,9640 -158.4,122.3 -119.8,92.5 -78.1,60.2 c -42,32.4 -102.2,24.7 -134.6,-17.3 -32.3,-41.9 -24.6,-102.2 17.4,-134.6 l 20.9,-16.1 4.5,-3.5 869.8,-671.3 -1002.7,287.1 -5,1.4 c -51.1,14.4 -104,-14.9 -118.6,-65.8 -14.6,-50.9 14.9,-104 65.8,-118.6 l 120.9,-34.7 198.6,-56.8 1169.7,-334.9 c 8.8,-2.5 17.6,-3.7 26.4,-3.7 35.4,0 68.9,19.7 85.7,52.6 20.7,41.1 9.4,91.2 -27.1,119.3 l -935.4,721.9 v 0" /><path
             id="path686"
             style="fill:#ddd39f;fill-opacity:1;fill-rule:nonzero;stroke:none"
             d="m 6668.13,9072.3 1002.5,287 -132.86,384.1 -869.64,-671.1 v 0" /><path
             id="path688"
             style="fill:#221e22;fill-opacity:1;fill-rule:nonzero;stroke:none"
             d="m 7728.46,9176.3 c 50.94,14.6 80.41,67.7 65.83,118.6 -14.58,51 -67.99,80.4 -118.64,65.9 l -5.02,-1.5 -1002.5,-287 869.64,671.1 4.66,3.6 20.92,16.1 c 41.94,32.4 49.69,92.7 17.3,134.6 -32.42,41.9 -92.66,49.7 -134.54,17.3 l -78.19,-60.3 -119.8,-92.4 L 7089.7,9640 6154.35,8918.1 c -36.44,-28.1 -47.78,-78.1 -27.05,-119.3 16.68,-32.8 50.13,-52.6 85.63,-52.6 8.78,0 17.59,1.2 26.43,3.8 l 1169.6,334.8 198.52,56.9 120.98,34.6 v 0" /></g></g><path
         id="path690"
         style="fill:#eae7b8;fill-opacity:1;fill-rule:nonzero;stroke:none"
         d="m 11702.4,13571.9 -401.8,-940.1 374.5,-136.4 27.3,1076.5 v 0" /><path
         id="path692"
         style="fill:#221e22;fill-opacity:1;fill-rule:nonzero;stroke:none"
         d="m 11284.4,12604.4 c 5.6,6.8 10.5,14.2 14.1,22.7 l 2.1,4.7 401.8,940.1 -27.3,-1076.5 -0.9,-32.2 c -1.2,-53 40.7,-97 93.6,-98.4 0.8,0 1.6,0 2.5,0 51.8,0 94.5,41.4 95.8,93.5 l 4.6,178.9 5.6,221.6 3,120 27.6,1089 c 1.1,46 -30.6,86.4 -75.6,96.2 -44.3,9.8 -90.5,-13.7 -108.5,-56 l -411.2,-962.1 -27.2,-63.7 v -477.8 0" /><path
         id="path694"
         style="fill:#eae7b8;fill-opacity:1;fill-rule:nonzero;stroke:none"
         d="m 8687.45,13571.9 27.26,-1076.5 374.51,136.4 -401.77,940.1 v 0" /><path
         id="path696"
         style="fill:#221e22;fill-opacity:1;fill-rule:nonzero;stroke:none"
         d="m 8519.13,12637.2 4.52,-178.9 c 1.35,-52.2 44.01,-93.5 95.88,-93.5 0.84,0 1.65,0 2.5,0 52.96,1.4 94.84,45.4 93.5,98.4 l -0.82,32.2 -27.26,1076.5 401.77,-940.1 2.05,-4.8 c 3.63,-8.5 8.66,-15.9 14.22,-22.7 v 477.7 l -27.33,63.9 -411.1,962 c -18.05,42.3 -64.09,65.9 -108.62,56 -44.97,-9.7 -76.67,-50.1 -75.51,-96.1 l 27.54,-1088.9 3.07,-120.1 5.59,-221.6 v 0" /><path
         id="path698"
         style="fill:#fed31f;fill-opacity:1;fill-rule:nonzero;stroke:none"
         d="m 11092.5,13527.4 v 4.6 c -0.4,-0.6 -0.9,-1.1 -1.4,-1.7 0.5,-0.9 0.9,-1.9 1.4,-2.9 v 0" /><path
         id="path700"
         style="fill:#fed31f;fill-opacity:1;fill-rule:nonzero;stroke:none"
         d="m 9416.5,13698.4 c 18.55,20.7 38.04,40.4 58.52,59.2 3.22,50 44.44,89.7 95.31,89.7 h 21.49 c 130.29,83 284.46,131.7 450.28,131.7 h 305.7 c 165.8,0 319.9,-48.7 450.2,-131.7 h 21.5 c 50.9,0 92.1,-39.7 95.3,-89.7 20.5,-18.8 40,-38.5 58.5,-59.2 h 33.7 c 34.4,0 64.7,-16.8 83.9,-42.4 -16.5,396.2 -343,713.7 -743.1,713.7 h -305.7 v 0 c -386.13,0 -704.46,-295.5 -741.06,-672.2 3.06,0.2 6.03,0.9 9.16,0.9 h 106.3 v 0" /><path
         id="path702"
         style="fill:#ffa600;fill-opacity:1;fill-rule:nonzero;stroke:none"
         d="m 10915.4,13751.4 c 0,-19.6 -6,-37.8 -16,-53 h 73.9 c -18.5,20.7 -38,40.4 -58.5,59.2 0.1,-2.1 0.6,-4.1 0.6,-6.2 v 0" /><path
         id="path704"
         style="fill:#ffa600;fill-opacity:1;fill-rule:nonzero;stroke:none"
         d="m 10758.6,13847.3 h 39.4 c -130.3,83 -284.4,131.7 -450.2,131.7 h -305.7 c -165.82,0 -319.99,-48.7 -450.28,-131.7 h 39.47 c 52.94,0 95.94,-42.9 95.94,-95.9 0,-19.6 -5.97,-37.8 -16.08,-53 h 137.35 c -10.12,15.2 -16.09,33.4 -16.09,53 0,53 43.01,95.9 95.94,95.9 h 533.25 c 52.9,0 95.9,-42.9 95.9,-95.9 0,-19.6 -5.9,-37.8 -16.1,-53 h 137.3 c -10.1,15.2 -16,33.4 -16,53 0,53 42.9,95.9 95.9,95.9 v 0" /><path
         id="path706"
         style="fill:#ffa600;fill-opacity:1;fill-rule:nonzero;stroke:none"
         d="m 9474.39,13142 c 0,53 42.98,95.9 95.94,95.9 h 60.96 c 52.94,0 95.94,-42.9 95.94,-95.9 h 105.18 c 0,53 43.01,95.9 95.94,95.9 h 533.25 c 52.9,0 95.9,-42.9 95.9,-95.9 h 105.2 c 0,53 42.9,95.9 95.9,95.9 h 60.9 c 53,0 95.9,-42.9 95.9,-95.9 h 91.6 c 35.3,0 66.4,-17.6 85.5,-44.3 v 429.7 c -0.5,1 -0.9,2 -1.4,2.9 -19.2,-25.7 -49.5,-42.6 -84.1,-42.6 H 9310.2 c -4.38,0 -8.59,0.8 -12.84,1.3 v -348.3 c 4.25,0.5 8.46,1.3 12.84,1.3 h 164.19 v 0" /><path
         id="path708"
         style="fill:#ffa600;fill-opacity:1;fill-rule:nonzero;stroke:none"
         d="m 9475.02,13757.6 c -20.48,-18.8 -39.97,-38.5 -58.52,-59.2 h 73.95 c -10.12,15.2 -16.06,33.4 -16.06,53 0,2.1 0.48,4 0.63,6.2 v 0" /><path
         id="path710"
         style="fill:#ffa600;fill-opacity:1;fill-rule:nonzero;stroke:none"
         d="m 9474.39,12532.7 c 0,52.9 42.98,95.9 95.94,95.9 h 60.96 c 52.94,0 95.94,-43 95.94,-95.9 h 105.18 c 0,52.9 43.01,95.9 95.94,95.9 h 533.25 c 52.9,0 95.9,-43 95.9,-95.9 h 105.2 c 0,52.9 42.9,95.9 95.9,95.9 h 60.9 c 53,0 95.9,-43 95.9,-95.9 h 91.6 c 35.3,0 66.4,-17.6 85.5,-44.3 v 487.3 c -19.1,-26.8 -50.1,-44.4 -85.5,-44.4 H 9310.2 c -4.38,0 -8.59,0.8 -12.84,1.4 v -401.3 c 4.25,0.5 8.46,1.3 12.84,1.3 h 164.19 v 0" /><path
         id="path712"
         style="fill:#ffa600;fill-opacity:1;fill-rule:nonzero;stroke:none"
         d="m 9474.39,11923.3 c 0,0 0,0.1 0,0.1 0,52.9 42.98,95.9 95.94,95.9 h 60.96 c 52.94,0 95.94,-43 95.94,-95.9 0,0 -0.03,-0.1 -0.03,-0.1 h 105.25 c 0,0 -0.04,0.1 -0.04,0.1 0,52.9 43.01,95.9 95.94,95.9 h 533.25 c 52.9,0 95.9,-43 95.9,-95.9 0,0 0,-0.1 0,-0.1 h 105.2 c 0,0 0,0.1 0,0.1 0,52.9 42.9,95.9 95.9,95.9 h 60.9 c 53,0 95.9,-43 95.9,-95.9 0,0 0,-0.1 0,-0.1 h 91.6 c 16.1,0 31.2,-3.9 44.8,-10.4 26,75.7 40.7,156.5 40.7,240.8 v 212.6 c -19.1,-26.7 -50.1,-44.3 -85.5,-44.3 H 9310.2 c -4.38,0 -8.59,0.7 -12.84,1.3 v -169.6 c 0,-80.4 13.21,-157.8 36.94,-230.4 h 140.09 v 0" /><path
         id="path714"
         style="fill:#ffa600;fill-opacity:1;fill-rule:nonzero;stroke:none"
         d="m 10042.1,11409.1 h 305.7 c 245.4,0 462.8,119.8 598.6,303.5 H 9443.48 c 135.75,-183.7 353.2,-303.5 598.62,-303.5 v 0" /><path
         id="path716"
         style="fill:#f35d01;fill-opacity:1;fill-rule:nonzero;stroke:none"
         d="m 11007,13487.7 c 34.6,0 64.9,16.9 84.1,42.6 0.5,0.6 1,1.1 1.4,1.7 v 92.8 c 0,10.6 -1.1,20.8 -1.6,31.2 -19.2,25.6 -49.5,42.4 -83.9,42.4 h -33.7 -73.9 c -17.2,-25.9 -46.5,-42.9 -79.9,-42.9 h -60.9 c -33.3,0 -62.7,17 -79.9,42.9 h -137.3 c -17.1,-25.9 -46.5,-42.9 -79.8,-42.9 h -533.25 c -33.33,0 -62.68,17 -79.85,42.9 h -137.35 c -17.2,-25.9 -46.53,-42.9 -79.86,-42.9 h -60.96 c -33.35,0 -62.67,17 -79.88,42.9 h -73.95 -106.3 c -3.13,0 -6.1,-0.7 -9.16,-0.9 -2.34,-23.9 -3.68,-48.1 -3.68,-72.6 V 13489 c 4.25,-0.5 8.46,-1.3 12.84,-1.3 H 11007 v 0" /><path
         id="path718"
         style="fill:#f35d01;fill-opacity:1;fill-rule:nonzero;stroke:none"
         d="m 11007,12931.3 c 35.4,0 66.4,17.6 85.5,44.4 v 122 c -19.1,26.7 -50.2,44.3 -85.5,44.3 h -91.6 c 0,-52.9 -42.9,-95.9 -95.9,-95.9 h -60.9 c -53,0 -95.9,43 -95.9,95.9 h -105.2 c 0,-52.9 -43,-95.9 -95.9,-95.9 h -533.25 c -52.93,0 -95.94,43 -95.94,95.9 h -105.18 c 0,-52.9 -43,-95.9 -95.94,-95.9 h -60.96 c -52.96,0 -95.94,43 -95.94,95.9 H 9310.2 c -4.38,0 -8.59,-0.8 -12.84,-1.3 v -208 c 4.25,-0.6 8.46,-1.4 12.84,-1.4 H 11007 v 0" /><path
         id="path720"
         style="fill:#f35d01;fill-opacity:1;fill-rule:nonzero;stroke:none"
         d="m 11007,12322 c 35.4,0 66.4,17.6 85.5,44.3 v 122.1 c -19.1,26.7 -50.2,44.3 -85.5,44.3 h -91.6 c 0,-53 -42.9,-95.9 -95.9,-95.9 h -60.9 c -53,0 -95.9,42.9 -95.9,95.9 h -105.2 c 0,-53 -43,-95.9 -95.9,-95.9 h -533.25 c -52.93,0 -95.94,42.9 -95.94,95.9 h -105.18 c 0,-53 -43,-95.9 -95.94,-95.9 h -60.96 c -52.96,0 -95.94,42.9 -95.94,95.9 H 9310.2 c -4.38,0 -8.59,-0.8 -12.84,-1.3 v -208.1 c 4.25,-0.6 8.46,-1.3 12.84,-1.3 H 11007 v 0" /><path
         id="path722"
         style="fill:#f35d01;fill-opacity:1;fill-rule:nonzero;stroke:none"
         d="m 10915.4,11923.3 c 0,-52.9 -42.9,-95.9 -95.9,-95.9 h -60.9 c -53,0 -95.9,43 -95.9,95.9 h -105.2 c 0,-52.9 -43,-95.9 -95.9,-95.9 h -533.25 c -52.93,0 -95.87,43 -95.9,95.9 H 9727.2 c -0.03,-52.9 -42.97,-95.9 -95.91,-95.9 h -60.96 c -52.93,0 -95.9,43 -95.94,95.9 H 9334.3 c 24.95,-76.5 62.31,-147.2 109.18,-210.7 h 1502.92 c 44.7,60.5 80.5,127.8 105.4,200.3 -13.6,6.5 -28.7,10.4 -44.8,10.4 h -91.6 v 0" /><path
         id="path724"
         style="fill:#221e22;fill-opacity:1;fill-rule:nonzero;stroke:none"
         d="m 9105.49,12604.3 v -450.6 c 0,-516.4 420.19,-936.5 936.61,-936.5 h 305.7 c 516.4,0 936.6,420.1 936.6,936.5 v 310.7 140 477.8 73.7 468.9 c 0,516.6 -420.2,936.8 -936.6,936.8 h -305.7 c -516.49,0 -936.61,-420.2 -936.61,-936.8 v -468.9 -73.9 -477.7 z m 191.87,-281 v 1301.6 c 0,24.5 1.34,48.7 3.68,72.6 36.6,376.7 354.93,672.2 741.06,672.2 v 0 h 305.7 c 400.1,0 726.6,-317.5 743.1,-713.7 0.5,-10.4 1.6,-20.6 1.6,-31.2 v -92.8 -4.6 -429.7 -122 -487.3 -122.1 -212.6 c 0,-84.3 -14.7,-165.1 -40.7,-240.8 -24.9,-72.5 -60.7,-139.8 -105.4,-200.3 -135.8,-183.7 -353.2,-303.5 -598.6,-303.5 h -305.7 c -245.42,0 -462.87,119.8 -598.62,303.5 -46.87,63.5 -84.23,134.2 -109.18,210.7 -23.73,72.6 -36.94,150 -36.94,230.4 v 169.6 0" /><path
         id="path726"
         style="fill:#221e22;fill-opacity:1;fill-rule:nonzero;stroke:none"
         d="m 9631.29,13847.3 h -60.96 c -50.87,0 -92.09,-39.7 -95.31,-89.7 -0.15,-2.2 -0.63,-4.1 -0.63,-6.2 0,-19.6 5.94,-37.8 16.06,-53 17.21,-25.9 46.53,-42.9 79.88,-42.9 h 60.96 c 33.33,0 62.66,17 79.86,42.9 10.11,15.2 16.08,33.4 16.08,53 0,53 -43,95.9 -95.94,95.9 v 0" /><path
         id="path728"
         style="fill:#221e22;fill-opacity:1;fill-rule:nonzero;stroke:none"
         d="m 10914.8,13757.6 c -3.2,50 -44.4,89.7 -95.3,89.7 h -21.5 -39.4 c -53,0 -95.9,-42.9 -95.9,-95.9 0,-19.6 5.9,-37.8 16,-53 17.2,-25.9 46.6,-42.9 79.9,-42.9 h 60.9 c 33.4,0 62.7,17 79.9,42.9 10,15.2 16,33.4 16,53 0,2.1 -0.5,4.1 -0.6,6.2 v 0" /><path
         id="path730"
         style="fill:#221e22;fill-opacity:1;fill-rule:nonzero;stroke:none"
         d="m 10461.6,13847.3 h -533.25 c -52.93,0 -95.94,-42.9 -95.94,-95.9 0,-19.6 5.97,-37.8 16.09,-53 17.17,-25.9 46.52,-42.9 79.85,-42.9 h 533.25 c 33.3,0 62.7,17 79.8,42.9 10.2,15.2 16.1,33.4 16.1,53 0,53 -43,95.9 -95.9,95.9 v 0" /><path
         id="path732"
         style="fill:#221e22;fill-opacity:1;fill-rule:nonzero;stroke:none"
         d="m 9631.29,13237.9 h -60.96 c -52.96,0 -95.94,-42.9 -95.94,-95.9 0,-52.9 42.98,-95.9 95.94,-95.9 h 60.96 c 52.94,0 95.94,43 95.94,95.9 0,53 -43,95.9 -95.94,95.9 v 0" /><path
         id="path734"
         style="fill:#221e22;fill-opacity:1;fill-rule:nonzero;stroke:none"
         d="m 10819.5,13237.9 h -60.9 c -53,0 -95.9,-42.9 -95.9,-95.9 0,-52.9 42.9,-95.9 95.9,-95.9 h 60.9 c 53,0 95.9,43 95.9,95.9 0,53 -42.9,95.9 -95.9,95.9 v 0" /><path
         id="path736"
         style="fill:#221e22;fill-opacity:1;fill-rule:nonzero;stroke:none"
         d="m 10461.6,13237.9 h -533.25 c -52.93,0 -95.94,-42.9 -95.94,-95.9 0,-52.9 43.01,-95.9 95.94,-95.9 h 533.25 c 52.9,0 95.9,43 95.9,95.9 0,53 -43,95.9 -95.9,95.9 v 0" /><path
         id="path738"
         style="fill:#221e22;fill-opacity:1;fill-rule:nonzero;stroke:none"
         d="m 9631.29,12628.6 h -60.96 c -52.96,0 -95.94,-43 -95.94,-95.9 0,-53 42.98,-95.9 95.94,-95.9 h 60.96 c 52.94,0 95.94,42.9 95.94,95.9 0,52.9 -43,95.9 -95.94,95.9 v 0" /><path
         id="path740"
         style="fill:#221e22;fill-opacity:1;fill-rule:nonzero;stroke:none"
         d="m 10819.5,12628.6 h -60.9 c -53,0 -95.9,-43 -95.9,-95.9 0,-53 42.9,-95.9 95.9,-95.9 h 60.9 c 53,0 95.9,42.9 95.9,95.9 0,52.9 -42.9,95.9 -95.9,95.9 v 0" /><path
         id="path742"
         style="fill:#221e22;fill-opacity:1;fill-rule:nonzero;stroke:none"
         d="m 10461.6,12628.6 h -533.25 c -52.93,0 -95.94,-43 -95.94,-95.9 0,-53 43.01,-95.9 95.94,-95.9 h 533.25 c 52.9,0 95.9,42.9 95.9,95.9 0,52.9 -43,95.9 -95.9,95.9 v 0" /><path
         id="path744"
         style="fill:#221e22;fill-opacity:1;fill-rule:nonzero;stroke:none"
         d="m 9570.33,11827.4 h 60.96 c 52.94,0 95.88,43 95.91,95.9 0,0 0.03,0.1 0.03,0.1 0,52.9 -43,95.9 -95.94,95.9 h -60.96 c -52.96,0 -95.94,-43 -95.94,-95.9 0,0 0,-0.1 0,-0.1 0.04,-52.9 43.01,-95.9 95.94,-95.9 v 0" /><path
         id="path746"
         style="fill:#221e22;fill-opacity:1;fill-rule:nonzero;stroke:none"
         d="m 10758.6,11827.4 h 60.9 c 53,0 95.9,43 95.9,95.9 0,0 0,0.1 0,0.1 0,52.9 -42.9,95.9 -95.9,95.9 h -60.9 c -53,0 -95.9,-43 -95.9,-95.9 0,0 0,-0.1 0,-0.1 0,-52.9 42.9,-95.9 95.9,-95.9 v 0" /><path
         id="path748"
         style="fill:#221e22;fill-opacity:1;fill-rule:nonzero;stroke:none"
         d="m 9928.35,11827.4 h 533.25 c 52.9,0 95.9,43 95.9,95.9 0,0 0,0.1 0,0.1 0,52.9 -43,95.9 -95.9,95.9 h -533.25 c -52.93,0 -95.94,-43 -95.94,-95.9 0,0 0.04,-0.1 0.04,-0.1 0.03,-52.9 42.97,-95.9 95.9,-95.9 v 0" /><path
         id="path750"
         style="fill:#221e22;fill-opacity:1;fill-rule:nonzero;stroke:none"
         d="m 11530.1,9765.1 c -53,0 -95.9,-43 -95.9,-96 0,-52.9 42.9,-95.9 95.9,-95.9 63.3,0 115.5,-46.2 125.8,-106.6 1.2,-7 2.1,-14 2.1,-21.3 0,-70.6 -57.3,-127.9 -127.9,-127.9 h -303.8 -2062.73 -303.89 c -70.51,0 -127.92,57.3 -127.92,127.9 0,7.3 1,14.4 2.19,21.4 10.24,60.3 62.52,106.5 125.73,106.5 52.97,0 95.94,43 95.94,95.9 0,53 -42.97,96 -95.94,96 -140.34,0 -258.52,-91.5 -301.46,-217.5 -11.02,-32.3 -18.33,-66.3 -18.33,-102.3 0,-176.3 143.47,-319.8 319.79,-319.8 h 72.08 v -106.8 c 0,-53 43,-96 95.94,-96 52.96,0 95.93,43 95.93,96 v 106.8 h 2142.57 v -106.8 c 0,-53 43,-96 95.9,-96 53,0 96,43 96,96 v 106.8 h 72 c 176.3,0 319.8,143.5 319.8,319.8 0,36 -7.3,69.9 -18.3,102.2 -42.9,126.1 -161.2,217.6 -301.5,217.6 v 0" /></g></g></svg>