<?xml version="1.0" encoding="UTF-8" standalone="no"?>
<svg
   xmlns:dc="http://purl.org/dc/elements/1.1/"
   xmlns:cc="http://creativecommons.org/ns#"
   xmlns:rdf="http://www.w3.org/1999/02/22-rdf-syntax-ns#"
   xmlns:svg="http://www.w3.org/2000/svg"
   xmlns="http://www.w3.org/2000/svg"
   viewBox="0 0 2718.6667 2718.6667"
   height="2718.6667"
   width="2718.6667"
   xml:space="preserve"
   id="svg2"
   version="1.1"><metadata
     id="metadata8"><rdf:RDF><cc:Work
         rdf:about=""><dc:format>image/svg+xml</dc:format><dc:type
           rdf:resource="http://purl.org/dc/dcmitype/StillImage" /></cc:Work></rdf:RDF></metadata><defs
     id="defs6"><clipPath
       id="clipPath20"
       clipPathUnits="userSpaceOnUse"><path
         id="path18"
         d="M 0,20389.4 H 20375 V 85.4023 H 0 Z" /></clipPath><clipPath
       id="clipPath610"
       clipPathUnits="userSpaceOnUse"><path
         id="path608"
         d="m 7720.48,15292.5 v -8156 h 4949.02 v 8156 z" /></clipPath><clipPath
       id="clipPath628"
       clipPathUnits="userSpaceOnUse"><path
         id="path626"
         d="m 7720.48,15292.5 v -8156 h 4949.02 v 8156 z" /></clipPath><clipPath
       id="clipPath642"
       clipPathUnits="userSpaceOnUse"><path
         id="path640"
         d="m 7720.48,15292.5 v -8156 h 4949.02 v 8156 z" /></clipPath><clipPath
       id="clipPath656"
       clipPathUnits="userSpaceOnUse"><path
         id="path654"
         d="m 7720.48,15292.5 v -8156 h 4949.02 v 8156 z" /></clipPath></defs><g
     transform="matrix(1.3333333,0,0,-1.3333333,0,2718.6667)"
     id="g10"><g
       transform="scale(0.1)"
       id="g12"><g
         id="g14"><g
           clip-path="url(#clipPath20)"
           id="g16"><g
             transform="scale(1.25092)"
             id="g22"><path
               id="path24"
               style="fill:#e2e0e0;fill-opacity:1;fill-rule:nonzero;stroke:none"
               d="M 815.4,15484.6 H 0.0031227 V 16300 H 815.4 v -815.4 0" /></g><g
             transform="scale(1.25092)"
             id="g26"><path
               id="path28"
               style="fill:#e2e0e0;fill-opacity:1;fill-rule:nonzero;stroke:none"
               d="m 2446.2,15484.6 h -815.4 v 815.4 h 815.4 v -815.4 0" /></g><g
             transform="scale(1.25092)"
             id="g30"><path
               id="path32"
               style="fill:#e2e0e0;fill-opacity:1;fill-rule:nonzero;stroke:none"
               d="M 4077,15484.6 H 3261.6 V 16300 H 4077 v -815.4 0" /></g><g
             transform="scale(1.25092)"
             id="g34"><path
               id="path36"
               style="fill:#e2e0e0;fill-opacity:1;fill-rule:nonzero;stroke:none"
               d="m 5707.8,15484.6 h -815.4 v 815.4 h 815.4 v -815.4 0" /></g><g
             transform="scale(1.25092)"
             id="g38"><path
               id="path40"
               style="fill:#e2e0e0;fill-opacity:1;fill-rule:nonzero;stroke:none"
               d="m 7338.6,15484.6 h -815.4 v 815.4 h 815.4 v -815.4 0" /></g><g
             transform="scale(1.25092)"
             id="g42"><path
               id="path44"
               style="fill:#e2e0e0;fill-opacity:1;fill-rule:nonzero;stroke:none"
               d="M 8969.4,15484.6 H 8154 v 815.4 h 815.4 v -815.4 0" /></g><g
             transform="scale(1.25092)"
             id="g46"><path
               id="path48"
               style="fill:#e2e0e0;fill-opacity:1;fill-rule:nonzero;stroke:none"
               d="m 10600.2,15484.6 h -815.4 v 815.4 h 815.4 v -815.4 0" /></g><g
             transform="scale(1.25092)"
             id="g50"><path
               id="path52"
               style="fill:#e2e0e0;fill-opacity:1;fill-rule:nonzero;stroke:none"
               d="m 12231,15484.6 h -815.4 v 815.4 h 815.4 v -815.4 0" /></g><g
             transform="scale(1.25092)"
             id="g54"><path
               id="path56"
               style="fill:#e2e0e0;fill-opacity:1;fill-rule:nonzero;stroke:none"
               d="m 13861.8,15484.6 h -815.4 v 815.4 h 815.4 v -815.4 0" /></g><g
             transform="scale(1.25092)"
             id="g58"><path
               id="path60"
               style="fill:#e2e0e0;fill-opacity:1;fill-rule:nonzero;stroke:none"
               d="m 15492.6,15484.6 h -815.4 v 815.4 h 815.4 v -815.4 0" /></g></g></g><g
         transform="scale(1.18868)"
         id="g62"><path
           id="path64"
           style="fill:#e2e0e0;fill-opacity:1;fill-rule:nonzero;stroke:none"
           d="M 1720.38,15441.9 H 862.287 v 858.1 h 858.093 v -858.1 0" /></g><g
         transform="scale(1.18868)"
         id="g66"><path
           id="path68"
           style="fill:#e2e0e0;fill-opacity:1;fill-rule:nonzero;stroke:none"
           d="m 3436.58,15441.9 h -858.1 v 858.1 h 858.1 v -858.1 0" /></g><g
         transform="scale(1.18868)"
         id="g70"><path
           id="path72"
           style="fill:#e2e0e0;fill-opacity:1;fill-rule:nonzero;stroke:none"
           d="m 5152.77,15441.9 h -858.09 v 858.1 h 858.09 v -858.1 0" /></g><g
         transform="scale(1.18868)"
         id="g74"><path
           id="path76"
           style="fill:#e2e0e0;fill-opacity:1;fill-rule:nonzero;stroke:none"
           d="m 6868.97,15441.9 h -858.1 v 858.1 h 858.1 v -858.1 0" /></g><g
         transform="scale(1.18868)"
         id="g78"><path
           id="path80"
           style="fill:#e2e0e0;fill-opacity:1;fill-rule:nonzero;stroke:none"
           d="m 8585.18,15441.9 h -858.12 v 858.1 h 858.12 v -858.1 0" /></g><g
         transform="scale(1.18868)"
         id="g82"><path
           id="path84"
           style="fill:#e2e0e0;fill-opacity:1;fill-rule:nonzero;stroke:none"
           d="m 10301.4,15441.9 h -858.13 v 858.1 h 858.13 v -858.1 0" /></g><g
         transform="scale(1.18868)"
         id="g86"><path
           id="path88"
           style="fill:#e2e0e0;fill-opacity:1;fill-rule:nonzero;stroke:none"
           d="m 12017.6,15441.9 h -858.1 v 858.1 h 858.1 v -858.1 0" /></g><g
         transform="scale(1.18868)"
         id="g90"><path
           id="path92"
           style="fill:#e2e0e0;fill-opacity:1;fill-rule:nonzero;stroke:none"
           d="m 13733.8,15441.9 h -858.1 v 858.1 h 858.1 v -858.1 0" /></g><g
         transform="scale(1.18868)"
         id="g94"><path
           id="path96"
           style="fill:#e2e0e0;fill-opacity:1;fill-rule:nonzero;stroke:none"
           d="m 15450,15441.9 h -858.1 v 858.1 h 858.1 v -858.1 0" /></g><g
         transform="scale(1.25)"
         id="g98"><path
           id="path100"
           style="fill:#e2e0e0;fill-opacity:1;fill-rule:nonzero;stroke:none"
           d="m 16300,14684.3 h -800 v 816 h 800 v -816 0" /></g><g
         transform="scale(1.12638)"
         id="g102"><path
           id="path104"
           style="fill:#e2e0e0;fill-opacity:1;fill-rule:nonzero;stroke:none"
           d="M 914.434,15394.4 H 8.878 v 905.6 h 905.556 v -905.6 0" /></g><g
         transform="scale(1.12638)"
         id="g106"><path
           id="path108"
           style="fill:#e2e0e0;fill-opacity:1;fill-rule:nonzero;stroke:none"
           d="m 2725.54,15394.4 h -905.55 v 905.6 h 905.55 v -905.6 0" /></g><g
         transform="scale(1.12638)"
         id="g110"><path
           id="path112"
           style="fill:#e2e0e0;fill-opacity:1;fill-rule:nonzero;stroke:none"
           d="M 4536.66,15394.4 H 3631.1 v 905.6 h 905.56 v -905.6 0" /></g><g
         transform="scale(1.12638)"
         id="g114"><path
           id="path116"
           style="fill:#e2e0e0;fill-opacity:1;fill-rule:nonzero;stroke:none"
           d="m 6347.77,15394.4 h -905.56 v 905.6 h 905.56 v -905.6 0" /></g><g
         transform="scale(1.12638)"
         id="g118"><path
           id="path120"
           style="fill:#e2e0e0;fill-opacity:1;fill-rule:nonzero;stroke:none"
           d="m 8158.88,15394.4 h -905.56 v 905.6 h 905.56 v -905.6 0" /></g><g
         transform="scale(1.12638)"
         id="g122"><path
           id="path124"
           style="fill:#e2e0e0;fill-opacity:1;fill-rule:nonzero;stroke:none"
           d="m 9969.99,15394.4 h -905.56 v 905.6 h 905.56 v -905.6 0" /></g><g
         transform="scale(1.12638)"
         id="g126"><path
           id="path128"
           style="fill:#e2e0e0;fill-opacity:1;fill-rule:nonzero;stroke:none"
           d="m 11781.1,15394.4 h -905.6 v 905.6 h 905.6 v -905.6 0" /></g><g
         transform="scale(1.12638)"
         id="g130"><path
           id="path132"
           style="fill:#e2e0e0;fill-opacity:1;fill-rule:nonzero;stroke:none"
           d="m 13592.2,15394.4 h -905.5 v 905.6 h 905.5 v -905.6 0" /></g><g
         transform="scale(1.12638)"
         id="g134"><path
           id="path136"
           style="fill:#e2e0e0;fill-opacity:1;fill-rule:nonzero;stroke:none"
           d="m 15403.3,15394.4 h -905.5 v 905.6 h 905.5 v -905.6 0" /></g><g
         transform="scale(1.18957)"
         id="g138"><path
           id="path140"
           style="fill:#e2e0e0;fill-opacity:1;fill-rule:nonzero;stroke:none"
           d="m 16300,14576.7 h -857.5 v 857.4 h 857.5 v -857.4 0" /></g><g
         transform="scale(1.06414)"
         id="g142"><path
           id="path144"
           style="fill:#e2e0e0;fill-opacity:1;fill-rule:nonzero;stroke:none"
           d="M 1921.73,15341.5 H 963.204 v 958.5 h 958.526 v -958.5 0" /></g><g
         transform="scale(1.06414)"
         id="g146"><path
           id="path148"
           style="fill:#e2e0e0;fill-opacity:1;fill-rule:nonzero;stroke:none"
           d="m 3838.77,15341.5 h -958.52 v 958.5 h 958.52 v -958.5 0" /></g><g
         transform="scale(1.06414)"
         id="g150"><path
           id="path152"
           style="fill:#e2e0e0;fill-opacity:1;fill-rule:nonzero;stroke:none"
           d="M 5755.82,15341.5 H 4797.3 v 958.5 h 958.52 v -958.5 0" /></g><g
         transform="scale(1.06414)"
         id="g154"><path
           id="path156"
           style="fill:#e2e0e0;fill-opacity:1;fill-rule:nonzero;stroke:none"
           d="m 7672.87,15341.5 h -958.53 v 958.5 h 958.53 v -958.5 0" /></g><g
         transform="scale(1.06414)"
         id="g158"><path
           id="path160"
           style="fill:#e2e0e0;fill-opacity:1;fill-rule:nonzero;stroke:none"
           d="m 9589.93,15341.5 h -958.54 v 958.5 h 958.54 v -958.5 0" /></g><g
         transform="scale(1.06414)"
         id="g162"><path
           id="path164"
           style="fill:#e2e0e0;fill-opacity:1;fill-rule:nonzero;stroke:none"
           d="m 11507,15341.5 h -958.5 v 958.5 h 958.5 v -958.5 0" /></g><g
         transform="scale(1.06414)"
         id="g166"><path
           id="path168"
           style="fill:#e2e0e0;fill-opacity:1;fill-rule:nonzero;stroke:none"
           d="m 13424,15341.5 h -958.5 v 958.5 h 958.5 v -958.5 0" /></g><g
         transform="scale(1.06414)"
         id="g170"><path
           id="path172"
           style="fill:#e2e0e0;fill-opacity:1;fill-rule:nonzero;stroke:none"
           d="m 15341.1,15341.5 h -958.5 v 958.5 h 958.5 v -958.5 0" /></g><g
         transform="scale(1.12669)"
         id="g174"><path
           id="path176"
           style="fill:#e2e0e0;fill-opacity:1;fill-rule:nonzero;stroke:none"
           d="m 16300,14489.8 h -905.3 v 905.3 h 905.3 v -905.3 0" /></g><g
         transform="scale(1.25)"
         id="g178"><path
           id="path180"
           style="fill:#e2e0e0;fill-opacity:1;fill-rule:nonzero;stroke:none"
           d="m 16300,13060.3 h -800 v 816 h 800 v -816 0" /></g><g
         transform="scale(1.00184)"
         id="g182"><path
           id="path184"
           style="fill:#e2e0e0;fill-opacity:1;fill-rule:nonzero;stroke:none"
           d="M 1038.09,15281.9 H 19.9672 V 16300 H 1038.09 v -1018.1 0" /></g><g
         transform="scale(1.00184)"
         id="g186"><path
           id="path188"
           style="fill:#e2e0e0;fill-opacity:1;fill-rule:nonzero;stroke:none"
           d="M 3074.34,15281.9 H 2056.22 V 16300 h 1018.12 v -1018.1 0" /></g><g
         transform="scale(1.00184)"
         id="g190"><path
           id="path192"
           style="fill:#e2e0e0;fill-opacity:1;fill-rule:nonzero;stroke:none"
           d="M 5110.59,15281.9 H 4092.47 V 16300 h 1018.12 v -1018.1 0" /></g><g
         transform="scale(1.00184)"
         id="g194"><path
           id="path196"
           style="fill:#e2e0e0;fill-opacity:1;fill-rule:nonzero;stroke:none"
           d="M 7146.85,15281.9 H 6128.72 V 16300 h 1018.13 v -1018.1 0" /></g><g
         transform="scale(1.00184)"
         id="g198"><path
           id="path200"
           style="fill:#e2e0e0;fill-opacity:1;fill-rule:nonzero;stroke:none"
           d="M 9183.1,15281.9 H 8164.97 V 16300 H 9183.1 v -1018.1 0" /></g><g
         transform="scale(1.00184)"
         id="g202"><path
           id="path204"
           style="fill:#e2e0e0;fill-opacity:1;fill-rule:nonzero;stroke:none"
           d="M 11219.4,15281.9 H 10201.2 V 16300 h 1018.2 v -1018.1 0" /></g><g
         transform="scale(1.00184)"
         id="g206"><path
           id="path208"
           style="fill:#e2e0e0;fill-opacity:1;fill-rule:nonzero;stroke:none"
           d="M 13255.6,15281.9 H 12237.5 V 16300 h 1018.1 v -1018.1 0" /></g><g
         transform="scale(1.00184)"
         id="g210"><path
           id="path212"
           style="fill:#e2e0e0;fill-opacity:1;fill-rule:nonzero;stroke:none"
           d="M 15291.9,15281.9 H 14273.7 V 16300 h 1018.2 v -1018.1 0" /></g><g
         transform="scale(1.06503)"
         id="g214"><path
           id="path216"
           style="fill:#e2e0e0;fill-opacity:1;fill-rule:nonzero;stroke:none"
           d="m 16300,14375.2 h -957.7 v 957.7 h 957.7 v -957.7 0" /></g><g
         transform="scale(1.19018)"
         id="g218"><path
           id="path220"
           style="fill:#e2e0e0;fill-opacity:1;fill-rule:nonzero;stroke:none"
           d="m 16300,12863.6 h -857 v 857 h 857 v -857 0" /></g><path
         id="path222"
         style="fill:#e2e0e0;fill-opacity:1;fill-rule:nonzero;stroke:none"
         d="m 2044.98,14295.4 h -1020 v 1020 h 1020 v -1020 0" /><path
         id="path224"
         style="fill:#e2e0e0;fill-opacity:1;fill-rule:nonzero;stroke:none"
         d="m 4084.98,14295.4 h -1020 v 1020 h 1020 v -1020 0" /><path
         id="path226"
         style="fill:#e2e0e0;fill-opacity:1;fill-rule:nonzero;stroke:none"
         d="m 6124.98,14295.4 h -1020 v 1020 h 1020 v -1020 0" /><path
         id="path228"
         style="fill:#e2e0e0;fill-opacity:1;fill-rule:nonzero;stroke:none"
         d="m 8164.98,14295.4 h -1020 v 1020 h 1020 v -1020 0" /><path
         id="path230"
         style="fill:#e2e0e0;fill-opacity:1;fill-rule:nonzero;stroke:none"
         d="M 10205,14295.4 H 9184.98 v 1020 H 10205 v -1020 0" /><path
         id="path232"
         style="fill:#e2e0e0;fill-opacity:1;fill-rule:nonzero;stroke:none"
         d="m 12245,14295.4 h -1020 v 1020 h 1020 v -1020 0" /><path
         id="path234"
         style="fill:#e2e0e0;fill-opacity:1;fill-rule:nonzero;stroke:none"
         d="m 14285,14295.4 h -1020 v 1020 h 1020 v -1020 0" /><g
         transform="scale(1.00153)"
         id="g236"><path
           id="path238"
           style="fill:#e2e0e0;fill-opacity:1;fill-rule:nonzero;stroke:none"
           d="M 16300,14273.5 H 15281.6 V 15292 H 16300 v -1018.5 0" /></g><g
         transform="scale(1.12669)"
         id="g240"><path
           id="path242"
           style="fill:#e2e0e0;fill-opacity:1;fill-rule:nonzero;stroke:none"
           d="m 16300,12688 h -905.3 v 905.3 h 905.3 v -905.3 0" /></g><g
         transform="scale(1.25)"
         id="g244"><path
           id="path246"
           style="fill:#e2e0e0;fill-opacity:1;fill-rule:nonzero;stroke:none"
           d="m 16300,11436.3 h -800 v 816 h 800 v -816 0" /></g><path
         id="path248"
         style="fill:#e2e0e0;fill-opacity:1;fill-rule:nonzero;stroke:none"
         d="M 1050,13280 H 30.0039 v 1020 H 1050 v -1020 0" /><path
         id="path250"
         style="fill:#e2e0e0;fill-opacity:1;fill-rule:nonzero;stroke:none"
         d="M 3090,13280 H 2070 v 1020 h 1020 v -1020 0" /><path
         id="path252"
         style="fill:#e2e0e0;fill-opacity:1;fill-rule:nonzero;stroke:none"
         d="M 5130,13280 H 4110 v 1020 h 1020 v -1020 0" /><path
         id="path254"
         style="fill:#e2e0e0;fill-opacity:1;fill-rule:nonzero;stroke:none"
         d="M 7170,13280 H 6150 v 1020 h 1020 v -1020 0" /><path
         id="path256"
         style="fill:#e2e0e0;fill-opacity:1;fill-rule:nonzero;stroke:none"
         d="M 9210,13280 H 8190 v 1020 h 1020 v -1020 0" /><path
         id="path258"
         style="fill:#e2e0e0;fill-opacity:1;fill-rule:nonzero;stroke:none"
         d="m 11250,13280 h -1020 v 1020 h 1020 v -1020 0" /><path
         id="path260"
         style="fill:#e2e0e0;fill-opacity:1;fill-rule:nonzero;stroke:none"
         d="m 13290,13280 h -1020 v 1020 h 1020 v -1020 0" /><path
         id="path262"
         style="fill:#e2e0e0;fill-opacity:1;fill-rule:nonzero;stroke:none"
         d="m 15330,13280 h -1020 v 1020 h 1020 v -1020 0" /><g
         transform="scale(1.06564)"
         id="g264"><path
           id="path266"
           style="fill:#e2e0e0;fill-opacity:1;fill-rule:nonzero;stroke:none"
           d="m 16300,12461.9 h -957.2 v 957.2 h 957.2 v -957.2 0" /></g><g
         transform="scale(1.1908)"
         id="g268"><path
           id="path270"
           style="fill:#e2e0e0;fill-opacity:1;fill-rule:nonzero;stroke:none"
           d="m 16300,11152.2 h -856.6 v 856.6 h 856.6 v -856.6 0" /></g><path
         id="path272"
         style="fill:#e2e0e0;fill-opacity:1;fill-rule:nonzero;stroke:none"
         d="m 2044.98,12265.4 h -1020 v 1020 h 1020 v -1020 0" /><path
         id="path274"
         style="fill:#e2e0e0;fill-opacity:1;fill-rule:nonzero;stroke:none"
         d="m 4084.98,12265.4 h -1020 v 1020 h 1020 v -1020 0" /><path
         id="path276"
         style="fill:#e2e0e0;fill-opacity:1;fill-rule:nonzero;stroke:none"
         d="m 6124.98,12265.4 h -1020 v 1020 h 1020 v -1020 0" /><path
         id="path278"
         style="fill:#e2e0e0;fill-opacity:1;fill-rule:nonzero;stroke:none"
         d="m 8164.98,12265.4 h -1020 v 1020 h 1020 v -1020 0" /><path
         id="path280"
         style="fill:#e2e0e0;fill-opacity:1;fill-rule:nonzero;stroke:none"
         d="M 10205,12265.4 H 9184.98 v 1020 H 10205 v -1020 0" /><path
         id="path282"
         style="fill:#e2e0e0;fill-opacity:1;fill-rule:nonzero;stroke:none"
         d="m 12245,12265.4 h -1020 v 1020 h 1020 v -1020 0" /><path
         id="path284"
         style="fill:#e2e0e0;fill-opacity:1;fill-rule:nonzero;stroke:none"
         d="m 14285,12265.4 h -1020 v 1020 h 1020 v -1020 0" /><g
         transform="scale(1.00153)"
         id="g286"><path
           id="path288"
           style="fill:#e2e0e0;fill-opacity:1;fill-rule:nonzero;stroke:none"
           d="m 16300,12246.6 h -1018.4 v 1018.5 H 16300 v -1018.5 0" /></g><g
         transform="scale(1.12669)"
         id="g290"><path
           id="path292"
           style="fill:#e2e0e0;fill-opacity:1;fill-rule:nonzero;stroke:none"
           d="m 16300,10886.3 h -905.3 v 905.3 h 905.3 v -905.3 0" /></g><g
         transform="scale(1.25)"
         id="g294"><path
           id="path296"
           style="fill:#e2e0e0;fill-opacity:1;fill-rule:nonzero;stroke:none"
           d="m 16300,9812.34 h -800 v 815.96 h 800 v -815.96 0" /></g><path
         id="path298"
         style="fill:#e2e0e0;fill-opacity:1;fill-rule:nonzero;stroke:none"
         d="M 1020,11250 H 0.00390625 v 1020 H 1020 v -1020 0" /><path
         id="path300"
         style="fill:#e2e0e0;fill-opacity:1;fill-rule:nonzero;stroke:none"
         d="M 3060,11250 H 2040 v 1020 h 1020 v -1020 0" /><path
         id="path302"
         style="fill:#e2e0e0;fill-opacity:1;fill-rule:nonzero;stroke:none"
         d="M 5100,11250 H 4080 v 1020 h 1020 v -1020 0" /><path
         id="path304"
         style="fill:#e2e0e0;fill-opacity:1;fill-rule:nonzero;stroke:none"
         d="M 7140,11250 H 6120 v 1020 h 1020 v -1020 0" /><path
         id="path306"
         style="fill:#e2e0e0;fill-opacity:1;fill-rule:nonzero;stroke:none"
         d="M 9180,11250 H 8160 v 1020 h 1020 v -1020 0" /><path
         id="path308"
         style="fill:#e2e0e0;fill-opacity:1;fill-rule:nonzero;stroke:none"
         d="m 11220,11250 h -1020 v 1020 h 1020 v -1020 0" /><path
         id="path310"
         style="fill:#e2e0e0;fill-opacity:1;fill-rule:nonzero;stroke:none"
         d="m 13260,11250 h -1020 v 1020 h 1020 v -1020 0" /><path
         id="path312"
         style="fill:#e2e0e0;fill-opacity:1;fill-rule:nonzero;stroke:none"
         d="m 15300,11250 h -1020 v 1020 h 1020 v -1020 0" /><g
         transform="scale(1.0638)"
         id="g314"><path
           id="path316"
           style="fill:#e2e0e0;fill-opacity:1;fill-rule:nonzero;stroke:none"
           d="m 16300,10575.3 h -958.8 v 958.8 h 958.8 v -958.8 0" /></g><g
         transform="scale(1.18896)"
         id="g318"><path
           id="path320"
           style="fill:#e2e0e0;fill-opacity:1;fill-rule:nonzero;stroke:none"
           d="m 16300,9462.07 h -857.9 V 10320 h 857.9 v -857.93 0" /></g><path
         id="path322"
         style="fill:#e2e0e0;fill-opacity:1;fill-rule:nonzero;stroke:none"
         d="m 2044.98,10235.4 h -1020 v 1020 h 1020 v -1020 0" /><path
         id="path324"
         style="fill:#e2e0e0;fill-opacity:1;fill-rule:nonzero;stroke:none"
         d="m 4084.98,10235.4 h -1020 v 1020 h 1020 v -1020 0" /><path
         id="path326"
         style="fill:#e2e0e0;fill-opacity:1;fill-rule:nonzero;stroke:none"
         d="m 6124.98,10235.4 h -1020 v 1020 h 1020 v -1020 0" /><path
         id="path328"
         style="fill:#e2e0e0;fill-opacity:1;fill-rule:nonzero;stroke:none"
         d="m 8164.98,10235.4 h -1020 v 1020 h 1020 v -1020 0" /><path
         id="path330"
         style="fill:#e2e0e0;fill-opacity:1;fill-rule:nonzero;stroke:none"
         d="M 10205,10235.4 H 9184.98 v 1020 H 10205 v -1020 0" /><path
         id="path332"
         style="fill:#e2e0e0;fill-opacity:1;fill-rule:nonzero;stroke:none"
         d="m 12245,10235.4 h -1020 v 1020 h 1020 v -1020 0" /><path
         id="path334"
         style="fill:#e2e0e0;fill-opacity:1;fill-rule:nonzero;stroke:none"
         d="m 14285,10235.4 h -1020 v 1020 h 1020 v -1020 0" /><g
         transform="scale(1.00153)"
         id="g336"><path
           id="path338"
           style="fill:#e2e0e0;fill-opacity:1;fill-rule:nonzero;stroke:none"
           d="m 16300,10219.7 h -1018.4 v 1018.5 H 16300 v -1018.5 0" /></g><g
         transform="scale(1.12669)"
         id="g340"><path
           id="path342"
           style="fill:#e2e0e0;fill-opacity:1;fill-rule:nonzero;stroke:none"
           d="m 16300,9084.51 h -905.3 v 905.33 h 905.3 v -905.33 0" /></g><g
         transform="scale(1.25)"
         id="g344"><path
           id="path346"
           style="fill:#e2e0e0;fill-opacity:1;fill-rule:nonzero;stroke:none"
           d="m 16300,8188.32 h -800 v 816.02 h 800 v -816.02 0" /></g><path
         id="path348"
         style="fill:#e2e0e0;fill-opacity:1;fill-rule:nonzero;stroke:none"
         d="M 1020,9220 H 0.00390625 v 1020 H 1020 v -1020 0" /><path
         id="path350"
         style="fill:#e2e0e0;fill-opacity:1;fill-rule:nonzero;stroke:none"
         d="M 3060,9220 H 2040 v 1020 h 1020 v -1020 0" /><path
         id="path352"
         style="fill:#e2e0e0;fill-opacity:1;fill-rule:nonzero;stroke:none"
         d="M 5100,9220 H 4080 v 1020 h 1020 v -1020 0" /><path
         id="path354"
         style="fill:#e2e0e0;fill-opacity:1;fill-rule:nonzero;stroke:none"
         d="M 7140,9220 H 6120 v 1020 h 1020 v -1020 0" /><path
         id="path356"
         style="fill:#e2e0e0;fill-opacity:1;fill-rule:nonzero;stroke:none"
         d="M 9180,9220 H 8160 v 1020 h 1020 v -1020 0" /><path
         id="path358"
         style="fill:#e2e0e0;fill-opacity:1;fill-rule:nonzero;stroke:none"
         d="m 11220,9220 h -1020 v 1020 h 1020 v -1020 0" /><path
         id="path360"
         style="fill:#e2e0e0;fill-opacity:1;fill-rule:nonzero;stroke:none"
         d="m 13260,9220 h -1020 v 1020 h 1020 v -1020 0" /><path
         id="path362"
         style="fill:#e2e0e0;fill-opacity:1;fill-rule:nonzero;stroke:none"
         d="m 15300,9220 h -1020 v 1020 h 1020 v -1020 0" /><g
         transform="scale(1.0638)"
         id="g364"><path
           id="path366"
           style="fill:#e2e0e0;fill-opacity:1;fill-rule:nonzero;stroke:none"
           d="m 16300,8667.01 h -958.8 v 958.83 h 958.8 v -958.83 0" /></g><g
         transform="scale(1.18896)"
         id="g368"><path
           id="path370"
           style="fill:#e2e0e0;fill-opacity:1;fill-rule:nonzero;stroke:none"
           d="m 16300,7754.7 h -857.9 v 857.89 h 857.9 v -857.89 0" /></g><path
         id="path372"
         style="fill:#e2e0e0;fill-opacity:1;fill-rule:nonzero;stroke:none"
         d="m 2044.98,8205.4 h -1020 v 1020 h 1020 v -1020 0" /><path
         id="path374"
         style="fill:#e2e0e0;fill-opacity:1;fill-rule:nonzero;stroke:none"
         d="m 4084.98,8205.4 h -1020 v 1020 h 1020 v -1020 0" /><path
         id="path376"
         style="fill:#e2e0e0;fill-opacity:1;fill-rule:nonzero;stroke:none"
         d="m 6124.98,8205.4 h -1020 v 1020 h 1020 v -1020 0" /><path
         id="path378"
         style="fill:#e2e0e0;fill-opacity:1;fill-rule:nonzero;stroke:none"
         d="m 8164.98,8205.4 h -1020 v 1020 h 1020 v -1020 0" /><path
         id="path380"
         style="fill:#e2e0e0;fill-opacity:1;fill-rule:nonzero;stroke:none"
         d="M 10205,8205.4 H 9184.98 v 1020 H 10205 v -1020 0" /><path
         id="path382"
         style="fill:#e2e0e0;fill-opacity:1;fill-rule:nonzero;stroke:none"
         d="m 12245,8205.4 h -1020 v 1020 h 1020 v -1020 0" /><path
         id="path384"
         style="fill:#e2e0e0;fill-opacity:1;fill-rule:nonzero;stroke:none"
         d="m 14285,8205.4 h -1020 v 1020 h 1020 v -1020 0" /><g
         transform="scale(1.00153)"
         id="g386"><path
           id="path388"
           style="fill:#e2e0e0;fill-opacity:1;fill-rule:nonzero;stroke:none"
           d="M 16300,8192.84 H 15281.6 V 9211.27 H 16300 v -1018.43 0" /></g><g
         transform="scale(1.12669)"
         id="g390"><path
           id="path392"
           style="fill:#e2e0e0;fill-opacity:1;fill-rule:nonzero;stroke:none"
           d="m 16300,7282.77 h -905.3 v 905.31 h 905.3 v -905.31 0" /></g><g
         transform="scale(1.25)"
         id="g394"><path
           id="path396"
           style="fill:#e2e0e0;fill-opacity:1;fill-rule:nonzero;stroke:none"
           d="m 16300,6564.32 h -800 v 816 h 800 v -816 0" /></g><path
         id="path398"
         style="fill:#e2e0e0;fill-opacity:1;fill-rule:nonzero;stroke:none"
         d="M 1020,7190 H 0.00390625 V 8210 H 1020 v -1020 0" /><path
         id="path400"
         style="fill:#e2e0e0;fill-opacity:1;fill-rule:nonzero;stroke:none"
         d="M 3060,7190 H 2040 v 1020 h 1020 v -1020 0" /><path
         id="path402"
         style="fill:#e2e0e0;fill-opacity:1;fill-rule:nonzero;stroke:none"
         d="M 5100,7190 H 4080 v 1020 h 1020 v -1020 0" /><path
         id="path404"
         style="fill:#e2e0e0;fill-opacity:1;fill-rule:nonzero;stroke:none"
         d="M 7140,7190 H 6120 v 1020 h 1020 v -1020 0" /><path
         id="path406"
         style="fill:#e2e0e0;fill-opacity:1;fill-rule:nonzero;stroke:none"
         d="M 9180,7190 H 8160 v 1020 h 1020 v -1020 0" /><path
         id="path408"
         style="fill:#e2e0e0;fill-opacity:1;fill-rule:nonzero;stroke:none"
         d="m 11220,7190 h -1020 v 1020 h 1020 v -1020 0" /><path
         id="path410"
         style="fill:#e2e0e0;fill-opacity:1;fill-rule:nonzero;stroke:none"
         d="m 13260,7190 h -1020 v 1020 h 1020 v -1020 0" /><path
         id="path412"
         style="fill:#e2e0e0;fill-opacity:1;fill-rule:nonzero;stroke:none"
         d="m 15300,7190 h -1020 v 1020 h 1020 v -1020 0" /><g
         transform="scale(1.0638)"
         id="g414"><path
           id="path416"
           style="fill:#e2e0e0;fill-opacity:1;fill-rule:nonzero;stroke:none"
           d="m 16300,6758.77 h -958.8 v 958.82 h 958.8 v -958.82 0" /></g><g
         transform="scale(1.18896)"
         id="g418"><path
           id="path420"
           style="fill:#e2e0e0;fill-opacity:1;fill-rule:nonzero;stroke:none"
           d="m 16300,6047.32 h -857.9 v 857.89 h 857.9 v -857.89 0" /></g><path
         id="path422"
         style="fill:#e2e0e0;fill-opacity:1;fill-rule:nonzero;stroke:none"
         d="m 2044.98,6175.4 h -1020 v 1020 h 1020 v -1020 0" /><path
         id="path424"
         style="fill:#e2e0e0;fill-opacity:1;fill-rule:nonzero;stroke:none"
         d="m 4084.98,6175.4 h -1020 v 1020 h 1020 v -1020 0" /><path
         id="path426"
         style="fill:#e2e0e0;fill-opacity:1;fill-rule:nonzero;stroke:none"
         d="m 6124.98,6175.4 h -1020 v 1020 h 1020 v -1020 0" /><path
         id="path428"
         style="fill:#e2e0e0;fill-opacity:1;fill-rule:nonzero;stroke:none"
         d="m 8164.98,6175.4 h -1020 v 1020 h 1020 v -1020 0" /><path
         id="path430"
         style="fill:#e2e0e0;fill-opacity:1;fill-rule:nonzero;stroke:none"
         d="M 10205,6175.4 H 9184.98 v 1020 H 10205 v -1020 0" /><path
         id="path432"
         style="fill:#e2e0e0;fill-opacity:1;fill-rule:nonzero;stroke:none"
         d="m 12245,6175.4 h -1020 v 1020 h 1020 v -1020 0" /><path
         id="path434"
         style="fill:#e2e0e0;fill-opacity:1;fill-rule:nonzero;stroke:none"
         d="m 14285,6175.4 h -1020 v 1020 h 1020 v -1020 0" /><g
         transform="scale(1.00153)"
         id="g436"><path
           id="path438"
           style="fill:#e2e0e0;fill-opacity:1;fill-rule:nonzero;stroke:none"
           d="M 16300,6165.95 H 15281.6 V 7184.38 H 16300 v -1018.43 0" /></g><g
         transform="scale(1.12669)"
         id="g440"><path
           id="path442"
           style="fill:#e2e0e0;fill-opacity:1;fill-rule:nonzero;stroke:none"
           d="m 16300,5481.03 h -905.3 v 905.31 h 905.3 v -905.31 0" /></g><g
         transform="scale(1.25)"
         id="g444"><path
           id="path446"
           style="fill:#e2e0e0;fill-opacity:1;fill-rule:nonzero;stroke:none"
           d="m 16300,4940.32 h -800 v 816 h 800 v -816 0" /></g><path
         id="path448"
         style="fill:#e2e0e0;fill-opacity:1;fill-rule:nonzero;stroke:none"
         d="M 1020,5160 H 0.00390625 V 6180 H 1020 v -1020 0" /><path
         id="path450"
         style="fill:#e2e0e0;fill-opacity:1;fill-rule:nonzero;stroke:none"
         d="M 3060,5160 H 2040 v 1020 h 1020 v -1020 0" /><path
         id="path452"
         style="fill:#e2e0e0;fill-opacity:1;fill-rule:nonzero;stroke:none"
         d="M 5100,5160 H 4080 v 1020 h 1020 v -1020 0" /><path
         id="path454"
         style="fill:#e2e0e0;fill-opacity:1;fill-rule:nonzero;stroke:none"
         d="M 7140,5160 H 6120 v 1020 h 1020 v -1020 0" /><path
         id="path456"
         style="fill:#e2e0e0;fill-opacity:1;fill-rule:nonzero;stroke:none"
         d="M 9180,5160 H 8160 v 1020 h 1020 v -1020 0" /><path
         id="path458"
         style="fill:#e2e0e0;fill-opacity:1;fill-rule:nonzero;stroke:none"
         d="m 11220,5160 h -1020 v 1020 h 1020 v -1020 0" /><path
         id="path460"
         style="fill:#e2e0e0;fill-opacity:1;fill-rule:nonzero;stroke:none"
         d="m 13260,5160 h -1020 v 1020 h 1020 v -1020 0" /><path
         id="path462"
         style="fill:#e2e0e0;fill-opacity:1;fill-rule:nonzero;stroke:none"
         d="m 15300,5160 h -1020 v 1020 h 1020 v -1020 0" /><g
         transform="scale(1.0638)"
         id="g464"><path
           id="path466"
           style="fill:#e2e0e0;fill-opacity:1;fill-rule:nonzero;stroke:none"
           d="m 16300,4850.52 h -958.8 v 958.82 h 958.8 v -958.82 0" /></g><g
         transform="scale(1.18896)"
         id="g468"><path
           id="path470"
           style="fill:#e2e0e0;fill-opacity:1;fill-rule:nonzero;stroke:none"
           d="m 16300,4339.94 h -857.9 v 857.89 h 857.9 v -857.89 0" /></g><path
         id="path472"
         style="fill:#e2e0e0;fill-opacity:1;fill-rule:nonzero;stroke:none"
         d="m 2044.98,4145.4 h -1020 v 1020 h 1020 v -1020 0" /><path
         id="path474"
         style="fill:#e2e0e0;fill-opacity:1;fill-rule:nonzero;stroke:none"
         d="m 4084.98,4145.4 h -1020 v 1020 h 1020 v -1020 0" /><path
         id="path476"
         style="fill:#e2e0e0;fill-opacity:1;fill-rule:nonzero;stroke:none"
         d="m 6124.98,4145.4 h -1020 v 1020 h 1020 v -1020 0" /><path
         id="path478"
         style="fill:#e2e0e0;fill-opacity:1;fill-rule:nonzero;stroke:none"
         d="m 8164.98,4145.4 h -1020 v 1020 h 1020 v -1020 0" /><path
         id="path480"
         style="fill:#e2e0e0;fill-opacity:1;fill-rule:nonzero;stroke:none"
         d="M 10205,4145.4 H 9184.98 v 1020 H 10205 v -1020 0" /><path
         id="path482"
         style="fill:#e2e0e0;fill-opacity:1;fill-rule:nonzero;stroke:none"
         d="m 12245,4145.4 h -1020 v 1020 h 1020 v -1020 0" /><path
         id="path484"
         style="fill:#e2e0e0;fill-opacity:1;fill-rule:nonzero;stroke:none"
         d="m 14285,4145.4 h -1020 v 1020 h 1020 v -1020 0" /><g
         transform="scale(1.00153)"
         id="g486"><path
           id="path488"
           style="fill:#e2e0e0;fill-opacity:1;fill-rule:nonzero;stroke:none"
           d="M 16300,4139.05 H 15281.6 V 5157.49 H 16300 v -1018.44 0" /></g><g
         transform="scale(1.12669)"
         id="g490"><path
           id="path492"
           style="fill:#e2e0e0;fill-opacity:1;fill-rule:nonzero;stroke:none"
           d="m 16300,3679.28 h -905.3 v 905.31 h 905.3 v -905.31 0" /></g><g
         transform="scale(1.25)"
         id="g494"><path
           id="path496"
           style="fill:#e2e0e0;fill-opacity:1;fill-rule:nonzero;stroke:none"
           d="m 16300,3316.32 h -800 v 816 h 800 v -816 0" /></g><path
         id="path498"
         style="fill:#e2e0e0;fill-opacity:1;fill-rule:nonzero;stroke:none"
         d="M 1020,3130 H 0.00390625 V 4150 H 1020 v -1020 0" /><path
         id="path500"
         style="fill:#e2e0e0;fill-opacity:1;fill-rule:nonzero;stroke:none"
         d="M 3060,3130 H 2040 v 1020 h 1020 v -1020 0" /><path
         id="path502"
         style="fill:#e2e0e0;fill-opacity:1;fill-rule:nonzero;stroke:none"
         d="M 5100,3130 H 4080 v 1020 h 1020 v -1020 0" /><path
         id="path504"
         style="fill:#e2e0e0;fill-opacity:1;fill-rule:nonzero;stroke:none"
         d="M 7140,3130 H 6120 v 1020 h 1020 v -1020 0" /><path
         id="path506"
         style="fill:#e2e0e0;fill-opacity:1;fill-rule:nonzero;stroke:none"
         d="M 9180,3130 H 8160 v 1020 h 1020 v -1020 0" /><path
         id="path508"
         style="fill:#e2e0e0;fill-opacity:1;fill-rule:nonzero;stroke:none"
         d="m 11220,3130 h -1020 v 1020 h 1020 v -1020 0" /><path
         id="path510"
         style="fill:#e2e0e0;fill-opacity:1;fill-rule:nonzero;stroke:none"
         d="m 13260,3130 h -1020 v 1020 h 1020 v -1020 0" /><path
         id="path512"
         style="fill:#e2e0e0;fill-opacity:1;fill-rule:nonzero;stroke:none"
         d="m 15300,3130 h -1020 v 1020 h 1020 v -1020 0" /><g
         transform="scale(1.0638)"
         id="g514"><path
           id="path516"
           style="fill:#e2e0e0;fill-opacity:1;fill-rule:nonzero;stroke:none"
           d="m 16300,2942.27 h -958.8 v 958.83 h 958.8 v -958.83 0" /></g><g
         transform="scale(1.18896)"
         id="g518"><path
           id="path520"
           style="fill:#e2e0e0;fill-opacity:1;fill-rule:nonzero;stroke:none"
           d="m 16300,2632.56 h -857.9 v 857.89 h 857.9 v -857.89 0" /></g><path
         id="path522"
         style="fill:#e2e0e0;fill-opacity:1;fill-rule:nonzero;stroke:none"
         d="m 2044.98,2115.4 h -1020 v 1020 h 1020 v -1020 0" /><path
         id="path524"
         style="fill:#e2e0e0;fill-opacity:1;fill-rule:nonzero;stroke:none"
         d="m 4084.98,2115.4 h -1020 v 1020 h 1020 v -1020 0" /><path
         id="path526"
         style="fill:#e2e0e0;fill-opacity:1;fill-rule:nonzero;stroke:none"
         d="m 6124.98,2115.4 h -1020 v 1020 h 1020 v -1020 0" /><path
         id="path528"
         style="fill:#e2e0e0;fill-opacity:1;fill-rule:nonzero;stroke:none"
         d="m 8164.98,2115.4 h -1020 v 1020 h 1020 v -1020 0" /><path
         id="path530"
         style="fill:#e2e0e0;fill-opacity:1;fill-rule:nonzero;stroke:none"
         d="M 10205,2115.4 H 9184.98 v 1020 H 10205 v -1020 0" /><path
         id="path532"
         style="fill:#e2e0e0;fill-opacity:1;fill-rule:nonzero;stroke:none"
         d="m 12245,2115.4 h -1020 v 1020 h 1020 v -1020 0" /><path
         id="path534"
         style="fill:#e2e0e0;fill-opacity:1;fill-rule:nonzero;stroke:none"
         d="m 14285,2115.4 h -1020 v 1020 h 1020 v -1020 0" /><g
         transform="scale(1.00153)"
         id="g536"><path
           id="path538"
           style="fill:#e2e0e0;fill-opacity:1;fill-rule:nonzero;stroke:none"
           d="M 16300,2112.16 H 15281.6 V 3130.6 H 16300 v -1018.44 0" /></g><g
         transform="scale(1.12669)"
         id="g540"><path
           id="path542"
           style="fill:#e2e0e0;fill-opacity:1;fill-rule:nonzero;stroke:none"
           d="m 16300,1877.54 h -905.3 v 905.31 h 905.3 v -905.31 0" /></g><g
         transform="scale(1.25)"
         id="g544"><path
           id="path546"
           style="fill:#e2e0e0;fill-opacity:1;fill-rule:nonzero;stroke:none"
           d="m 16300,1692.32 h -800 v 816 h 800 v -816 0" /></g><path
         id="path548"
         style="fill:#e2e0e0;fill-opacity:1;fill-rule:nonzero;stroke:none"
         d="M 1020,1100 H 0.00390625 V 2120 H 1020 v -1020 0" /><path
         id="path550"
         style="fill:#e2e0e0;fill-opacity:1;fill-rule:nonzero;stroke:none"
         d="M 3060,1100 H 2040 v 1020 h 1020 v -1020 0" /><path
         id="path552"
         style="fill:#e2e0e0;fill-opacity:1;fill-rule:nonzero;stroke:none"
         d="M 5100,1100 H 4080 v 1020 h 1020 v -1020 0" /><path
         id="path554"
         style="fill:#e2e0e0;fill-opacity:1;fill-rule:nonzero;stroke:none"
         d="M 7140,1100 H 6120 v 1020 h 1020 v -1020 0" /><path
         id="path556"
         style="fill:#e2e0e0;fill-opacity:1;fill-rule:nonzero;stroke:none"
         d="M 9180,1100 H 8160 v 1020 h 1020 v -1020 0" /><path
         id="path558"
         style="fill:#e2e0e0;fill-opacity:1;fill-rule:nonzero;stroke:none"
         d="m 11220,1100 h -1020 v 1020 h 1020 v -1020 0" /><path
         id="path560"
         style="fill:#e2e0e0;fill-opacity:1;fill-rule:nonzero;stroke:none"
         d="m 13260,1100 h -1020 v 1020 h 1020 v -1020 0" /><path
         id="path562"
         style="fill:#e2e0e0;fill-opacity:1;fill-rule:nonzero;stroke:none"
         d="m 15300,1100 h -1020 v 1020 h 1020 v -1020 0" /><g
         transform="scale(1.0638)"
         id="g564"><path
           id="path566"
           style="fill:#e2e0e0;fill-opacity:1;fill-rule:nonzero;stroke:none"
           d="m 16300,1034.03 h -958.8 v 958.82 h 958.8 v -958.82 0" /></g><g
         transform="scale(1.18896)"
         id="g568"><path
           id="path570"
           style="fill:#e2e0e0;fill-opacity:1;fill-rule:nonzero;stroke:none"
           d="m 16300,925.181 h -857.9 v 857.899 h 857.9 v -857.899 0" /></g><path
         id="path572"
         style="fill:#e2e0e0;fill-opacity:1;fill-rule:nonzero;stroke:none"
         d="m 2044.98,85.4023 h -1020 V 1105.4 h 1020 V 85.4023 v 0" /><path
         id="path574"
         style="fill:#e2e0e0;fill-opacity:1;fill-rule:nonzero;stroke:none"
         d="m 4084.98,85.4023 h -1020 V 1105.4 h 1020 V 85.4023 v 0" /><path
         id="path576"
         style="fill:#e2e0e0;fill-opacity:1;fill-rule:nonzero;stroke:none"
         d="m 6124.98,85.4023 h -1020 V 1105.4 h 1020 V 85.4023 v 0" /><path
         id="path578"
         style="fill:#e2e0e0;fill-opacity:1;fill-rule:nonzero;stroke:none"
         d="m 8164.98,85.4023 h -1020 V 1105.4 h 1020 V 85.4023 v 0" /><path
         id="path580"
         style="fill:#e2e0e0;fill-opacity:1;fill-rule:nonzero;stroke:none"
         d="M 10205,85.4023 H 9184.98 V 1105.4 H 10205 V 85.4023 v 0" /><path
         id="path582"
         style="fill:#e2e0e0;fill-opacity:1;fill-rule:nonzero;stroke:none"
         d="M 12245,85.4023 H 11225 V 1105.4 h 1020 V 85.4023 v 0" /><path
         id="path584"
         style="fill:#e2e0e0;fill-opacity:1;fill-rule:nonzero;stroke:none"
         d="M 14285,85.4023 H 13265 V 1105.4 h 1020 V 85.4023 v 0" /><g
         transform="scale(1.00153)"
         id="g586"><path
           id="path588"
           style="fill:#e2e0e0;fill-opacity:1;fill-rule:nonzero;stroke:none"
           d="M 16300,85.2716 H 15281.6 V 1103.71 H 16300 V 85.2716 v 0" /></g><g
         transform="scale(1.12669)"
         id="g590"><path
           id="path592"
           style="fill:#e2e0e0;fill-opacity:1;fill-rule:nonzero;stroke:none"
           d="m 16300,75.7995 h -905.3 V 981.108 h 905.3 v -905.3085 0" /></g><g
         transform="scale(1.25)"
         id="g594"><path
           id="path596"
           style="fill:#e2e0e0;fill-opacity:1;fill-rule:nonzero;stroke:none"
           d="m 16300,68.3219 h -800 V 884.322 h 800 v -816.0001 0" /></g><path
         id="path598"
         style="fill:#8fc1dc;fill-opacity:1;fill-rule:nonzero;stroke:none"
         d="m 9453.47,8087.4 c 374.95,366 441.36,818.1 415.11,1235.8 l -144.36,124.6 c 79.35,-469.9 7.49,-1010.4 -720.96,-1437 C 8817,7821.5 8825.42,7582.7 8859.47,7242 c 0.3,-3.3 0,-6.4 0,-9.6 h 487.12 c -19.55,330.3 -32.58,624.8 106.88,855 v 0" /><path
         id="path600"
         style="fill:#8fc1dc;fill-opacity:1;fill-rule:nonzero;stroke:none"
         d="m 11386.8,8010.8 c -728.4,426.5 -800.3,967.1 -721,1436.9 L 10521.5,9323 c -26.3,-417.6 40.2,-869.7 415.2,-1235.6 139.3,-230.2 126.3,-524.7 106.9,-855 h 487.1 c 0,3.1 -0.3,6.3 0,9.5 33.9,340.8 42.2,579.7 -143.9,768.9 v 0" /><path
         id="path602"
         style="fill:#4462ab;fill-opacity:1;fill-rule:nonzero;stroke:none"
         d="m 10936.7,8087.4 c -375,365.9 -441.5,818 -415.2,1235.6 l -72,-62.1 29.4,-23.2 c 20.3,-16.1 33.3,-39.7 35.9,-65.6 2.7,-25.8 -5.3,-51.6 -22,-71.3 l -224.6,-265.9 c -18.2,-21.6 -45,-33.9 -73.2,-33.9 -28.2,0 -55,12.4 -73.2,33.9 l -224.35,265.9 c -16.74,19.8 -24.73,45.5 -22.11,71.3 2.62,25.8 15.6,49.5 35.95,65.5 l 29.4,23.3 -72.11,62.3 c 26.25,-417.7 -40.16,-869.8 -415.11,-1235.8 -139.46,-230.2 -126.43,-524.7 -106.88,-855 h 1697.01 c 19.4,330.3 32.4,624.8 -106.9,855 v 0" /><g
         id="g604"><g
           clip-path="url(#clipPath610)"
           id="g606"><path
             id="path612"
             style="fill:#35489e;fill-opacity:1;fill-rule:nonzero;stroke:none"
             d="m 9596.02,9942.8 c 46.11,-148.1 98.06,-316.4 128.2,-495 l 144.36,-124.6 72.11,-62.3 195.01,153.9 c 34.8,27.5 83.9,27.5 118.7,0 l 195.1,-153.9 72,62.1 144.3,124.7 c 30.1,178.6 82.1,347 128.1,495 l -536.3,-463.2 c -1.9,-1.7 -4.4,-2.4 -6.5,-3.9 -2.9,-2.1 -5.1,-4.8 -8.2,-6.6 -3.3,-1.8 -6.8,-2.7 -10.2,-4.2 -2.7,-1.1 -5.3,-2.4 -8.1,-3.3 -9.7,-3.2 -19.6,-5.3 -29.6,-5.3 -10,0 -19.9,2.1 -29.6,5.3 -2.8,0.9 -5.3,2.1 -8,3.3 -3.4,1.5 -7,2.4 -10.3,4.2 -3.2,1.8 -5.4,4.7 -8.3,6.8 -2,1.5 -4.5,2.1 -6.4,3.7 l -536.38,463.3 v 0" /><path
             id="path614"
             style="fill:#221e22;fill-opacity:1;fill-rule:nonzero;stroke:none"
             d="m 9003.26,8010.8 c 728.45,426.6 800.31,967.1 720.96,1437 -30.14,178.6 -82.09,346.9 -128.2,495 l -263.86,227.9 c 18.67,-84.2 47.14,-176.3 78.41,-276.6 167.74,-538.4 376.47,-1208.4 -514.16,-1723.8 -6.95,-4 -13.34,-8.9 -19.08,-14.5 -274.96,-269.2 -239.64,-621.8 -208.49,-932.9 5.23,-52.6 51.85,-91.8 104.85,-85.8 49.35,4.9 85.78,46.7 85.78,95.3 0,3.2 0.3,6.3 0,9.6 -34.05,340.7 -42.47,579.5 143.79,768.8 v 0" /></g></g><path
         id="path616"
         style="fill:#221e22;fill-opacity:1;fill-rule:nonzero;stroke:none"
         d="m 10665.8,9447.7 c -79.3,-469.8 -7.4,-1010.4 721,-1436.9 186.1,-189.2 177.8,-428.1 143.9,-768.9 -0.3,-3.2 0,-6.4 0,-9.5 -0.1,-48.7 36.3,-90.3 85.8,-95.3 3.1,-0.3 6.3,-0.4 9.6,-0.4 48.6,0 90.2,36.8 95.3,86.2 31,311.1 66.1,663.8 -208.7,932.9 -5.7,5.6 -12.2,10.5 -19.1,14.5 -890.6,515.4 -681.8,1185.4 -514.1,1723.8 31.3,100.3 59.7,192.4 78.4,276.6 l -264,-228 c -46,-148 -98,-316.4 -128.1,-495 v 0" /><path
         id="path618"
         style="fill:#8fc1dc;fill-opacity:1;fill-rule:nonzero;stroke:none"
         d="m 8376.6,11249 334.17,-288.6 -331.57,1736.7 939.8,-811.6 -177.9,511.2 c -0.63,1.8 -0.43,3.8 -0.94,5.7 L 7962,13419.8 8376.6,11249 v 0" /><path
         id="path620"
         style="fill:#4462ab;fill-opacity:1;fill-rule:nonzero;stroke:none"
         d="m 8710.77,10960.4 1329.83,-1148.5 -721.6,2073.6 -939.8,811.6 331.57,-1736.7 v 0" /><g
         id="g622"><g
           clip-path="url(#clipPath628)"
           id="g624"><path
             id="path630"
             style="fill:#221e22;fill-opacity:1;fill-rule:nonzero;stroke:none"
             d="m 10251.1,9475.6 c -5.9,-4.2 -11.9,-8 -18.4,-10.8 3.4,1.5 6.9,2.4 10.2,4.2 3.1,1.8 5.3,4.5 8.2,6.6 v 0" /><path
             id="path632"
             style="fill:#221e22;fill-opacity:1;fill-rule:nonzero;stroke:none"
             d="m 10132.4,9479.5 c 1.9,-1.6 4.4,-2.2 6.4,-3.7 -29.3,21.7 -44.8,57.7 -37.9,94.1 l 9.1,47.9 c -1.7,3.5 -4.2,6.6 -5.5,10.3 l -63.9,183.8 -1329.83,1148.5 -334.17,288.6 -414.6,2170.8 1178.16,-1017.4 c -5.24,18.8 -5.45,38.7 0.94,57.3 l 52.19,149.9 -1314.44,1135.1 c -30.9,26.8 -75.2,30.9 -110.47,10.5 -35.29,-20.4 -53.81,-60.9 -46.2,-100.9 l 472.5,-2473.9 c 4.02,-21.3 15.12,-40.5 31.49,-54.6 l 1105.99,-955.1 263.86,-227.9 536.38,-463.3 v 0" /></g></g><path
         id="path634"
         style="fill:#8fc1dc;fill-opacity:1;fill-rule:nonzero;stroke:none"
         d="m 11679.2,10960.4 334.3,288.6 414.6,2170.9 -1178.3,-1017.6 c -0.5,-1.8 -0.3,-3.7 -0.9,-5.5 l -178,-511.4 939.9,811.7 -331.6,-1736.7 v 0" /><g
         id="g636"><g
           clip-path="url(#clipPath642)"
           id="g638"><path
             id="path644"
             style="fill:#4462ab;fill-opacity:1;fill-rule:nonzero;stroke:none"
             d="m 12010.8,12697.1 -939.9,-811.7 -721.5,-2073.5 1329.8,1148.5 331.6,1736.7 v 0" /><path
             id="path646"
             style="fill:#221e22;fill-opacity:1;fill-rule:nonzero;stroke:none"
             d="m 11249.8,12402.3 1178.3,1017.6 -414.6,-2170.9 -334.3,-288.6 -1329.8,-1148.5 -63.9,-183.8 c -13.4,-38.5 -49.7,-64.3 -90.5,-64.3 -36.8,0 -69,21.6 -85,54 l -9.1,-47.9 c -6.9,-36.4 8.6,-72.4 37.9,-94.1 2.9,-2.1 5.1,-5 8.3,-6.8 3.3,-1.8 6.9,-2.7 10.3,-4.2 2.7,-1.2 5.2,-2.4 8,-3.3 9.7,-3.2 19.6,-5.3 29.6,-5.3 10,0 19.9,2.1 29.6,5.3 2.8,0.9 5.4,2.2 8.1,3.3 6.5,2.8 12.5,6.6 18.4,10.8 2.1,1.5 4.6,2.2 6.5,3.9 l 536.3,463.2 264,228 1106,955.1 c 16.3,14.1 27.4,33.4 31.4,54.6 l 472.5,2473.9 c 7.6,40 -10.9,80.5 -46.2,100.9 -35.2,20.4 -79.6,16.2 -110.5,-10.5 l -1314.4,-1135.1 52.2,-149.8 c 6.4,-18.6 6.2,-38.6 0.9,-57.5 v 0" /></g></g><path
         id="path648"
         style="fill:#8fc1dc;fill-opacity:1;fill-rule:nonzero;stroke:none"
         d="m 9510.27,11918.7 684.73,1967.7 684.7,-1967.6 177.3,509.4 -862,2477.1 -862,-2477.1 177.27,-509.5 v 0" /><g
         id="g650"><g
           clip-path="url(#clipPath656)"
           id="g652"><path
             id="path658"
             style="fill:#4462ab;fill-opacity:1;fill-rule:nonzero;stroke:none"
             d="m 9510.27,11918.7 684.73,-1967.6 684.7,1967.7 -684.7,1967.6 -684.73,-1967.7 v 0" /><path
             id="path660"
             style="fill:#221e22;fill-opacity:1;fill-rule:nonzero;stroke:none"
             d="m 10104.5,15228.2 -911.21,-2618.6 -52.19,-149.9 c -6.39,-18.6 -6.18,-38.5 -0.94,-57.3 0.51,-1.9 0.31,-3.9 0.94,-5.7 l 177.9,-511.2 721.6,-2073.6 63.9,-183.8 c 1.3,-3.7 3.8,-6.8 5.5,-10.3 16,-32.4 48.2,-54 85,-54 40.8,0 77.1,25.8 90.5,64.3 l 63.9,183.8 721.5,2073.5 178,511.4 c 0.6,1.8 0.4,3.7 0.9,5.5 5.3,18.9 5.5,38.9 -0.9,57.5 l -52.2,149.8 -911.2,2618.6 c -13.4,38.5 -49.8,64.3 -90.5,64.3 -40.7,0 -77.1,-25.8 -90.5,-64.3 z m 952.5,-2800 -177.3,-509.4 -684.7,-1967.7 -684.73,1967.6 -177.27,509.5 862,2477.1 862,-2477.1 v 0" /></g></g><path
         id="path662"
         style="fill:#8fc1dc;fill-opacity:1;fill-rule:nonzero;stroke:none"
         d="m 10107.7,9148.7 87.3,-103.5 87.4,103.5 -87.4,69 -87.3,-69 v 0" /><path
         id="path664"
         style="fill:#221e22;fill-opacity:1;fill-rule:nonzero;stroke:none"
         d="m 10135.7,9414.8 -195.01,-153.9 -29.4,-23.3 c -20.35,-16 -33.33,-39.7 -35.95,-65.5 -2.62,-25.8 5.37,-51.5 22.11,-71.3 l 224.35,-265.9 c 18.2,-21.5 45,-33.9 73.2,-33.9 28.2,0 55,12.3 73.2,33.9 l 224.6,265.9 c 16.7,19.7 24.7,45.5 22,71.3 -2.6,25.9 -15.6,49.5 -35.9,65.6 l -29.4,23.2 -195.1,153.9 c -34.8,27.5 -83.9,27.5 -118.7,0 z m 59.3,-369.6 -87.3,103.5 87.3,69 87.4,-69 -87.4,-103.5 v 0" /></g></g></svg>