<?xml version="1.0" encoding="UTF-8" standalone="no"?>
<svg
   xmlns:dc="http://purl.org/dc/elements/1.1/"
   xmlns:cc="http://creativecommons.org/ns#"
   xmlns:rdf="http://www.w3.org/1999/02/22-rdf-syntax-ns#"
   xmlns:svg="http://www.w3.org/2000/svg"
   xmlns="http://www.w3.org/2000/svg"
   viewBox="0 0 2718.6667 2718.6667"
   height="2718.6667"
   width="2718.6667"
   xml:space="preserve"
   id="svg2"
   version="1.1"><metadata
     id="metadata8"><rdf:RDF><cc:Work
         rdf:about=""><dc:format>image/svg+xml</dc:format><dc:type
           rdf:resource="http://purl.org/dc/dcmitype/StillImage" /></cc:Work></rdf:RDF></metadata><defs
     id="defs6"><clipPath
       id="clipPath20"
       clipPathUnits="userSpaceOnUse"><path
         id="path18"
         d="M 0,20389.4 H 20375 V 85.4023 H 0 Z" /></clipPath></defs><g
     transform="matrix(1.3333333,0,0,-1.3333333,0,2718.6667)"
     id="g10"><g
       transform="scale(0.1)"
       id="g12"><g
         id="g14"><g
           clip-path="url(#clipPath20)"
           id="g16"><g
             transform="scale(1.25092)"
             id="g22"><path
               id="path24"
               style="fill:#e2e0e0;fill-opacity:1;fill-rule:nonzero;stroke:none"
               d="M 815.4,15484.6 H 0.0031227 V 16300 H 815.4 v -815.4 0" /></g><g
             transform="scale(1.25092)"
             id="g26"><path
               id="path28"
               style="fill:#e2e0e0;fill-opacity:1;fill-rule:nonzero;stroke:none"
               d="m 2446.2,15484.6 h -815.4 v 815.4 h 815.4 v -815.4 0" /></g><g
             transform="scale(1.25092)"
             id="g30"><path
               id="path32"
               style="fill:#e2e0e0;fill-opacity:1;fill-rule:nonzero;stroke:none"
               d="M 4077,15484.6 H 3261.6 V 16300 H 4077 v -815.4 0" /></g><g
             transform="scale(1.25092)"
             id="g34"><path
               id="path36"
               style="fill:#e2e0e0;fill-opacity:1;fill-rule:nonzero;stroke:none"
               d="m 5707.8,15484.6 h -815.4 v 815.4 h 815.4 v -815.4 0" /></g><g
             transform="scale(1.25092)"
             id="g38"><path
               id="path40"
               style="fill:#e2e0e0;fill-opacity:1;fill-rule:nonzero;stroke:none"
               d="m 7338.6,15484.6 h -815.4 v 815.4 h 815.4 v -815.4 0" /></g><g
             transform="scale(1.25092)"
             id="g42"><path
               id="path44"
               style="fill:#e2e0e0;fill-opacity:1;fill-rule:nonzero;stroke:none"
               d="M 8969.4,15484.6 H 8154 v 815.4 h 815.4 v -815.4 0" /></g><g
             transform="scale(1.25092)"
             id="g46"><path
               id="path48"
               style="fill:#e2e0e0;fill-opacity:1;fill-rule:nonzero;stroke:none"
               d="m 10600.2,15484.6 h -815.4 v 815.4 h 815.4 v -815.4 0" /></g><g
             transform="scale(1.25092)"
             id="g50"><path
               id="path52"
               style="fill:#e2e0e0;fill-opacity:1;fill-rule:nonzero;stroke:none"
               d="m 12231,15484.6 h -815.4 v 815.4 h 815.4 v -815.4 0" /></g><g
             transform="scale(1.25092)"
             id="g54"><path
               id="path56"
               style="fill:#e2e0e0;fill-opacity:1;fill-rule:nonzero;stroke:none"
               d="m 13861.8,15484.6 h -815.4 v 815.4 h 815.4 v -815.4 0" /></g><g
             transform="scale(1.25092)"
             id="g58"><path
               id="path60"
               style="fill:#e2e0e0;fill-opacity:1;fill-rule:nonzero;stroke:none"
               d="m 15492.6,15484.6 h -815.4 v 815.4 h 815.4 v -815.4 0" /></g></g></g><g
         transform="scale(1.18868)"
         id="g62"><path
           id="path64"
           style="fill:#e2e0e0;fill-opacity:1;fill-rule:nonzero;stroke:none"
           d="M 1720.38,15441.9 H 862.287 v 858.1 h 858.093 v -858.1 0" /></g><g
         transform="scale(1.18868)"
         id="g66"><path
           id="path68"
           style="fill:#e2e0e0;fill-opacity:1;fill-rule:nonzero;stroke:none"
           d="m 3436.58,15441.9 h -858.1 v 858.1 h 858.1 v -858.1 0" /></g><g
         transform="scale(1.18868)"
         id="g70"><path
           id="path72"
           style="fill:#e2e0e0;fill-opacity:1;fill-rule:nonzero;stroke:none"
           d="m 5152.77,15441.9 h -858.09 v 858.1 h 858.09 v -858.1 0" /></g><g
         transform="scale(1.18868)"
         id="g74"><path
           id="path76"
           style="fill:#e2e0e0;fill-opacity:1;fill-rule:nonzero;stroke:none"
           d="m 6868.97,15441.9 h -858.1 v 858.1 h 858.1 v -858.1 0" /></g><g
         transform="scale(1.18868)"
         id="g78"><path
           id="path80"
           style="fill:#e2e0e0;fill-opacity:1;fill-rule:nonzero;stroke:none"
           d="m 8585.18,15441.9 h -858.12 v 858.1 h 858.12 v -858.1 0" /></g><g
         transform="scale(1.18868)"
         id="g82"><path
           id="path84"
           style="fill:#e2e0e0;fill-opacity:1;fill-rule:nonzero;stroke:none"
           d="m 10301.4,15441.9 h -858.13 v 858.1 h 858.13 v -858.1 0" /></g><g
         transform="scale(1.18868)"
         id="g86"><path
           id="path88"
           style="fill:#e2e0e0;fill-opacity:1;fill-rule:nonzero;stroke:none"
           d="m 12017.6,15441.9 h -858.1 v 858.1 h 858.1 v -858.1 0" /></g><g
         transform="scale(1.18868)"
         id="g90"><path
           id="path92"
           style="fill:#e2e0e0;fill-opacity:1;fill-rule:nonzero;stroke:none"
           d="m 13733.8,15441.9 h -858.1 v 858.1 h 858.1 v -858.1 0" /></g><g
         transform="scale(1.18868)"
         id="g94"><path
           id="path96"
           style="fill:#e2e0e0;fill-opacity:1;fill-rule:nonzero;stroke:none"
           d="m 15450,15441.9 h -858.1 v 858.1 h 858.1 v -858.1 0" /></g><g
         transform="scale(1.25)"
         id="g98"><path
           id="path100"
           style="fill:#e2e0e0;fill-opacity:1;fill-rule:nonzero;stroke:none"
           d="m 16300,14684.3 h -800 v 816 h 800 v -816 0" /></g><g
         transform="scale(1.12638)"
         id="g102"><path
           id="path104"
           style="fill:#e2e0e0;fill-opacity:1;fill-rule:nonzero;stroke:none"
           d="M 914.434,15394.4 H 8.88146 V 16300 H 914.434 v -905.6 0" /></g><g
         transform="scale(1.12638)"
         id="g106"><path
           id="path108"
           style="fill:#e2e0e0;fill-opacity:1;fill-rule:nonzero;stroke:none"
           d="m 2725.54,15394.4 h -905.55 v 905.6 h 905.55 v -905.6 0" /></g><g
         transform="scale(1.12638)"
         id="g110"><path
           id="path112"
           style="fill:#e2e0e0;fill-opacity:1;fill-rule:nonzero;stroke:none"
           d="M 4536.66,15394.4 H 3631.1 v 905.6 h 905.56 v -905.6 0" /></g><g
         transform="scale(1.12638)"
         id="g114"><path
           id="path116"
           style="fill:#e2e0e0;fill-opacity:1;fill-rule:nonzero;stroke:none"
           d="m 6347.77,15394.4 h -905.56 v 905.6 h 905.56 v -905.6 0" /></g><g
         transform="scale(1.12638)"
         id="g118"><path
           id="path120"
           style="fill:#e2e0e0;fill-opacity:1;fill-rule:nonzero;stroke:none"
           d="m 8158.88,15394.4 h -905.56 v 905.6 h 905.56 v -905.6 0" /></g><g
         transform="scale(1.12638)"
         id="g122"><path
           id="path124"
           style="fill:#e2e0e0;fill-opacity:1;fill-rule:nonzero;stroke:none"
           d="m 9969.99,15394.4 h -905.56 v 905.6 h 905.56 v -905.6 0" /></g><g
         transform="scale(1.12638)"
         id="g126"><path
           id="path128"
           style="fill:#e2e0e0;fill-opacity:1;fill-rule:nonzero;stroke:none"
           d="m 11781.1,15394.4 h -905.6 v 905.6 h 905.6 v -905.6 0" /></g><g
         transform="scale(1.12638)"
         id="g130"><path
           id="path132"
           style="fill:#e2e0e0;fill-opacity:1;fill-rule:nonzero;stroke:none"
           d="m 13592.2,15394.4 h -905.5 v 905.6 h 905.5 v -905.6 0" /></g><g
         transform="scale(1.12638)"
         id="g134"><path
           id="path136"
           style="fill:#e2e0e0;fill-opacity:1;fill-rule:nonzero;stroke:none"
           d="m 15403.3,15394.4 h -905.5 v 905.6 h 905.5 v -905.6 0" /></g><g
         transform="scale(1.18957)"
         id="g138"><path
           id="path140"
           style="fill:#e2e0e0;fill-opacity:1;fill-rule:nonzero;stroke:none"
           d="m 16300,14576.7 h -857.5 v 857.4 h 857.5 v -857.4 0" /></g><g
         transform="scale(1.06414)"
         id="g142"><path
           id="path144"
           style="fill:#e2e0e0;fill-opacity:1;fill-rule:nonzero;stroke:none"
           d="M 1921.73,15341.5 H 963.204 v 958.5 h 958.526 v -958.5 0" /></g><g
         transform="scale(1.06414)"
         id="g146"><path
           id="path148"
           style="fill:#e2e0e0;fill-opacity:1;fill-rule:nonzero;stroke:none"
           d="m 3838.77,15341.5 h -958.52 v 958.5 h 958.52 v -958.5 0" /></g><g
         transform="scale(1.06414)"
         id="g150"><path
           id="path152"
           style="fill:#e2e0e0;fill-opacity:1;fill-rule:nonzero;stroke:none"
           d="M 5755.82,15341.5 H 4797.3 v 958.5 h 958.52 v -958.5 0" /></g><g
         transform="scale(1.06414)"
         id="g154"><path
           id="path156"
           style="fill:#e2e0e0;fill-opacity:1;fill-rule:nonzero;stroke:none"
           d="m 7672.87,15341.5 h -958.53 v 958.5 h 958.53 v -958.5 0" /></g><g
         transform="scale(1.06414)"
         id="g158"><path
           id="path160"
           style="fill:#e2e0e0;fill-opacity:1;fill-rule:nonzero;stroke:none"
           d="m 9589.93,15341.5 h -958.54 v 958.5 h 958.54 v -958.5 0" /></g><g
         transform="scale(1.06414)"
         id="g162"><path
           id="path164"
           style="fill:#e2e0e0;fill-opacity:1;fill-rule:nonzero;stroke:none"
           d="m 11507,15341.5 h -958.5 v 958.5 h 958.5 v -958.5 0" /></g><g
         transform="scale(1.06414)"
         id="g166"><path
           id="path168"
           style="fill:#e2e0e0;fill-opacity:1;fill-rule:nonzero;stroke:none"
           d="m 13424,15341.5 h -958.5 v 958.5 h 958.5 v -958.5 0" /></g><g
         transform="scale(1.06414)"
         id="g170"><path
           id="path172"
           style="fill:#e2e0e0;fill-opacity:1;fill-rule:nonzero;stroke:none"
           d="m 15341.1,15341.5 h -958.5 v 958.5 h 958.5 v -958.5 0" /></g><g
         transform="scale(1.12669)"
         id="g174"><path
           id="path176"
           style="fill:#e2e0e0;fill-opacity:1;fill-rule:nonzero;stroke:none"
           d="m 16300,14489.8 h -905.3 v 905.3 h 905.3 v -905.3 0" /></g><g
         transform="scale(1.25)"
         id="g178"><path
           id="path180"
           style="fill:#e2e0e0;fill-opacity:1;fill-rule:nonzero;stroke:none"
           d="m 16300,13060.3 h -800 v 816 h 800 v -816 0" /></g><g
         transform="scale(1.00184)"
         id="g182"><path
           id="path184"
           style="fill:#e2e0e0;fill-opacity:1;fill-rule:nonzero;stroke:none"
           d="M 1038.09,15281.9 H 19.9672 V 16300 H 1038.09 v -1018.1 0" /></g><g
         transform="scale(1.00184)"
         id="g186"><path
           id="path188"
           style="fill:#e2e0e0;fill-opacity:1;fill-rule:nonzero;stroke:none"
           d="M 3074.34,15281.9 H 2056.22 V 16300 h 1018.12 v -1018.1 0" /></g><g
         transform="scale(1.00184)"
         id="g190"><path
           id="path192"
           style="fill:#e2e0e0;fill-opacity:1;fill-rule:nonzero;stroke:none"
           d="M 5110.59,15281.9 H 4092.47 V 16300 h 1018.12 v -1018.1 0" /></g><g
         transform="scale(1.00184)"
         id="g194"><path
           id="path196"
           style="fill:#e2e0e0;fill-opacity:1;fill-rule:nonzero;stroke:none"
           d="M 7146.85,15281.9 H 6128.72 V 16300 h 1018.13 v -1018.1 0" /></g><g
         transform="scale(1.00184)"
         id="g198"><path
           id="path200"
           style="fill:#e2e0e0;fill-opacity:1;fill-rule:nonzero;stroke:none"
           d="M 9183.1,15281.9 H 8164.97 V 16300 H 9183.1 v -1018.1 0" /></g><g
         transform="scale(1.00184)"
         id="g202"><path
           id="path204"
           style="fill:#e2e0e0;fill-opacity:1;fill-rule:nonzero;stroke:none"
           d="M 11219.4,15281.9 H 10201.2 V 16300 h 1018.2 v -1018.1 0" /></g><g
         transform="scale(1.00184)"
         id="g206"><path
           id="path208"
           style="fill:#e2e0e0;fill-opacity:1;fill-rule:nonzero;stroke:none"
           d="M 13255.6,15281.9 H 12237.5 V 16300 h 1018.1 v -1018.1 0" /></g><g
         transform="scale(1.00184)"
         id="g210"><path
           id="path212"
           style="fill:#e2e0e0;fill-opacity:1;fill-rule:nonzero;stroke:none"
           d="M 15291.9,15281.9 H 14273.7 V 16300 h 1018.2 v -1018.1 0" /></g><g
         transform="scale(1.06503)"
         id="g214"><path
           id="path216"
           style="fill:#e2e0e0;fill-opacity:1;fill-rule:nonzero;stroke:none"
           d="m 16300,14375.2 h -957.7 v 957.7 h 957.7 v -957.7 0" /></g><g
         transform="scale(1.19018)"
         id="g218"><path
           id="path220"
           style="fill:#e2e0e0;fill-opacity:1;fill-rule:nonzero;stroke:none"
           d="m 16300,12863.6 h -857 v 857 h 857 v -857 0" /></g><path
         id="path222"
         style="fill:#e2e0e0;fill-opacity:1;fill-rule:nonzero;stroke:none"
         d="m 2044.98,14295.4 h -1020 v 1020 h 1020 v -1020 0" /><path
         id="path224"
         style="fill:#e2e0e0;fill-opacity:1;fill-rule:nonzero;stroke:none"
         d="m 4084.98,14295.4 h -1020 v 1020 h 1020 v -1020 0" /><path
         id="path226"
         style="fill:#e2e0e0;fill-opacity:1;fill-rule:nonzero;stroke:none"
         d="m 6124.98,14295.4 h -1020 v 1020 h 1020 v -1020 0" /><path
         id="path228"
         style="fill:#e2e0e0;fill-opacity:1;fill-rule:nonzero;stroke:none"
         d="m 8164.98,14295.4 h -1020 v 1020 h 1020 v -1020 0" /><path
         id="path230"
         style="fill:#e2e0e0;fill-opacity:1;fill-rule:nonzero;stroke:none"
         d="M 10205,14295.4 H 9184.98 v 1020 H 10205 v -1020 0" /><path
         id="path232"
         style="fill:#e2e0e0;fill-opacity:1;fill-rule:nonzero;stroke:none"
         d="m 12245,14295.4 h -1020 v 1020 h 1020 v -1020 0" /><path
         id="path234"
         style="fill:#e2e0e0;fill-opacity:1;fill-rule:nonzero;stroke:none"
         d="m 14285,14295.4 h -1020 v 1020 h 1020 v -1020 0" /><g
         transform="scale(1.00153)"
         id="g236"><path
           id="path238"
           style="fill:#e2e0e0;fill-opacity:1;fill-rule:nonzero;stroke:none"
           d="M 16300,14273.5 H 15281.6 V 15292 H 16300 v -1018.5 0" /></g><g
         transform="scale(1.12669)"
         id="g240"><path
           id="path242"
           style="fill:#e2e0e0;fill-opacity:1;fill-rule:nonzero;stroke:none"
           d="m 16300,12688 h -905.3 v 905.3 h 905.3 v -905.3 0" /></g><g
         transform="scale(1.25)"
         id="g244"><path
           id="path246"
           style="fill:#e2e0e0;fill-opacity:1;fill-rule:nonzero;stroke:none"
           d="m 16300,11436.3 h -800 v 816 h 800 v -816 0" /></g><path
         id="path248"
         style="fill:#e2e0e0;fill-opacity:1;fill-rule:nonzero;stroke:none"
         d="M 1050,13280 H 30.0039 v 1020 H 1050 v -1020 0" /><path
         id="path250"
         style="fill:#e2e0e0;fill-opacity:1;fill-rule:nonzero;stroke:none"
         d="M 3090,13280 H 2070 v 1020 h 1020 v -1020 0" /><path
         id="path252"
         style="fill:#e2e0e0;fill-opacity:1;fill-rule:nonzero;stroke:none"
         d="M 5130,13280 H 4110 v 1020 h 1020 v -1020 0" /><path
         id="path254"
         style="fill:#e2e0e0;fill-opacity:1;fill-rule:nonzero;stroke:none"
         d="M 7170,13280 H 6150 v 1020 h 1020 v -1020 0" /><path
         id="path256"
         style="fill:#e2e0e0;fill-opacity:1;fill-rule:nonzero;stroke:none"
         d="M 9210,13280 H 8190 v 1020 h 1020 v -1020 0" /><path
         id="path258"
         style="fill:#e2e0e0;fill-opacity:1;fill-rule:nonzero;stroke:none"
         d="m 11250,13280 h -1020 v 1020 h 1020 v -1020 0" /><path
         id="path260"
         style="fill:#e2e0e0;fill-opacity:1;fill-rule:nonzero;stroke:none"
         d="m 13290,13280 h -1020 v 1020 h 1020 v -1020 0" /><path
         id="path262"
         style="fill:#e2e0e0;fill-opacity:1;fill-rule:nonzero;stroke:none"
         d="m 15330,13280 h -1020 v 1020 h 1020 v -1020 0" /><g
         transform="scale(1.06564)"
         id="g264"><path
           id="path266"
           style="fill:#e2e0e0;fill-opacity:1;fill-rule:nonzero;stroke:none"
           d="m 16300,12461.9 h -957.2 v 957.2 h 957.2 v -957.2 0" /></g><g
         transform="scale(1.1908)"
         id="g268"><path
           id="path270"
           style="fill:#e2e0e0;fill-opacity:1;fill-rule:nonzero;stroke:none"
           d="m 16300,11152.2 h -856.6 v 856.6 h 856.6 v -856.6 0" /></g><path
         id="path272"
         style="fill:#e2e0e0;fill-opacity:1;fill-rule:nonzero;stroke:none"
         d="m 2044.98,12265.4 h -1020 v 1020 h 1020 v -1020 0" /><path
         id="path274"
         style="fill:#e2e0e0;fill-opacity:1;fill-rule:nonzero;stroke:none"
         d="m 4084.98,12265.4 h -1020 v 1020 h 1020 v -1020 0" /><path
         id="path276"
         style="fill:#e2e0e0;fill-opacity:1;fill-rule:nonzero;stroke:none"
         d="m 6124.98,12265.4 h -1020 v 1020 h 1020 v -1020 0" /><path
         id="path278"
         style="fill:#e2e0e0;fill-opacity:1;fill-rule:nonzero;stroke:none"
         d="m 8164.98,12265.4 h -1020 v 1020 h 1020 v -1020 0" /><path
         id="path280"
         style="fill:#e2e0e0;fill-opacity:1;fill-rule:nonzero;stroke:none"
         d="M 10205,12265.4 H 9184.98 v 1020 H 10205 v -1020 0" /><path
         id="path282"
         style="fill:#e2e0e0;fill-opacity:1;fill-rule:nonzero;stroke:none"
         d="m 12245,12265.4 h -1020 v 1020 h 1020 v -1020 0" /><path
         id="path284"
         style="fill:#e2e0e0;fill-opacity:1;fill-rule:nonzero;stroke:none"
         d="m 14285,12265.4 h -1020 v 1020 h 1020 v -1020 0" /><g
         transform="scale(1.00153)"
         id="g286"><path
           id="path288"
           style="fill:#e2e0e0;fill-opacity:1;fill-rule:nonzero;stroke:none"
           d="m 16300,12246.6 h -1018.4 v 1018.5 H 16300 v -1018.5 0" /></g><g
         transform="scale(1.12669)"
         id="g290"><path
           id="path292"
           style="fill:#e2e0e0;fill-opacity:1;fill-rule:nonzero;stroke:none"
           d="m 16300,10886.3 h -905.3 v 905.3 h 905.3 v -905.3 0" /></g><g
         transform="scale(1.25)"
         id="g294"><path
           id="path296"
           style="fill:#e2e0e0;fill-opacity:1;fill-rule:nonzero;stroke:none"
           d="m 16300,9812.34 h -800 v 815.96 h 800 v -815.96 0" /></g><path
         id="path298"
         style="fill:#e2e0e0;fill-opacity:1;fill-rule:nonzero;stroke:none"
         d="M 1020,11250 H 0.00390625 v 1020 H 1020 v -1020 0" /><path
         id="path300"
         style="fill:#e2e0e0;fill-opacity:1;fill-rule:nonzero;stroke:none"
         d="M 3060,11250 H 2040 v 1020 h 1020 v -1020 0" /><path
         id="path302"
         style="fill:#e2e0e0;fill-opacity:1;fill-rule:nonzero;stroke:none"
         d="M 5100,11250 H 4080 v 1020 h 1020 v -1020 0" /><path
         id="path304"
         style="fill:#e2e0e0;fill-opacity:1;fill-rule:nonzero;stroke:none"
         d="M 7140,11250 H 6120 v 1020 h 1020 v -1020 0" /><path
         id="path306"
         style="fill:#e2e0e0;fill-opacity:1;fill-rule:nonzero;stroke:none"
         d="M 9180,11250 H 8160 v 1020 h 1020 v -1020 0" /><path
         id="path308"
         style="fill:#e2e0e0;fill-opacity:1;fill-rule:nonzero;stroke:none"
         d="m 11220,11250 h -1020 v 1020 h 1020 v -1020 0" /><path
         id="path310"
         style="fill:#e2e0e0;fill-opacity:1;fill-rule:nonzero;stroke:none"
         d="m 13260,11250 h -1020 v 1020 h 1020 v -1020 0" /><path
         id="path312"
         style="fill:#e2e0e0;fill-opacity:1;fill-rule:nonzero;stroke:none"
         d="m 15300,11250 h -1020 v 1020 h 1020 v -1020 0" /><g
         transform="scale(1.0638)"
         id="g314"><path
           id="path316"
           style="fill:#e2e0e0;fill-opacity:1;fill-rule:nonzero;stroke:none"
           d="m 16300,10575.3 h -958.8 v 958.8 h 958.8 v -958.8 0" /></g><g
         transform="scale(1.18896)"
         id="g318"><path
           id="path320"
           style="fill:#e2e0e0;fill-opacity:1;fill-rule:nonzero;stroke:none"
           d="m 16300,9462.07 h -857.9 V 10320 h 857.9 v -857.93 0" /></g><path
         id="path322"
         style="fill:#e2e0e0;fill-opacity:1;fill-rule:nonzero;stroke:none"
         d="m 2044.98,10235.4 h -1020 v 1020 h 1020 v -1020 0" /><path
         id="path324"
         style="fill:#e2e0e0;fill-opacity:1;fill-rule:nonzero;stroke:none"
         d="m 4084.98,10235.4 h -1020 v 1020 h 1020 v -1020 0" /><path
         id="path326"
         style="fill:#e2e0e0;fill-opacity:1;fill-rule:nonzero;stroke:none"
         d="m 6124.98,10235.4 h -1020 v 1020 h 1020 v -1020 0" /><path
         id="path328"
         style="fill:#e2e0e0;fill-opacity:1;fill-rule:nonzero;stroke:none"
         d="m 8164.98,10235.4 h -1020 v 1020 h 1020 v -1020 0" /><path
         id="path330"
         style="fill:#e2e0e0;fill-opacity:1;fill-rule:nonzero;stroke:none"
         d="M 10205,10235.4 H 9184.98 v 1020 H 10205 v -1020 0" /><path
         id="path332"
         style="fill:#e2e0e0;fill-opacity:1;fill-rule:nonzero;stroke:none"
         d="m 12245,10235.4 h -1020 v 1020 h 1020 v -1020 0" /><path
         id="path334"
         style="fill:#e2e0e0;fill-opacity:1;fill-rule:nonzero;stroke:none"
         d="m 14285,10235.4 h -1020 v 1020 h 1020 v -1020 0" /><g
         transform="scale(1.00153)"
         id="g336"><path
           id="path338"
           style="fill:#e2e0e0;fill-opacity:1;fill-rule:nonzero;stroke:none"
           d="m 16300,10219.7 h -1018.4 v 1018.5 H 16300 v -1018.5 0" /></g><g
         transform="scale(1.12669)"
         id="g340"><path
           id="path342"
           style="fill:#e2e0e0;fill-opacity:1;fill-rule:nonzero;stroke:none"
           d="m 16300,9084.51 h -905.3 v 905.33 h 905.3 v -905.33 0" /></g><g
         transform="scale(1.25)"
         id="g344"><path
           id="path346"
           style="fill:#e2e0e0;fill-opacity:1;fill-rule:nonzero;stroke:none"
           d="m 16300,8188.32 h -800 v 816.02 h 800 v -816.02 0" /></g><path
         id="path348"
         style="fill:#e2e0e0;fill-opacity:1;fill-rule:nonzero;stroke:none"
         d="M 1020,9220 H 0.00390625 v 1020 H 1020 v -1020 0" /><path
         id="path350"
         style="fill:#e2e0e0;fill-opacity:1;fill-rule:nonzero;stroke:none"
         d="M 3060,9220 H 2040 v 1020 h 1020 v -1020 0" /><path
         id="path352"
         style="fill:#e2e0e0;fill-opacity:1;fill-rule:nonzero;stroke:none"
         d="M 5100,9220 H 4080 v 1020 h 1020 v -1020 0" /><path
         id="path354"
         style="fill:#e2e0e0;fill-opacity:1;fill-rule:nonzero;stroke:none"
         d="M 7140,9220 H 6120 v 1020 h 1020 v -1020 0" /><path
         id="path356"
         style="fill:#e2e0e0;fill-opacity:1;fill-rule:nonzero;stroke:none"
         d="M 9180,9220 H 8160 v 1020 h 1020 v -1020 0" /><path
         id="path358"
         style="fill:#e2e0e0;fill-opacity:1;fill-rule:nonzero;stroke:none"
         d="m 11220,9220 h -1020 v 1020 h 1020 v -1020 0" /><path
         id="path360"
         style="fill:#e2e0e0;fill-opacity:1;fill-rule:nonzero;stroke:none"
         d="m 13260,9220 h -1020 v 1020 h 1020 v -1020 0" /><path
         id="path362"
         style="fill:#e2e0e0;fill-opacity:1;fill-rule:nonzero;stroke:none"
         d="m 15300,9220 h -1020 v 1020 h 1020 v -1020 0" /><g
         transform="scale(1.0638)"
         id="g364"><path
           id="path366"
           style="fill:#e2e0e0;fill-opacity:1;fill-rule:nonzero;stroke:none"
           d="m 16300,8667.01 h -958.8 v 958.83 h 958.8 v -958.83 0" /></g><g
         transform="scale(1.18896)"
         id="g368"><path
           id="path370"
           style="fill:#e2e0e0;fill-opacity:1;fill-rule:nonzero;stroke:none"
           d="m 16300,7754.7 h -857.9 v 857.89 h 857.9 v -857.89 0" /></g><path
         id="path372"
         style="fill:#e2e0e0;fill-opacity:1;fill-rule:nonzero;stroke:none"
         d="m 2044.98,8205.4 h -1020 v 1020 h 1020 v -1020 0" /><path
         id="path374"
         style="fill:#e2e0e0;fill-opacity:1;fill-rule:nonzero;stroke:none"
         d="m 4084.98,8205.4 h -1020 v 1020 h 1020 v -1020 0" /><path
         id="path376"
         style="fill:#e2e0e0;fill-opacity:1;fill-rule:nonzero;stroke:none"
         d="m 6124.98,8205.4 h -1020 v 1020 h 1020 v -1020 0" /><path
         id="path378"
         style="fill:#e2e0e0;fill-opacity:1;fill-rule:nonzero;stroke:none"
         d="m 8164.98,8205.4 h -1020 v 1020 h 1020 v -1020 0" /><path
         id="path380"
         style="fill:#e2e0e0;fill-opacity:1;fill-rule:nonzero;stroke:none"
         d="M 10205,8205.4 H 9184.98 v 1020 H 10205 v -1020 0" /><path
         id="path382"
         style="fill:#e2e0e0;fill-opacity:1;fill-rule:nonzero;stroke:none"
         d="m 12245,8205.4 h -1020 v 1020 h 1020 v -1020 0" /><path
         id="path384"
         style="fill:#e2e0e0;fill-opacity:1;fill-rule:nonzero;stroke:none"
         d="m 14285,8205.4 h -1020 v 1020 h 1020 v -1020 0" /><g
         transform="scale(1.00153)"
         id="g386"><path
           id="path388"
           style="fill:#e2e0e0;fill-opacity:1;fill-rule:nonzero;stroke:none"
           d="M 16300,8192.84 H 15281.6 V 9211.27 H 16300 v -1018.43 0" /></g><g
         transform="scale(1.12669)"
         id="g390"><path
           id="path392"
           style="fill:#e2e0e0;fill-opacity:1;fill-rule:nonzero;stroke:none"
           d="m 16300,7282.77 h -905.3 v 905.31 h 905.3 v -905.31 0" /></g><g
         transform="scale(1.25)"
         id="g394"><path
           id="path396"
           style="fill:#e2e0e0;fill-opacity:1;fill-rule:nonzero;stroke:none"
           d="m 16300,6564.32 h -800 v 816 h 800 v -816 0" /></g><path
         id="path398"
         style="fill:#e2e0e0;fill-opacity:1;fill-rule:nonzero;stroke:none"
         d="M 1020,7190 H 0.00390625 V 8210 H 1020 v -1020 0" /><path
         id="path400"
         style="fill:#e2e0e0;fill-opacity:1;fill-rule:nonzero;stroke:none"
         d="M 3060,7190 H 2040 v 1020 h 1020 v -1020 0" /><path
         id="path402"
         style="fill:#e2e0e0;fill-opacity:1;fill-rule:nonzero;stroke:none"
         d="M 5100,7190 H 4080 v 1020 h 1020 v -1020 0" /><path
         id="path404"
         style="fill:#e2e0e0;fill-opacity:1;fill-rule:nonzero;stroke:none"
         d="M 7140,7190 H 6120 v 1020 h 1020 v -1020 0" /><path
         id="path406"
         style="fill:#e2e0e0;fill-opacity:1;fill-rule:nonzero;stroke:none"
         d="M 9180,7190 H 8160 v 1020 h 1020 v -1020 0" /><path
         id="path408"
         style="fill:#e2e0e0;fill-opacity:1;fill-rule:nonzero;stroke:none"
         d="m 11220,7190 h -1020 v 1020 h 1020 v -1020 0" /><path
         id="path410"
         style="fill:#e2e0e0;fill-opacity:1;fill-rule:nonzero;stroke:none"
         d="m 13260,7190 h -1020 v 1020 h 1020 v -1020 0" /><path
         id="path412"
         style="fill:#e2e0e0;fill-opacity:1;fill-rule:nonzero;stroke:none"
         d="m 15300,7190 h -1020 v 1020 h 1020 v -1020 0" /><g
         transform="scale(1.0638)"
         id="g414"><path
           id="path416"
           style="fill:#e2e0e0;fill-opacity:1;fill-rule:nonzero;stroke:none"
           d="m 16300,6758.77 h -958.8 v 958.82 h 958.8 v -958.82 0" /></g><g
         transform="scale(1.18896)"
         id="g418"><path
           id="path420"
           style="fill:#e2e0e0;fill-opacity:1;fill-rule:nonzero;stroke:none"
           d="m 16300,6047.32 h -857.9 v 857.89 h 857.9 v -857.89 0" /></g><path
         id="path422"
         style="fill:#e2e0e0;fill-opacity:1;fill-rule:nonzero;stroke:none"
         d="m 2044.98,6175.4 h -1020 v 1020 h 1020 v -1020 0" /><path
         id="path424"
         style="fill:#e2e0e0;fill-opacity:1;fill-rule:nonzero;stroke:none"
         d="m 4084.98,6175.4 h -1020 v 1020 h 1020 v -1020 0" /><path
         id="path426"
         style="fill:#e2e0e0;fill-opacity:1;fill-rule:nonzero;stroke:none"
         d="m 6124.98,6175.4 h -1020 v 1020 h 1020 v -1020 0" /><path
         id="path428"
         style="fill:#e2e0e0;fill-opacity:1;fill-rule:nonzero;stroke:none"
         d="m 8164.98,6175.4 h -1020 v 1020 h 1020 v -1020 0" /><path
         id="path430"
         style="fill:#e2e0e0;fill-opacity:1;fill-rule:nonzero;stroke:none"
         d="M 10205,6175.4 H 9184.98 v 1020 H 10205 v -1020 0" /><path
         id="path432"
         style="fill:#e2e0e0;fill-opacity:1;fill-rule:nonzero;stroke:none"
         d="m 12245,6175.4 h -1020 v 1020 h 1020 v -1020 0" /><path
         id="path434"
         style="fill:#e2e0e0;fill-opacity:1;fill-rule:nonzero;stroke:none"
         d="m 14285,6175.4 h -1020 v 1020 h 1020 v -1020 0" /><g
         transform="scale(1.00153)"
         id="g436"><path
           id="path438"
           style="fill:#e2e0e0;fill-opacity:1;fill-rule:nonzero;stroke:none"
           d="M 16300,6165.95 H 15281.6 V 7184.38 H 16300 v -1018.43 0" /></g><g
         transform="scale(1.12669)"
         id="g440"><path
           id="path442"
           style="fill:#e2e0e0;fill-opacity:1;fill-rule:nonzero;stroke:none"
           d="m 16300,5481.03 h -905.3 v 905.31 h 905.3 v -905.31 0" /></g><g
         transform="scale(1.25)"
         id="g444"><path
           id="path446"
           style="fill:#e2e0e0;fill-opacity:1;fill-rule:nonzero;stroke:none"
           d="m 16300,4940.32 h -800 v 816 h 800 v -816 0" /></g><path
         id="path448"
         style="fill:#e2e0e0;fill-opacity:1;fill-rule:nonzero;stroke:none"
         d="M 1020,5160 H 0.00390625 V 6180 H 1020 v -1020 0" /><path
         id="path450"
         style="fill:#e2e0e0;fill-opacity:1;fill-rule:nonzero;stroke:none"
         d="M 3060,5160 H 2040 v 1020 h 1020 v -1020 0" /><path
         id="path452"
         style="fill:#e2e0e0;fill-opacity:1;fill-rule:nonzero;stroke:none"
         d="M 5100,5160 H 4080 v 1020 h 1020 v -1020 0" /><path
         id="path454"
         style="fill:#e2e0e0;fill-opacity:1;fill-rule:nonzero;stroke:none"
         d="M 7140,5160 H 6120 v 1020 h 1020 v -1020 0" /><path
         id="path456"
         style="fill:#e2e0e0;fill-opacity:1;fill-rule:nonzero;stroke:none"
         d="M 9180,5160 H 8160 v 1020 h 1020 v -1020 0" /><path
         id="path458"
         style="fill:#e2e0e0;fill-opacity:1;fill-rule:nonzero;stroke:none"
         d="m 11220,5160 h -1020 v 1020 h 1020 v -1020 0" /><path
         id="path460"
         style="fill:#e2e0e0;fill-opacity:1;fill-rule:nonzero;stroke:none"
         d="m 13260,5160 h -1020 v 1020 h 1020 v -1020 0" /><path
         id="path462"
         style="fill:#e2e0e0;fill-opacity:1;fill-rule:nonzero;stroke:none"
         d="m 15300,5160 h -1020 v 1020 h 1020 v -1020 0" /><g
         transform="scale(1.0638)"
         id="g464"><path
           id="path466"
           style="fill:#e2e0e0;fill-opacity:1;fill-rule:nonzero;stroke:none"
           d="m 16300,4850.52 h -958.8 v 958.82 h 958.8 v -958.82 0" /></g><g
         transform="scale(1.18896)"
         id="g468"><path
           id="path470"
           style="fill:#e2e0e0;fill-opacity:1;fill-rule:nonzero;stroke:none"
           d="m 16300,4339.94 h -857.9 v 857.89 h 857.9 v -857.89 0" /></g><path
         id="path472"
         style="fill:#e2e0e0;fill-opacity:1;fill-rule:nonzero;stroke:none"
         d="m 2044.98,4145.4 h -1020 v 1020 h 1020 v -1020 0" /><path
         id="path474"
         style="fill:#e2e0e0;fill-opacity:1;fill-rule:nonzero;stroke:none"
         d="m 4084.98,4145.4 h -1020 v 1020 h 1020 v -1020 0" /><path
         id="path476"
         style="fill:#e2e0e0;fill-opacity:1;fill-rule:nonzero;stroke:none"
         d="m 6124.98,4145.4 h -1020 v 1020 h 1020 v -1020 0" /><path
         id="path478"
         style="fill:#e2e0e0;fill-opacity:1;fill-rule:nonzero;stroke:none"
         d="m 8164.98,4145.4 h -1020 v 1020 h 1020 v -1020 0" /><path
         id="path480"
         style="fill:#e2e0e0;fill-opacity:1;fill-rule:nonzero;stroke:none"
         d="M 10205,4145.4 H 9184.98 v 1020 H 10205 v -1020 0" /><path
         id="path482"
         style="fill:#e2e0e0;fill-opacity:1;fill-rule:nonzero;stroke:none"
         d="m 12245,4145.4 h -1020 v 1020 h 1020 v -1020 0" /><path
         id="path484"
         style="fill:#e2e0e0;fill-opacity:1;fill-rule:nonzero;stroke:none"
         d="m 14285,4145.4 h -1020 v 1020 h 1020 v -1020 0" /><g
         transform="scale(1.00153)"
         id="g486"><path
           id="path488"
           style="fill:#e2e0e0;fill-opacity:1;fill-rule:nonzero;stroke:none"
           d="M 16300,4139.05 H 15281.6 V 5157.49 H 16300 v -1018.44 0" /></g><g
         transform="scale(1.12669)"
         id="g490"><path
           id="path492"
           style="fill:#e2e0e0;fill-opacity:1;fill-rule:nonzero;stroke:none"
           d="m 16300,3679.28 h -905.3 v 905.31 h 905.3 v -905.31 0" /></g><g
         transform="scale(1.25)"
         id="g494"><path
           id="path496"
           style="fill:#e2e0e0;fill-opacity:1;fill-rule:nonzero;stroke:none"
           d="m 16300,3316.32 h -800 v 816 h 800 v -816 0" /></g><path
         id="path498"
         style="fill:#e2e0e0;fill-opacity:1;fill-rule:nonzero;stroke:none"
         d="M 1020,3130 H 0.00390625 V 4150 H 1020 v -1020 0" /><path
         id="path500"
         style="fill:#e2e0e0;fill-opacity:1;fill-rule:nonzero;stroke:none"
         d="M 3060,3130 H 2040 v 1020 h 1020 v -1020 0" /><path
         id="path502"
         style="fill:#e2e0e0;fill-opacity:1;fill-rule:nonzero;stroke:none"
         d="M 5100,3130 H 4080 v 1020 h 1020 v -1020 0" /><path
         id="path504"
         style="fill:#e2e0e0;fill-opacity:1;fill-rule:nonzero;stroke:none"
         d="M 7140,3130 H 6120 v 1020 h 1020 v -1020 0" /><path
         id="path506"
         style="fill:#e2e0e0;fill-opacity:1;fill-rule:nonzero;stroke:none"
         d="M 9180,3130 H 8160 v 1020 h 1020 v -1020 0" /><path
         id="path508"
         style="fill:#e2e0e0;fill-opacity:1;fill-rule:nonzero;stroke:none"
         d="m 11220,3130 h -1020 v 1020 h 1020 v -1020 0" /><path
         id="path510"
         style="fill:#e2e0e0;fill-opacity:1;fill-rule:nonzero;stroke:none"
         d="m 13260,3130 h -1020 v 1020 h 1020 v -1020 0" /><path
         id="path512"
         style="fill:#e2e0e0;fill-opacity:1;fill-rule:nonzero;stroke:none"
         d="m 15300,3130 h -1020 v 1020 h 1020 v -1020 0" /><g
         transform="scale(1.0638)"
         id="g514"><path
           id="path516"
           style="fill:#e2e0e0;fill-opacity:1;fill-rule:nonzero;stroke:none"
           d="m 16300,2942.27 h -958.8 v 958.83 h 958.8 v -958.83 0" /></g><g
         transform="scale(1.18896)"
         id="g518"><path
           id="path520"
           style="fill:#e2e0e0;fill-opacity:1;fill-rule:nonzero;stroke:none"
           d="m 16300,2632.56 h -857.9 v 857.89 h 857.9 v -857.89 0" /></g><path
         id="path522"
         style="fill:#e2e0e0;fill-opacity:1;fill-rule:nonzero;stroke:none"
         d="m 2044.98,2115.4 h -1020 v 1020 h 1020 v -1020 0" /><path
         id="path524"
         style="fill:#e2e0e0;fill-opacity:1;fill-rule:nonzero;stroke:none"
         d="m 4084.98,2115.4 h -1020 v 1020 h 1020 v -1020 0" /><path
         id="path526"
         style="fill:#e2e0e0;fill-opacity:1;fill-rule:nonzero;stroke:none"
         d="m 6124.98,2115.4 h -1020 v 1020 h 1020 v -1020 0" /><path
         id="path528"
         style="fill:#e2e0e0;fill-opacity:1;fill-rule:nonzero;stroke:none"
         d="m 8164.98,2115.4 h -1020 v 1020 h 1020 v -1020 0" /><path
         id="path530"
         style="fill:#e2e0e0;fill-opacity:1;fill-rule:nonzero;stroke:none"
         d="M 10205,2115.4 H 9184.98 v 1020 H 10205 v -1020 0" /><path
         id="path532"
         style="fill:#e2e0e0;fill-opacity:1;fill-rule:nonzero;stroke:none"
         d="m 12245,2115.4 h -1020 v 1020 h 1020 v -1020 0" /><path
         id="path534"
         style="fill:#e2e0e0;fill-opacity:1;fill-rule:nonzero;stroke:none"
         d="m 14285,2115.4 h -1020 v 1020 h 1020 v -1020 0" /><g
         transform="scale(1.00153)"
         id="g536"><path
           id="path538"
           style="fill:#e2e0e0;fill-opacity:1;fill-rule:nonzero;stroke:none"
           d="M 16300,2112.16 H 15281.6 V 3130.6 H 16300 v -1018.44 0" /></g><g
         transform="scale(1.12669)"
         id="g540"><path
           id="path542"
           style="fill:#e2e0e0;fill-opacity:1;fill-rule:nonzero;stroke:none"
           d="m 16300,1877.54 h -905.3 v 905.31 h 905.3 v -905.31 0" /></g><g
         transform="scale(1.25)"
         id="g544"><path
           id="path546"
           style="fill:#e2e0e0;fill-opacity:1;fill-rule:nonzero;stroke:none"
           d="m 16300,1692.32 h -800 v 816 h 800 v -816 0" /></g><path
         id="path548"
         style="fill:#e2e0e0;fill-opacity:1;fill-rule:nonzero;stroke:none"
         d="M 1020,1100 H 0.00390625 V 2120 H 1020 v -1020 0" /><path
         id="path550"
         style="fill:#e2e0e0;fill-opacity:1;fill-rule:nonzero;stroke:none"
         d="M 3060,1100 H 2040 v 1020 h 1020 v -1020 0" /><path
         id="path552"
         style="fill:#e2e0e0;fill-opacity:1;fill-rule:nonzero;stroke:none"
         d="M 5100,1100 H 4080 v 1020 h 1020 v -1020 0" /><path
         id="path554"
         style="fill:#e2e0e0;fill-opacity:1;fill-rule:nonzero;stroke:none"
         d="M 7140,1100 H 6120 v 1020 h 1020 v -1020 0" /><path
         id="path556"
         style="fill:#e2e0e0;fill-opacity:1;fill-rule:nonzero;stroke:none"
         d="M 9180,1100 H 8160 v 1020 h 1020 v -1020 0" /><path
         id="path558"
         style="fill:#e2e0e0;fill-opacity:1;fill-rule:nonzero;stroke:none"
         d="m 11220,1100 h -1020 v 1020 h 1020 v -1020 0" /><path
         id="path560"
         style="fill:#e2e0e0;fill-opacity:1;fill-rule:nonzero;stroke:none"
         d="m 13260,1100 h -1020 v 1020 h 1020 v -1020 0" /><path
         id="path562"
         style="fill:#e2e0e0;fill-opacity:1;fill-rule:nonzero;stroke:none"
         d="m 15300,1100 h -1020 v 1020 h 1020 v -1020 0" /><g
         transform="scale(1.0638)"
         id="g564"><path
           id="path566"
           style="fill:#e2e0e0;fill-opacity:1;fill-rule:nonzero;stroke:none"
           d="m 16300,1034.03 h -958.8 v 958.82 h 958.8 v -958.82 0" /></g><g
         transform="scale(1.18896)"
         id="g568"><path
           id="path570"
           style="fill:#e2e0e0;fill-opacity:1;fill-rule:nonzero;stroke:none"
           d="m 16300,925.181 h -857.9 v 857.899 h 857.9 v -857.899 0" /></g><path
         id="path572"
         style="fill:#e2e0e0;fill-opacity:1;fill-rule:nonzero;stroke:none"
         d="m 2044.98,85.4023 h -1020 V 1105.4 h 1020 V 85.4023 v 0" /><path
         id="path574"
         style="fill:#e2e0e0;fill-opacity:1;fill-rule:nonzero;stroke:none"
         d="m 4084.98,85.4023 h -1020 V 1105.4 h 1020 V 85.4023 v 0" /><path
         id="path576"
         style="fill:#e2e0e0;fill-opacity:1;fill-rule:nonzero;stroke:none"
         d="m 6124.98,85.4023 h -1020 V 1105.4 h 1020 V 85.4023 v 0" /><path
         id="path578"
         style="fill:#e2e0e0;fill-opacity:1;fill-rule:nonzero;stroke:none"
         d="m 8164.98,85.4023 h -1020 V 1105.4 h 1020 V 85.4023 v 0" /><path
         id="path580"
         style="fill:#e2e0e0;fill-opacity:1;fill-rule:nonzero;stroke:none"
         d="M 10205,85.4023 H 9184.98 V 1105.4 H 10205 V 85.4023 v 0" /><path
         id="path582"
         style="fill:#e2e0e0;fill-opacity:1;fill-rule:nonzero;stroke:none"
         d="M 12245,85.4023 H 11225 V 1105.4 h 1020 V 85.4023 v 0" /><path
         id="path584"
         style="fill:#e2e0e0;fill-opacity:1;fill-rule:nonzero;stroke:none"
         d="M 14285,85.4023 H 13265 V 1105.4 h 1020 V 85.4023 v 0" /><g
         transform="scale(1.00153)"
         id="g586"><path
           id="path588"
           style="fill:#e2e0e0;fill-opacity:1;fill-rule:nonzero;stroke:none"
           d="M 16300,85.2716 H 15281.6 V 1103.71 H 16300 V 85.2716 v 0" /></g><g
         transform="scale(1.12669)"
         id="g590"><path
           id="path592"
           style="fill:#e2e0e0;fill-opacity:1;fill-rule:nonzero;stroke:none"
           d="m 16300,75.7995 h -905.3 V 981.108 h 905.3 v -905.3085 0" /></g><g
         transform="scale(1.25)"
         id="g594"><path
           id="path596"
           style="fill:#e2e0e0;fill-opacity:1;fill-rule:nonzero;stroke:none"
           d="m 16300,68.3219 h -800 V 884.322 h 800 v -816.0001 0" /></g><path
         id="path598"
         style="fill:#a7ddc8;fill-opacity:1;fill-rule:nonzero;stroke:none"
         d="m 12319.9,13761.9 c 0.1,-0.1 0.3,-0.1 0.5,-0.3 -183.2,821.1 -915.8,1435.2 -1792,1435.2 -1014.39,0 -1836.72,-822.4 -1836.72,-1836.7 0,-744.2 442.87,-1384.5 1079.27,-1673.2 -28.86,129.3 -44.62,263.7 -44.62,401.7 0,422.8 143.23,811.9 383.37,1122.1 94.7,-535.1 561,-941.9 1123.5,-941.9 630.8,0 1142.2,511.4 1142.2,1142.2 0,122.4 -19.8,240.3 -55.5,350.9 v 0" /><path
         id="path600"
         style="fill:#7fcdc8;fill-opacity:1;fill-rule:nonzero;stroke:none"
         d="m 9726.33,12088.6 c 0,422.8 143.23,811.9 383.37,1122.1 94.7,-535.1 561,-941.9 1123.5,-941.9 547.7,0 1004.9,385.7 1116,900.4 -8.3,37.9 -17.6,75.5 -29.3,111.9 0.1,-0.1 0.3,-0.1 0.5,-0.2 -183.2,821 -915.8,1435.1 -1792,1435.1 -932.31,0 -1701.84,-694.9 -1820.42,-1594.7 81.37,-624.8 476.56,-1150.1 1022.52,-1414.1 2.47,46.6 6.76,92.7 12.68,138.5 -10.59,79.5 -16.85,160.4 -16.85,242.9 v 0" /><path
         id="path602"
         style="fill:#221e22;fill-opacity:1;fill-rule:nonzero;stroke:none"
         d="m 12413.9,13782.2 c 0,0.1 0,0.2 0,0.3 -195.3,874.9 -988.3,1510 -1885.5,1510 -1065.59,0 -1932.46,-866.9 -1932.46,-1932.4 0,-756.6 445.71,-1447.5 1135.5,-1760.3 12.65,-5.8 26.11,-8.6 39.51,-8.6 21.57,0 43.01,7.3 60.37,21.5 28.17,22.8 40.98,59.7 33.06,95.1 -28.08,125.8 -42.32,254 -42.32,380.8 0,320.7 85.61,627.3 249.04,897.2 174.9,-481.4 634.3,-812.6 1162.1,-812.6 682.6,0 1237.9,555.2 1237.9,1237.8 0,125.4 -19.2,250.3 -57.2,371.2 z m -1180.7,-1417.6 c -444.1,0 -830.9,277.5 -980.2,681.5 2.3,15.7 1.2,32.2 -4.8,48.1 -159.3,416.3 49.8,884.7 466.3,1044 156.5,60 327.1,55.3 480.1,-13 153.2,-68.4 270.5,-192.4 330.5,-349.1 46.1,-120.4 42.5,-251.6 -10.1,-369.3 -52.6,-117.9 -147.9,-208.2 -268.5,-254.2 -189.1,-72.6 -401.9,22.6 -474.3,211.6 -54.2,141.7 16.8,300.9 158.2,355 49.4,18.9 74.2,74.2 55.3,123.7 -18.9,49.4 -74.4,74 -123.8,55.2 -240,-91.8 -360.5,-362 -268.6,-602.3 85,-222.2 297.5,-359 522.5,-359 66.3,0 133.6,11.9 199.1,36.9 168.3,64.4 301.4,190.4 374.9,355 73.4,164.6 78.4,347.7 14,515.8 -78.2,204.5 -231.2,366.2 -431,455.5 -199.8,89.3 -422.4,95.3 -626.8,17.2 -444,-169.9 -696.6,-623.8 -631.9,-1075.8 -250.35,-335.3 -383.48,-732.8 -383.48,-1152.7 0,-75.9 4.52,-152.1 13.65,-228 -525.92,310.7 -856.86,880.7 -856.86,1499.5 0,959.9 780.97,1740.8 1740.99,1740.8 805.2,0 1517.2,-567.7 1696.5,-1351.2 0.8,-5.9 2.1,-11.7 3.9,-17.3 33.8,-104.7 50.9,-212.9 50.9,-321.6 0,-577 -469.5,-1046.3 -1046.5,-1046.3 v 0" /><path
         id="path604"
         style="fill:#a7ddc8;fill-opacity:1;fill-rule:nonzero;stroke:none"
         d="m 13335.7,9621.9 c 0,-1319.7 -1406.1,-2389.7 -3140.7,-2389.7 -1734.62,0 -3140.71,1070.1 -3140.71,2389.7 0,1319.9 1406.09,2901.3 3140.71,2901.3 1734.5,0 3140.7,-1581.4 3140.7,-2901.3 v 0" /><path
         id="path606"
         style="fill:#91d4b9;fill-opacity:1;fill-rule:nonzero;stroke:none"
         d="m 13335.7,9621.9 c 0,-1319.7 -1406.1,-2389.7 -3140.7,-2389.7 -1734.62,0 -3140.71,1070.1 -3140.71,2389.7 0,1319.9 1406.09,2229.2 3140.71,2229.2 1734.5,0 3140.7,-909.3 3140.7,-2229.2 v 0" /><path
         id="path608"
         style="fill:#a7ddc8;fill-opacity:1;fill-rule:nonzero;stroke:none"
         d="m 10866.4,8724.9 c 0,-88.9 -299.4,-104.9 -668.8,-104.9 -369.4,0 -668.79,16 -668.79,104.9 0,89 299.39,321.5 668.79,321.5 369.4,0 668.8,-232.5 668.8,-321.5 v 0" /><path
         id="path610"
         style="fill:#7fcdc8;fill-opacity:1;fill-rule:nonzero;stroke:none"
         d="m 13335.7,9621.9 c 0,-1319.7 -1406.1,-2389.7 -3140.7,-2389.7 -1734.62,0 -3140.71,1070.1 -3140.71,2389.7 0,1320 399.59,-1170.6 3140.71,-1170.6 2741.1,0 3140.7,2490.6 3140.7,1170.6 v 0" /><path
         id="path612"
         style="fill:#221e22;fill-opacity:1;fill-rule:nonzero;stroke:none"
         d="m 10195,7136.5 c -1784.57,0 -3236.45,1114.9 -3236.45,2485.4 0,1357.5 1443.65,2997.1 3236.45,2997.1 1792.8,0 3236.5,-1639.6 3236.5,-2997.1 0,-1370.5 -1451.9,-2485.4 -3236.5,-2485.4 z m 0,5291 C 8508.25,12427.5 7150.02,10892.7 7150.02,9621.9 7150.02,8357 8515.98,7328 10195,7328 c 1679,0 3045,1029 3045,2293.9 0,1270.8 -1358.3,2805.6 -3045,2805.6 v 0" /><path
         id="path614"
         style="fill:#7c1302;fill-opacity:1;fill-rule:nonzero;stroke:none"
         d="m 9163.41,9244.9 c 0,-283.9 -230.08,-513.8 -513.89,-513.8 -283.85,0 -513.87,229.9 -513.87,513.8 0,283.9 230.02,513.9 513.87,513.9 283.81,0 513.89,-230 513.89,-513.9 v 0" /><path
         id="path616"
         style="fill:#ffffff;fill-opacity:1;fill-rule:nonzero;stroke:none"
         d="m 8393.94,9621.3 c 115.68,0 209.42,-93.7 209.42,-209.3 0,-115.7 -93.74,-209.5 -209.42,-209.5 -115.65,0 -209.39,93.8 -209.39,209.5 0,115.6 93.74,209.3 209.39,209.3 v 0" /><path
         id="path618"
         style="fill:#221e22;fill-opacity:1;fill-rule:nonzero;stroke:none"
         d="m 8649.58,9854.5 c -206.43,0 -388.9,-103.4 -499.25,-260.8 -7.51,-10 -14.02,-20.6 -20.29,-31.5 -56.75,-92.6 -90.06,-200.9 -90.06,-317.2 0,-336.2 273.43,-609.6 609.6,-609.6 336.16,0 609.63,273.4 609.63,609.6 0,336.1 -273.56,609.5 -609.63,609.5 z m 0,-1027.7 c -173.68,0 -322.83,106.5 -385.9,257.4 43.93,1.2 97.29,12.8 157.53,25.4 21.44,1.9 42.07,5.9 62.04,12.1 52.26,9.4 108.05,17 166.39,17 153.92,0 291.72,-51.9 385.93,-54.5 -63.19,-150.9 -212.41,-257.4 -385.99,-257.4 v 0" /><path
         id="path620"
         style="fill:#ffffff;fill-opacity:1;fill-rule:nonzero;stroke:none"
         d="m 8393.94,9525.5 c 62.77,0 113.63,-50.9 113.63,-113.6 0,-62.8 -50.86,-113.6 -113.63,-113.6 -62.73,0 -113.6,50.8 -113.6,113.6 0,62.7 50.87,113.6 113.6,113.6 v 0" /><path
         id="path622"
         style="fill:#7c1302;fill-opacity:1;fill-rule:nonzero;stroke:none"
         d="m 12254.2,9244.9 c 0,-283.9 -230,-513.8 -513.8,-513.8 -283.8,0 -514,229.9 -514,513.8 0,283.9 230.1,513.9 514,513.9 283.8,0 513.8,-230 513.8,-513.9 v 0" /><path
         id="path624"
         style="fill:#ffffff;fill-opacity:1;fill-rule:nonzero;stroke:none"
         d="m 11484.8,9621.3 c 115.6,0 209.4,-93.7 209.4,-209.3 0,-115.6 -93.8,-209.4 -209.4,-209.4 -115.6,0 -209.3,93.8 -209.3,209.4 0,115.6 93.7,209.3 209.3,209.3 v 0" /><path
         id="path626"
         style="fill:#221e22;fill-opacity:1;fill-rule:nonzero;stroke:none"
         d="m 11740.4,9854.5 c -206.7,0 -389.4,-103.6 -499.7,-261.3 -7.2,-9.7 -13.4,-19.9 -19.5,-30.3 -57,-92.7 -90.4,-201.4 -90.4,-317.9 0,-336.2 273.5,-609.6 609.7,-609.6 336.1,0 609.5,273.4 609.5,609.6 0,336.1 -273.5,609.5 -609.6,609.5 z m 0,-1027.7 c -173.7,0 -322.9,106.5 -386,257.4 43.9,1.2 97.3,12.8 157.5,25.4 21.5,1.9 42.2,5.9 62.1,12.1 52.3,9.4 108.1,17 166.4,17 153.9,0 291.7,-51.9 385.9,-54.5 -63.1,-150.9 -212.3,-257.4 -385.9,-257.4 v 0" /><path
         id="path628"
         style="fill:#ffffff;fill-opacity:1;fill-rule:nonzero;stroke:none"
         d="m 11484.8,9525.5 c 62.8,0 113.6,-50.9 113.6,-113.6 0,-62.8 -50.8,-113.6 -113.6,-113.6 -62.7,0 -113.6,50.8 -113.6,113.6 0,62.7 50.9,113.6 113.6,113.6 v 0" /><path
         id="path630"
         style="fill:#221e22;fill-opacity:1;fill-rule:nonzero;stroke:none"
         d="m 12166.7,8546.5 c -47.3,23.1 -104.9,3.6 -128.1,-43.9 -2.2,-4.5 -226.9,-445.1 -985,-432.7 -18.9,0.3 -37.5,0.4 -55.6,0.4 -474.6,0 -697.7,-101 -802.8,-198.1 -109,101.3 -345.44,206.9 -858.83,197.7 -10.34,-0.2 -20.47,-0.3 -30.57,-0.3 -725.47,0 -944.96,414.4 -954.68,433.5 -23.41,47.2 -80.72,66.6 -127.83,43.5 -47.5,-23.3 -67.2,-80.6 -43.91,-128.1 10.96,-22.4 274.24,-540.4 1126.35,-540.4 11.13,0 22.41,0.1 33.72,0.3 579,10.1 743.95,-137.9 758.45,-195.5 -1.1,4.1 -1,6.6 -1,6.6 l 98,8.9 98.1,-8.9 c 0,0 0.1,-2.4 -1,-6.6 14.4,57.5 176.3,205.1 758.5,195.5 876.6,-14.6 1149,517.4 1160,540.1 23.3,47.4 3.7,104.7 -43.8,128 v 0" /><path
         id="path632"
         style="fill:#221e22;fill-opacity:1;fill-rule:nonzero;stroke:none"
         d="m 10037.5,8205.2 c -25.4,0 -50.77,10 -69.66,30 l -95.73,101.3 c -36.24,38.5 -34.53,99.1 3.9,135.4 38.42,36.2 99,34.6 135.39,-3.9 l 95.7,-101.4 c 36.3,-38.4 34.6,-99 -3.9,-135.3 -18.5,-17.5 -42.1,-26.1 -65.7,-26.1 v 0" /><path
         id="path634"
         style="fill:#221e22;fill-opacity:1;fill-rule:nonzero;stroke:none"
         d="m 10352.5,8205.2 c -23.6,0 -47.3,8.6 -65.8,26.1 -38.4,36.3 -40.1,96.9 -3.8,135.3 l 95.7,101.4 c 36.4,38.5 97,40 135.3,3.9 38.5,-36.3 40.2,-97 3.9,-135.4 l -95.7,-101.3 c -18.9,-20 -44.3,-30 -69.6,-30 v 0" /><path
         id="path636"
         style="fill:#221e22;fill-opacity:1;fill-rule:nonzero;stroke:none"
         d="m 9246.18,9997.7 c -16.95,0 -34,4.5 -49.52,13.9 l -298.3,180.9 c -45.25,27.4 -59.68,86.3 -32.22,131.5 27.3,45.3 86.26,59.7 131.45,32.2 l 298.33,-180.8 c 45.25,-27.5 59.68,-86.4 32.22,-131.5 -18.01,-29.8 -49.58,-46.2 -81.96,-46.2 v 0" /><path
         id="path638"
         style="fill:#221e22;fill-opacity:1;fill-rule:nonzero;stroke:none"
         d="m 11143.7,9997.7 c -32.3,0 -63.9,16.4 -81.9,46.2 -27.4,45.1 -12.9,104 32.3,131.5 l 298.3,180.8 c 45.1,27.5 104.1,13.1 131.5,-32.2 27.5,-45.2 13,-104.1 -32.3,-131.5 l -298.3,-180.9 c -15.5,-9.4 -32.6,-13.9 -49.6,-13.9 v 0" /></g></g></svg>